<svg width="153" height="52" viewBox="0 0 153 52" fill="none" xmlns="http://www.w3.org/2000/svg">
<path d="M42.6929 8.92269C42.6929 8.92269 26.4315 8.92269 23.5491 8.92269C23.0052 8.97708 22.4614 9.03148 22.1351 9.08586C19.2526 9.57533 16.6421 10.8262 14.521 12.6209C8.37543 16.1016 3.37193 21.3227 0.0543892 27.5227C3.31864e-06 26.87 0 26.2718 0 25.6192C0 24.9121 0.0543842 24.2051 0.10877 23.4981C0.326314 20.8876 0.92456 18.4402 1.90351 16.156C2.99122 13.5455 4.51403 11.1525 6.36315 9.08586C10.8228 4.13675 17.2947 1.03675 24.4736 0.927979H24.6912C27.628 0.927979 30.4561 1.47183 33.0666 2.39639C35.7859 3.37533 38.2333 4.78937 40.4087 6.58411C41.2789 7.3999 41.8771 7.99813 42.6929 8.92269Z" fill="url(#paint0_radial_375_2189)"/>
<path d="M33.0123 39.5966V51.072C32.1421 49.3316 29.6947 49.8211 29.1509 49.8755C27.6825 50.1474 26.1597 50.3106 24.6369 50.3106H24.4193C12.6176 50.2018 2.77373 41.772 0.489524 30.6229C0.27198 29.6439 0.163215 28.6106 0.0544434 27.5773C3.37198 21.3229 8.37549 16.1562 14.5211 12.6755C13.2702 13.7089 12.2369 14.851 11.3667 16.2106C9.89828 18.3317 8.97372 20.8334 8.7018 23.5527C8.64741 24.151 8.59303 24.7492 8.59303 25.3475C8.59303 27.1966 8.91934 28.9913 9.46319 30.6773C11.6386 36.986 17.5123 41.5544 24.4737 41.772C24.6369 41.772 24.8544 41.772 25.0176 41.772C27.9 41.7176 30.6193 40.9562 33.0123 39.5966Z" fill="url(#paint1_linear_375_2189)"/>
<path d="M49.2193 23.4983C49.2737 24.2054 49.3281 24.9124 49.3281 25.6194C49.3281 27.1422 49.2193 28.5562 48.9474 30.0246C48.893 30.2422 48.893 30.4597 48.8386 30.6229C47.6965 36.2246 44.6509 41.1194 40.4088 44.6544V23.4983H40.3544H39.9193L34.4807 19.5282L39.7562 16.1562H50.5789L48.5667 19.5826C48.893 20.8334 49.1105 22.1387 49.2193 23.4983Z" fill="#E9871B"/>
<path d="M24.093 30.5685L32.4684 30.6229C30.7825 32.9615 28.0632 34.4843 24.9632 34.4843C24.8 34.4843 24.5825 34.4843 24.4193 34.4843C21.5369 34.3211 19.0351 32.8527 17.4579 30.6229C16.3702 29.1001 15.772 27.251 15.772 25.2931C15.772 24.6948 15.8264 24.0422 15.9351 23.4983C16.6965 19.5826 19.9597 16.5913 23.9842 16.1562H39.7561L34.4807 19.5282L39.9193 23.4983H26.3772C26.2684 23.4983 25.9965 23.4983 25.779 23.5527C24.8 23.8246 24.093 24.6948 24.093 25.7825V26.272C24.093 26.272 24.093 26.3264 24.093 26.3808C24.093 26.4352 24.093 26.4352 24.093 26.4896V30.5685Z" fill="#E9871B"/>
<path d="M65.8069 27.7404L59.4438 23.0633C59.4438 23.0633 58.4648 21.1598 59.2262 18.6036C59.9876 16.0475 62.7069 7.61767 67.8192 4.35452C69.4508 3.97382 76.249 4.78961 77.8262 4.19137C79.4034 3.59312 81.8508 2.99487 81.8508 2.99487L79.2402 15.3405C79.2402 15.3405 75.5964 13.3826 72.2788 10.2826C72.2788 10.2826 67.2753 16.537 67.656 20.9422C67.656 20.9422 68.7981 22.4106 73.5297 19.7457V16.4826H80.9806C80.9806 16.4826 77.8806 25.5106 77.228 29.2632C76.0858 29.6439 73.9648 27.3597 73.7473 24.4773C73.6929 24.4773 69.2876 28.7194 65.8069 27.7404Z" fill="url(#paint2_linear_375_2189)"/>
<path d="M101.538 20.2351C100.723 18.821 101.266 4.46316 100.777 4.02808C97.8401 5.22457 87.2892 6.09475 87.2892 6.09475C83.9717 18.7667 80.5454 21.0509 80.6541 22.5737C82.1226 25.4561 86.7997 27.9035 86.7997 27.9035L88.0506 22.4649H94.4682L94.3594 28.5017C98.3839 28.6649 102.898 22.2473 102.735 22.2473C102.626 22.2473 102.354 21.6491 101.538 20.2351ZM89.0839 19.6368L89.4103 18.8754L93.2173 11.0982C93.2173 11.0982 93.8699 10.7176 93.9243 10.9895C93.9787 11.2614 94.1418 19.5824 94.1418 19.5824L89.0839 19.6368Z" fill="url(#paint3_linear_375_2189)"/>
<path d="M109.805 29.0999C109.805 29.0999 103.932 27.6315 103.714 24.2595C103.496 20.8876 105.237 9.62972 106.053 8.32446C106.868 7.07359 112.253 3.86483 116.277 3.86483L116.386 17.2438L122.042 2.55957C122.042 2.55957 125.142 5.60517 129.71 5.38763C129.71 5.38763 130.961 7.72622 127.372 23.6613C126.61 26.9788 119.214 27.0876 119.214 27.0876L121.879 15.1771C121.879 15.1771 116.44 24.4771 115.135 25.5104C113.83 26.5437 111.654 17.6245 111.763 15.3403C111.763 15.2315 109.37 21.1595 109.805 29.0999Z" fill="url(#paint4_linear_375_2189)"/>
<path d="M149.235 3.21216L152.117 13.056L138.575 12.5121C138.575 12.5121 138.575 15.0683 140.968 15.1227C143.361 15.177 149.724 15.1771 149.724 15.1771C149.724 15.1771 147.331 19.0384 145.21 19.2016C143.089 19.3648 138.684 19.3104 138.684 19.3104L138.521 21.5946L144.177 21.5402C144.177 21.5402 148.365 21.377 150.758 19.5823C150.758 19.5823 151.791 24.6402 142.763 27.6858C140.968 28.284 132.158 29.3718 129.928 22.8999C129.275 19.0928 133.572 16.8086 133.572 16.8086C133.572 16.8086 129.112 13.1648 133.028 8.10689C135.693 4.57181 144.231 3.26654 149.235 3.21216Z" fill="url(#paint5_linear_375_2189)"/>
<path d="M69.614 36.2244L68.3631 42.6419C68.3631 42.6419 65.2087 40.4121 64.7192 40.0314C64.2298 39.6507 61.6736 45.2524 62.707 45.2524C63.7403 45.2524 68.5806 43.8928 68.5806 43.8928C68.5806 43.8928 65.6438 49.1138 63.1964 48.8963C60.7491 48.7331 56.9964 47.591 58.5193 42.8594C60.0964 38.1823 62.5982 36.4419 62.5982 36.4419C62.5982 36.4419 65.3175 35.3542 69.614 36.2244Z" fill="url(#paint6_linear_375_2189)"/>
<path d="M75.7595 35.4089C75.7595 35.4089 71.735 34.7562 70.6473 37.8562C69.5595 40.9562 67.8192 47.8632 72.6595 49.1685C72.6052 49.1685 72.7683 39.651 75.7595 35.4089Z" fill="url(#paint7_linear_375_2189)"/>
<path d="M75.6507 39.4877C75.6507 39.4877 74.0735 44.7087 74.8349 46.3947C75.6507 48.0806 77.7717 48.7333 77.7717 48.7333C77.7717 48.7333 76.7384 43.2403 79.6752 40.4122C79.6752 40.4122 77.8805 39.1613 75.6507 39.4877Z" fill="url(#paint8_linear_375_2189)"/>
<path d="M80.5997 39.7052V47.3192V47.8631H83.2103V44.9262C83.2103 44.9262 83.3734 42.0982 85.3857 42.3157C85.3857 42.3157 85.6576 44.8175 85.4401 45.742C85.1682 46.6122 85.005 47.9175 85.005 47.9175H88.6488C88.6488 47.9175 87.5067 44.2192 89.8997 42.5333C90.8243 41.9894 89.8453 47.4824 90.4436 47.9719C91.0418 48.4613 93.4892 47.9719 93.4892 47.9719C93.4892 47.9719 93.1629 44.6543 94.1418 42.9683C95.1208 41.2824 93.3804 38.8894 91.6945 38.7806C90.0629 38.7262 88.812 41.3368 88.812 41.3368C88.812 41.3368 88.9208 39.3245 87.9418 39.3245C86.9629 39.3245 85.9296 39.2157 85.9296 39.2157C85.9296 39.2157 84.3524 40.6841 83.8629 41.7175L83.9717 39.1069H80.491L80.5997 39.7052Z" fill="url(#paint9_linear_375_2189)"/>
<path d="M102.463 38.8896C101.43 38.8896 101.81 39.651 101.81 39.651L101.43 39.4878C101.43 39.4878 96.0456 38.7808 95.0666 42.8597C94.0877 46.9387 96.535 48.0808 98.0578 47.972C99.5807 47.8633 99.6894 46.2317 100.342 46.5036C100.995 46.7755 100.396 47.6457 100.396 47.6457C100.396 47.6457 101.158 48.951 103.17 48.0808C103.333 46.8843 102.572 45.2527 104.203 42.5334C105.835 39.8142 103.496 38.8352 102.463 38.8896ZM97.8947 45.6334C97.0245 42.751 100.396 41.065 100.396 41.065C100.396 41.065 101.158 40.6299 101.103 41.2282C100.668 46.4492 98.1122 46.3404 97.8947 45.6334Z" fill="url(#paint10_linear_375_2189)"/>
<path d="M105.291 41.2824L108.5 38.7263C108.5 38.7263 109.86 39.5965 109.86 40.6298C109.86 41.6632 109.968 43.6754 109.968 43.6754C109.968 43.6754 111.219 43.7298 111.437 39.3789C111.491 38.2912 114.591 40.5754 114.591 41.1737C114.591 41.7719 113.449 43.621 112.742 44.3281C112.035 45.0351 112.742 45.4158 112.905 45.6333C113.068 45.8509 114.645 48.2982 112.905 48.9509C111.219 49.5491 109.914 49.0052 109.914 49.0052L109.751 45.3614C109.751 45.3614 109.152 44.6 108.717 45.5789C108.337 46.6123 107.575 48.9509 107.249 48.9509C106.923 48.9509 103.931 47.5912 103.986 46.721C104.04 45.8509 105.781 44.4368 106.977 44.0561C108.174 43.6754 104.91 41.6088 104.91 41.6088C104.91 41.6088 105.128 41.5 105.291 41.2824Z" fill="url(#paint11_linear_375_2189)"/>
<path d="M78.0982 34.8103C78.0982 34.8103 77.1192 35.7892 76.4666 36.605C75.814 37.4208 77.7175 39.0524 78.5332 39.5419C79.349 39.977 80.8718 36.6594 80.8175 35.8436C80.7631 35.0822 78.0982 34.8103 78.0982 34.8103Z" fill="url(#paint12_linear_375_2189)"/>
<defs>
<radialGradient id="paint0_radial_375_2189" cx="0" cy="0" r="1" gradientUnits="userSpaceOnUse" gradientTransform="translate(23.3717 11.0197) rotate(33.6292) scale(22.9384 102.461)">
<stop stop-color="#FFD66B"/>
<stop offset="1" stop-color="#E26C00"/>
</radialGradient>
<linearGradient id="paint1_linear_375_2189" x1="3.35251" y1="8.90446" x2="36.1688" y2="12.1727" gradientUnits="userSpaceOnUse">
<stop offset="0.237273" stop-color="#EDC663"/>
<stop offset="0.683386" stop-color="#E26C00"/>
</linearGradient>
<linearGradient id="paint2_linear_375_2189" x1="61.2293" y1="0.410862" x2="84.0387" y2="2.71577" gradientUnits="userSpaceOnUse">
<stop stop-color="#E2A300"/>
<stop offset="1" stop-color="#E26C00"/>
</linearGradient>
<linearGradient id="paint3_linear_375_2189" x1="82.8619" y1="1.62412" x2="104.832" y2="3.92435" gradientUnits="userSpaceOnUse">
<stop stop-color="#E2A300"/>
<stop offset="1" stop-color="#E26C00"/>
</linearGradient>
<linearGradient id="paint4_linear_375_2189" x1="106.32" y1="-0.0470642" x2="132.35" y2="2.93734" gradientUnits="userSpaceOnUse">
<stop stop-color="#E2A300"/>
<stop offset="1" stop-color="#E26C00"/>
</linearGradient>
<linearGradient id="paint5_linear_375_2189" x1="132.088" y1="0.762967" x2="154.231" y2="3.05603" gradientUnits="userSpaceOnUse">
<stop stop-color="#E2A300"/>
<stop offset="1" stop-color="#E26C00"/>
</linearGradient>
<linearGradient id="paint6_linear_375_2189" x1="59.312" y1="34.6086" x2="70.7048" y2="35.7712" gradientUnits="userSpaceOnUse">
<stop stop-color="#E2A300"/>
<stop offset="1" stop-color="#E26C00"/>
</linearGradient>
<linearGradient id="paint7_linear_375_2189" x1="70.0627" y1="33.9945" x2="76.4104" y2="34.332" gradientUnits="userSpaceOnUse">
<stop stop-color="#E2A300"/>
<stop offset="1" stop-color="#E26C00"/>
</linearGradient>
<linearGradient id="paint8_linear_375_2189" x1="75.1323" y1="38.52" x2="80.1885" y2="38.8384" gradientUnits="userSpaceOnUse">
<stop stop-color="#E2A300"/>
<stop offset="1" stop-color="#E26C00"/>
</linearGradient>
<linearGradient id="paint9_linear_375_2189" x1="81.8853" y1="37.8556" x2="95.4954" y2="40.194" gradientUnits="userSpaceOnUse">
<stop stop-color="#E2A300"/>
<stop offset="1" stop-color="#E26C00"/>
</linearGradient>
<linearGradient id="paint10_linear_375_2189" x1="95.8351" y1="37.9552" x2="105.669" y2="39.1479" gradientUnits="userSpaceOnUse">
<stop stop-color="#E2A300"/>
<stop offset="1" stop-color="#E26C00"/>
</linearGradient>
<linearGradient id="paint11_linear_375_2189" x1="105.046" y1="37.6945" x2="115.567" y2="38.9269" gradientUnits="userSpaceOnUse">
<stop stop-color="#E2A300"/>
<stop offset="1" stop-color="#E26C00"/>
</linearGradient>
<linearGradient id="paint12_linear_375_2189" x1="76.7817" y1="34.3417" x2="81.2398" y2="34.8281" gradientUnits="userSpaceOnUse">
<stop stop-color="#E2A300"/>
<stop offset="1" stop-color="#E26C00"/>
</linearGradient>
</defs>
</svg>
