<svg width="75" height="76" viewBox="0 0 75 76" fill="none" xmlns="http://www.w3.org/2000/svg">
<path d="M68.4053 0.601562H6.98554C3.37414 0.601562 0.436035 3.53967 0.436035 7.15107V18.0669H32.5225L40.7051 12.6117C41.0639 12.3726 41.4853 12.2451 41.9162 12.2451H74.9548V7.15107C74.9548 3.53967 72.0167 0.601562 68.4053 0.601562ZM11.3519 11.5174C10.1462 11.5174 9.16871 10.5399 9.16871 9.33423C9.16871 8.12854 10.1462 7.15107 11.3519 7.15107C12.5576 7.15107 13.535 8.12854 13.535 9.33423C13.535 10.5399 12.5576 11.5174 11.3519 11.5174ZM20.0845 11.5174C18.8789 11.5174 17.9014 10.5399 17.9014 9.33423C17.9014 8.12854 18.8789 7.15107 20.0845 7.15107C21.2902 7.15107 22.2677 8.12854 22.2677 9.33423C22.2677 10.5399 21.2902 11.5174 20.0845 11.5174ZM28.8172 11.5174C27.6115 11.5174 26.634 10.5399 26.634 9.33423C26.634 8.12854 27.6115 7.15107 28.8172 7.15107C30.0229 7.15107 31.0004 8.12854 31.0004 9.33423C31.0004 10.5399 30.0229 11.5174 28.8172 11.5174Z" fill="white"/>
<path d="M31.146 57.5093C31.146 60.3555 32.9713 62.7821 35.5123 63.6833V49.5044H31.146V57.5093Z" fill="white"/>
<path d="M31.1873 45.1382H44.2034C43.8402 41.8681 41.0607 39.3164 37.6953 39.3164C34.3301 39.3164 31.5507 41.8681 31.1873 45.1382Z" fill="white"/>
<path d="M39.8785 63.6833C42.4196 62.7821 44.2449 60.3555 44.2449 57.5093V49.5044H39.8785V63.6833Z" fill="white"/>
<path d="M34.3945 22.0667C34.0359 22.3059 33.6145 22.4334 33.1836 22.4334H0.436035V68.571C0.436035 72.1824 3.37414 75.1205 6.98554 75.1205H68.4053C72.0167 75.1205 74.9548 72.1824 74.9548 68.571V16.6116H42.5773L34.3945 22.0667ZM44.0888 32.1224L42.5089 36.072C43.7868 36.7027 44.9233 37.5759 45.8597 38.6314L49.2083 36.6982C50.2524 36.0953 51.5877 36.4531 52.1905 37.4972C52.7933 38.5413 52.4356 39.8766 51.3915 40.4794L48.0473 42.4102C48.4111 43.4971 48.6113 44.6583 48.6113 45.866V46.8848H52.2499C53.4556 46.8848 54.433 47.8623 54.433 49.068C54.433 50.2737 53.4556 51.2512 52.2499 51.2512H48.6113V56.1602L51.7248 57.717C52.8032 58.2562 53.2403 59.5676 52.7011 60.6461V60.6462C52.1618 61.7245 50.8505 62.1618 49.7721 61.6225L48.107 60.79C46.7109 65.2109 42.5719 68.4254 37.6954 68.4254C32.819 68.4254 28.68 65.2109 27.284 60.7899L25.619 61.6224C24.5405 62.1616 23.2292 61.7245 22.6901 60.6461C22.1508 59.5676 22.5879 58.2562 23.6664 57.7171L26.7796 56.1604V51.2512H23.141C21.9353 51.2512 20.9578 50.2737 20.9578 49.068C20.9578 47.8623 21.9353 46.8848 23.141 46.8848H26.7796V45.866C26.7796 44.6583 26.9797 43.4971 27.3436 42.4102L23.9994 40.4794C22.9553 39.8766 22.5975 38.5413 23.2004 37.4972C23.8032 36.4531 25.1384 36.0953 26.1826 36.6982L29.5311 38.6314C30.4675 37.5759 31.6041 36.7025 32.882 36.072L31.3021 32.1224C30.8543 31.0029 31.3989 29.7324 32.5183 29.2846C33.6378 28.8367 34.9083 29.3814 35.3561 30.5007L37.1415 34.9642C37.325 34.955 37.5097 34.95 37.6954 34.95C37.8811 34.95 38.0658 34.9548 38.2494 34.9642L40.0348 30.5007C40.4826 29.3812 41.7531 28.8367 42.8726 29.2846C43.9921 29.7323 44.5366 31.0029 44.0888 32.1224Z" fill="white"/>
</svg>
