<svg width="24" height="23" viewBox="0 0 24 23" fill="none" xmlns="http://www.w3.org/2000/svg">
<g clip-path="url(#clip0_375_4138)">
<path d="M19.2739 19.0027H18.1644V18.3097H19.2739C19.971 18.3097 20.5381 17.7425 20.5381 17.0454C20.5381 16.7077 20.4066 16.3903 20.1679 16.1515L19.7693 15.753C19.0062 14.9898 19.0062 13.7481 19.7693 12.985L20.2973 12.457L20.7873 12.9471L20.2594 13.475C19.7664 13.968 19.7664 14.77 20.2594 15.263L20.6579 15.6614C21.0275 16.0311 21.2312 16.5226 21.2312 17.0454C21.2312 18.1247 20.3531 19.0027 19.2739 19.0027Z" fill="#FA4954"/>
<path d="M6.98979 10.3868H4.99731V8.11099C4.99731 7.56076 5.44333 7.11475 5.99355 7.11475C6.54377 7.11475 6.98979 7.56076 6.98979 8.11099V10.3868Z" fill="#ED4322"/>
<path d="M13.8169 10.3868H11.8245V8.11099C11.8245 7.56076 12.2705 7.11475 12.8207 7.11475C13.3709 7.11475 13.8169 7.56076 13.8169 8.11099V10.3868Z" fill="#ED4322"/>
<path d="M6.98979 10.3868H4.99731V8.11099C4.99731 7.56076 5.44333 7.11475 5.99355 7.11475C6.54377 7.11475 6.98979 7.56076 6.98979 8.11099V10.3868Z" fill="#FA4954"/>
<path d="M13.8169 10.3868H11.8245V8.11099C11.8245 7.56076 12.2705 7.11475 12.8207 7.11475C13.3709 7.11475 13.8169 7.56076 13.8169 8.11099V10.3868Z" fill="#FA4954"/>
<path d="M5.99358 7.11475C5.85076 7.11475 5.71508 7.14502 5.59229 7.19915C5.94257 7.35356 6.18723 7.70358 6.18723 8.11099V10.3869H6.98982V8.11099C6.98982 7.56081 6.5438 7.11475 5.99358 7.11475Z" fill="#FA2A3B"/>
<path d="M12.8207 7.11475C12.6779 7.11475 12.5422 7.14502 12.4194 7.19915C12.7697 7.35356 13.0144 7.70358 13.0144 8.11099V10.3869H13.817V8.11099C13.817 7.56081 13.3709 7.11475 12.8207 7.11475Z" fill="#FA2A3B"/>
<path d="M15.284 12.2727V10.566C15.284 10.2103 14.9956 9.92188 14.6399 9.92188H4.17443C3.81866 9.92188 3.53026 10.2103 3.53026 10.566V12.2727C3.53026 12.8291 3.30572 13.362 2.9075 13.7506L0.68909 15.9156C0.498029 16.1021 0.390259 16.3578 0.390259 16.6248V20.785C0.390259 21.9117 1.30361 22.825 2.43027 22.825H16.3841C17.5107 22.825 18.4241 21.9117 18.4241 20.785V16.6248C18.4241 16.3578 18.3163 16.1021 18.1253 15.9156L15.9068 13.7506C15.5086 13.362 15.284 12.8291 15.284 12.2727Z" fill="#FC8086"/>
<path d="M18.1252 15.9156L15.9068 13.7506C15.5086 13.362 15.284 12.8291 15.284 12.2727V10.566C15.284 10.2103 14.9956 9.92188 14.6399 9.92188H12.2225C12.5783 9.92188 12.8667 10.2103 12.8667 10.566V12.2727C12.8667 12.8291 13.0913 13.362 13.4895 13.7506L15.7079 15.9156C15.899 16.1021 16.0067 16.3579 16.0067 16.6249V20.785C16.0067 21.9117 15.0934 22.825 13.9667 22.825H16.3841C17.5107 22.825 18.424 21.9117 18.424 20.785V16.6249C18.424 16.3579 18.3163 16.1021 18.1252 15.9156Z" fill="#FB636F"/>
<path d="M9.4071 21.0945C11.5536 21.0945 13.2937 19.3544 13.2937 17.2079C13.2937 15.0614 11.5536 13.3213 9.4071 13.3213C7.2606 13.3213 5.52051 15.0614 5.52051 17.2079C5.52051 19.3544 7.2606 21.0945 9.4071 21.0945Z" fill="#E0DDE2"/>
<path d="M11.4304 13.8887C11.7904 14.478 11.9979 15.1707 11.9979 15.9119C11.9979 18.0584 10.2578 19.7985 8.11133 19.7985C7.37019 19.7985 6.6775 19.5909 6.08813 19.2309C6.77078 20.3484 8.00183 21.0943 9.40716 21.0943C11.5537 21.0943 13.2938 19.3542 13.2938 17.2077C13.2938 15.8024 12.5478 14.5713 11.4304 13.8887Z" fill="#C8C1C9"/>
<path d="M9.40715 18.4093C10.0708 18.4093 10.6088 17.8712 10.6088 17.2076C10.6088 16.5439 10.0708 16.0059 9.40715 16.0059C8.74346 16.0059 8.20544 16.5439 8.20544 17.2076C8.20544 17.8712 8.74346 18.4093 9.40715 18.4093Z" fill="#FA4954"/>
<path d="M9.78659 16.0674C9.82627 16.1867 9.84807 16.3141 9.84807 16.4468C9.84807 17.1105 9.31007 17.6485 8.64637 17.6485C8.51372 17.6485 8.38629 17.6267 8.26697 17.587C8.42584 18.0647 8.87613 18.4093 9.40718 18.4093C10.0709 18.4093 10.6089 17.8713 10.6089 17.2076C10.6089 16.6765 10.2643 16.2263 9.78659 16.0674Z" fill="#FA2A3B"/>
<path d="M9.40358 15.1443C9.6461 15.1443 9.84269 14.9477 9.84269 14.7052C9.84269 14.4627 9.6461 14.2661 9.40358 14.2661C9.16107 14.2661 8.96448 14.4627 8.96448 14.7052C8.96448 14.9477 9.16107 15.1443 9.40358 15.1443Z" fill="#8F818F"/>
<path d="M8.04384 15.5408C8.28635 15.5408 8.48295 15.3442 8.48295 15.1017C8.48295 14.8592 8.28635 14.6626 8.04384 14.6626C7.80133 14.6626 7.60474 14.8592 7.60474 15.1017C7.60474 15.3442 7.80133 15.5408 8.04384 15.5408Z" fill="#8F818F"/>
<path d="M10.7648 15.5408C11.0073 15.5408 11.2039 15.3442 11.2039 15.1017C11.2039 14.8592 11.0073 14.6626 10.7648 14.6626C10.5223 14.6626 10.3257 14.8592 10.3257 15.1017C10.3257 15.3442 10.5223 15.5408 10.7648 15.5408Z" fill="#8F818F"/>
<path d="M11.6955 16.6106C11.938 16.6106 12.1346 16.414 12.1346 16.1715C12.1346 15.929 11.938 15.7324 11.6955 15.7324C11.4529 15.7324 11.2563 15.929 11.2563 16.1715C11.2563 16.414 11.4529 16.6106 11.6955 16.6106Z" fill="#8F818F"/>
<path d="M7.11623 16.6106C7.35874 16.6106 7.55534 16.414 7.55534 16.1715C7.55534 15.929 7.35874 15.7324 7.11623 15.7324C6.87372 15.7324 6.67712 15.929 6.67712 16.1715C6.67712 16.414 6.87372 16.6106 7.11623 16.6106Z" fill="#8F818F"/>
<path d="M7.50551 19.3113C7.74802 19.3113 7.94462 19.1147 7.94462 18.8722C7.94462 18.6297 7.74802 18.4331 7.50551 18.4331C7.263 18.4331 7.06641 18.6297 7.06641 18.8722C7.06641 19.1147 7.263 19.3113 7.50551 19.3113Z" fill="#8F818F"/>
<path d="M8.69814 20.0686C8.94065 20.0686 9.13725 19.872 9.13725 19.6295C9.13725 19.387 8.94065 19.1904 8.69814 19.1904C8.45563 19.1904 8.25903 19.387 8.25903 19.6295C8.25903 19.872 8.45563 20.0686 8.69814 20.0686Z" fill="#8F818F"/>
<path d="M10.1157 20.0686C10.3583 20.0686 10.5548 19.872 10.5548 19.6295C10.5548 19.387 10.3583 19.1904 10.1157 19.1904C9.87323 19.1904 9.67664 19.387 9.67664 19.6295C9.67664 19.872 9.87323 20.0686 10.1157 20.0686Z" fill="#8F818F"/>
<path d="M6.9153 18.0218C7.15781 18.0218 7.35441 17.8252 7.35441 17.5827C7.35441 17.3401 7.15781 17.1436 6.9153 17.1436C6.67279 17.1436 6.4762 17.3401 6.4762 17.5827C6.4762 17.8252 6.67279 18.0218 6.9153 18.0218Z" fill="#8F818F"/>
<path d="M11.8998 18.0218C12.1423 18.0218 12.3389 17.8252 12.3389 17.5827C12.3389 17.3401 12.1423 17.1436 11.8998 17.1436C11.6573 17.1436 11.4607 17.3401 11.4607 17.5827C11.4607 17.8252 11.6573 18.0218 11.8998 18.0218Z" fill="#8F818F"/>
<path d="M22.9429 9.33558C22.3766 7.6698 21.2684 5.82317 19.7099 4.11748C18.1514 2.4118 16.412 1.14201 14.8039 0.428103C12.89 -0.421663 11.715 0.121111 10.7 1.0486C10.3651 1.3555 10.3417 1.88102 10.6482 2.21637L13.0998 4.89956C13.408 5.23678 13.9312 5.26037 14.2684 4.95227L15.3419 3.97137C15.4887 3.83729 15.7108 3.82712 15.8682 3.94863C16.5593 4.48217 17.2365 5.10596 17.8697 5.79891C18.5029 6.49186 19.0632 7.22249 19.5324 7.95882C19.6393 8.12647 19.6092 8.34678 19.4624 8.4809L18.3889 9.4618C18.0517 9.76996 18.0281 10.2932 18.3362 10.6304L20.7879 13.3136C21.0943 13.6489 21.6198 13.673 21.9556 13.3671C22.9707 12.4395 23.617 11.3182 22.9429 9.33558Z" fill="#FB636F"/>
<path d="M22.9429 9.33516C22.3766 7.66938 21.2684 5.82275 19.7099 4.11706C18.1514 2.41138 16.412 1.14159 14.804 0.427684C13.8626 0.00971231 13.1002 -0.0708143 12.4475 0.0650465C12.7936 0.129432 13.1674 0.2467 13.575 0.427684C15.1831 1.14159 16.9225 2.41142 18.481 4.11706C20.0395 5.82275 21.1476 7.66938 21.714 9.33516C22.3747 11.2786 21.7665 12.3943 20.7862 13.3112L20.788 13.3131C21.0944 13.6485 21.6198 13.6725 21.9556 13.3666C22.9707 12.4391 23.617 11.3178 22.9429 9.33516Z" fill="#FA4954"/>
</g>
<defs>
<clipPath id="clip0_375_4138">
<rect width="22.8293" height="22.8293" fill="white" transform="translate(0.390259)"/>
</clipPath>
</defs>
</svg>
