<svg width="87" height="87" viewBox="0 0 87 87" fill="none" xmlns="http://www.w3.org/2000/svg">
<path d="M82.832 71.5448C91.139 57.2567 86.4871 38.9813 72.1991 30.6743C71.5345 30.3421 70.87 30.0098 70.2054 29.6775C71.8668 49.9466 56.5819 67.8897 36.3128 69.5511C34.3191 69.8834 32.3255 69.8834 30.3318 69.5511C37.6419 84.5037 55.5851 90.4848 70.2054 83.5069C70.5377 83.1746 71.2022 83.1746 71.5345 82.8423L80.1738 86.1651C81.1706 86.4974 82.4998 86.4974 83.4966 85.8328C84.4934 85.1683 84.8257 83.8391 84.8257 82.8423L82.832 71.5448Z" fill="white"/>
<path d="M33.6545 0.104492C15.3791 0.104492 0.426514 15.0571 0.426514 33.3325C0.426514 39.3135 2.08791 45.2946 5.07844 50.2788L3.08475 62.5731C2.75247 63.9023 3.41703 64.8991 4.41387 65.5637C5.41071 66.2282 6.73984 66.5605 7.73668 65.896L17.7051 61.9086C33.6545 70.8801 53.9236 65.2314 62.8952 48.9497C71.8667 32.6679 66.218 12.7311 49.9362 3.75957C44.952 1.43361 39.3033 0.104492 33.6545 0.104492ZM20.3633 36.6553C18.3696 36.6553 17.0405 35.3262 17.0405 33.3325C17.0405 31.3388 18.3696 30.0097 20.3633 30.0097C22.357 30.0097 23.6861 31.3388 23.6861 33.3325C23.6861 35.3262 22.357 36.6553 20.3633 36.6553ZM33.6545 36.6553C31.6608 36.6553 30.3317 35.3262 30.3317 33.3325C30.3317 31.3388 31.6608 30.0097 33.6545 30.0097C35.6482 30.0097 36.9773 31.3388 36.9773 33.3325C36.9773 35.3262 35.6482 36.6553 33.6545 36.6553ZM46.9457 36.6553C44.952 36.6553 43.6229 35.3262 43.6229 33.3325C43.6229 31.3388 44.952 30.0097 46.9457 30.0097C48.9394 30.0097 50.2685 31.3388 50.2685 33.3325C50.2685 35.3262 48.9394 36.6553 46.9457 36.6553Z" fill="white"/>
</svg>
