<svg width="52" height="60" viewBox="0 0 52 60" fill="none" xmlns="http://www.w3.org/2000/svg">
<path d="M2.92555 16.133H2.03617C1.41685 16.133 0.914795 15.6309 0.914795 15.0116V11.1449C0.914795 10.5256 1.41685 10.0236 2.03617 10.0236H2.92555V16.133Z" fill="url(#paint0_linear_375_2307)"/>
<path d="M2.92555 23.2476H2.03617C1.41685 23.2476 0.914795 22.7455 0.914795 22.1262V18.2596C0.914795 17.6402 1.41685 17.1382 2.03617 17.1382H2.92555V23.2476Z" fill="url(#paint1_linear_375_2307)"/>
<path d="M40.5098 16.133H41.3991C42.0185 16.133 42.5205 15.6309 42.5205 15.0116V11.1449C42.5205 10.5256 42.0185 10.0236 41.3991 10.0236H40.5098V16.133Z" fill="url(#paint2_linear_375_2307)"/>
<path d="M41.3201 52.3794V8.26803C41.3201 4.11242 37.9512 0.74353 33.7956 0.74353H9.63973C5.48401 0.74353 2.11523 4.11242 2.11523 8.26803V52.3794C2.11523 56.5351 5.48413 59.9039 9.63973 59.9039H33.7956C37.9512 59.9039 41.3201 56.535 41.3201 52.3794Z" fill="url(#paint3_linear_375_2307)"/>
<path d="M32.6057 2.44995H10.8297C7.18972 2.44995 4.23889 5.40078 4.23889 9.04076V51.6065C4.23889 55.2465 7.18972 58.1973 10.8297 58.1973H32.6057C36.2457 58.1973 39.1966 55.2465 39.1966 51.6064V9.04088C39.1965 5.40078 36.2457 2.44995 32.6057 2.44995Z" fill="url(#paint4_linear_375_2307)"/>
<path d="M9.36353 51.1458L18.1216 59.9038H33.7955C37.9512 59.9038 41.32 56.5349 41.32 52.3793V51.1458H9.36353Z" fill="url(#paint5_linear_375_2307)"/>
<path d="M2.11523 32.9144V52.3793C2.11523 56.5351 5.48413 59.9038 9.63973 59.9038H33.7956C37.9513 59.9038 41.3201 56.535 41.3201 52.3793V32.9144H2.11523Z" fill="url(#paint6_linear_375_2307)"/>
<path d="M37.152 9.67884V48.1312C37.152 51.0159 34.8134 53.3545 31.9287 53.3545H11.5064C8.62165 53.3545 6.28308 51.0159 6.28308 48.1312V9.67884C6.28308 6.79414 8.62154 4.45557 11.5064 4.45557H15.0672C15.6224 4.45557 16.0724 4.90553 16.0724 5.46071C16.0724 6.01589 16.5223 6.46586 17.0775 6.46586H26.3576C26.9128 6.46586 27.3627 6.01589 27.3627 5.46071C27.3627 4.90553 27.8127 4.45557 28.3679 4.45557H31.9287C34.8134 4.45557 37.152 6.79414 37.152 9.67884Z" fill="url(#paint7_linear_375_2307)"/>
<path d="M31.9287 4.45557H28.3679C27.8127 4.45557 27.3627 4.90553 27.3627 5.46071C27.3627 6.01589 26.9128 6.46586 26.3576 6.46586H17.0775C16.5223 6.46586 16.0724 6.01589 16.0724 5.46071C16.0724 4.90553 15.6223 4.45557 15.0672 4.45557H11.5064C8.62165 4.45557 6.28308 6.79414 6.28308 9.67884V25.7997H37.152V9.67884C37.152 6.79414 34.8134 4.45557 31.9287 4.45557Z" fill="url(#paint8_linear_375_2307)"/>
<path d="M21.9496 6.46586H17.0775C16.5223 6.46586 16.0724 6.01589 16.0724 5.46071C16.0724 4.90553 15.6223 4.45557 15.0672 4.45557H11.5064C8.62165 4.45557 6.28308 6.79414 6.28308 9.67884V48.1312C6.28308 51.0159 8.62165 53.3545 11.5064 53.3545H21.9497V6.46586H21.9496Z" fill="url(#paint9_linear_375_2307)"/>
<path d="M11.5722 53.3544H31.9288C33.6903 53.3544 35.2469 52.4816 36.193 51.1458H9.36353L11.5722 53.3544Z" fill="url(#paint10_linear_375_2307)"/>
<path d="M21.7176 58.5118C22.7426 58.5118 23.5736 57.6809 23.5736 56.6558C23.5736 55.6308 22.7426 54.7998 21.7176 54.7998C20.6925 54.7998 19.8616 55.6308 19.8616 56.6558C19.8616 57.6809 20.6925 58.5118 21.7176 58.5118Z" fill="url(#paint11_linear_375_2307)"/>
<path d="M40.9697 53.7987L21.4742 48.5749C20.1569 48.2219 19.3753 46.8679 19.7282 45.5508L27.5083 16.515C27.8613 15.1977 29.2153 14.4161 30.5325 14.7689L50.028 19.9927C51.3452 20.3457 52.1269 21.6996 51.774 23.0168L43.9939 52.0526C43.6409 53.37 42.2869 54.1517 40.9697 53.7987Z" fill="url(#paint12_linear_375_2307)"/>
<path d="M48.928 33.6379L43.9933 52.053C43.6407 53.3696 42.2869 54.1514 40.9692 53.7988L21.4741 48.5753C20.1575 48.2215 19.3756 46.8677 19.7283 45.5511L27.2069 17.6414H32.9315L48.928 33.6379Z" fill="url(#paint13_linear_375_2307)"/>
<path d="M22.4513 35.3883L19.7283 45.5509C19.3753 46.8682 20.1571 48.2222 21.4744 48.575L40.9699 53.7989C42.2872 54.1519 43.6412 53.3702 43.994 52.0528L46.717 41.8903L22.4513 35.3883Z" fill="url(#paint14_linear_375_2307)"/>
<path d="M50.028 19.9928L38.2062 16.8252L29.1479 50.6312L40.9697 53.7988C42.287 54.1518 43.641 53.3701 43.9938 52.0527L51.774 23.017C52.1269 21.6997 51.3451 20.3457 50.028 19.9928Z" fill="url(#paint15_linear_375_2307)"/>
<path d="M34.3518 39.5061C34.1093 39.4411 33.8809 39.322 33.6913 39.1618C33.1181 38.6774 32.0147 37.6725 31.0651 36.3839C29.8298 34.7077 29.2592 33.1109 29.3693 31.6379C29.4548 30.4935 30.0472 29.4608 30.9947 28.8043C31.8721 28.1964 32.94 27.9898 34.0017 28.2227C34.0641 28.2364 34.127 28.2517 34.1885 28.2682C35.171 28.5315 36.0032 29.1361 36.5317 29.9707C36.6271 30.1215 36.7108 30.2767 36.7823 30.4353C36.9236 30.3338 37.0737 30.2411 37.2318 30.1583C38.1067 29.6997 39.1297 29.5922 40.1124 29.8555C40.1739 29.872 40.236 29.8902 40.2969 29.9096C41.3328 30.2387 42.1543 30.9515 42.6103 31.9167C43.1026 32.959 43.0993 34.1496 42.6011 35.1833C41.9599 36.514 40.6673 37.6117 38.7593 38.4456C37.2927 39.0867 35.8347 39.4054 35.096 39.5383C34.8516 39.5822 34.5943 39.5712 34.3518 39.5061Z" fill="url(#paint16_linear_375_2307)"/>
<path d="M34.3518 39.5061C34.1093 39.4411 33.8809 39.322 33.6913 39.1618C33.1181 38.6774 32.0147 37.6725 31.0651 36.3839C29.8298 34.7077 29.2592 33.1109 29.3693 31.6379C29.4548 30.4935 30.0472 29.4608 30.9947 28.8043C31.8721 28.1964 32.94 27.9898 34.0017 28.2227C34.0641 28.2364 34.127 28.2517 34.1885 28.2682C35.171 28.5315 36.0032 29.1361 36.5317 29.9707C36.6271 30.1215 36.7108 30.2767 36.7823 30.4353C36.9236 30.3338 37.0737 30.2411 37.2318 30.1583C38.1067 29.6997 39.1297 29.5922 40.1124 29.8555C40.1739 29.872 40.236 29.8902 40.2969 29.9096C41.3328 30.2387 42.1543 30.9515 42.6103 31.9167C43.1026 32.959 43.0993 34.1496 42.6011 35.1833C41.9599 36.514 40.6673 37.6117 38.7593 38.4456C37.2927 39.0867 35.8347 39.4054 35.096 39.5383C34.8516 39.5822 34.5943 39.5712 34.3518 39.5061Z" fill="url(#paint17_linear_375_2307)"/>
<path d="M29.4366 32.9027C29.6308 34.0109 30.1757 35.1768 31.0652 36.3839C32.0148 37.6724 33.1182 38.6775 33.6913 39.1618C33.881 39.3221 34.1094 39.4411 34.3518 39.5061C34.5943 39.571 34.8517 39.5821 35.0961 39.5382C35.8347 39.4052 37.2928 39.0866 38.7594 38.4455C40.1333 37.8449 41.1881 37.1075 41.9103 36.2449L29.4366 32.9027Z" fill="url(#paint18_linear_375_2307)"/>
<path d="M36.5317 29.9706C36.0032 29.136 35.1712 28.5314 34.1885 28.2681C34.127 28.2516 34.0642 28.2363 34.0018 28.2226C32.9401 27.9897 31.8722 28.1961 30.9948 28.8042C30.0473 29.4607 29.4549 30.4935 29.3694 31.6378C29.3087 32.4506 29.4556 33.3011 29.8067 34.1819L36.7824 30.4352C36.7108 30.2765 36.6271 30.1213 36.5317 29.9706Z" fill="url(#paint19_linear_375_2307)"/>
<path d="M33.3872 25.0238L33.1552 18.5207C33.1391 18.1468 32.7408 17.8606 32.2876 17.7392C31.8344 17.6177 31.3462 17.6663 31.1454 17.9821L27.7029 23.5006C27.6824 23.5374 27.6621 23.5741 27.6541 23.6036C27.5564 23.9681 28.0466 24.3845 28.4702 24.4981C28.7165 24.5641 28.9347 24.5381 29.0493 24.347L29.7142 23.2054L31.7928 23.7623L31.7978 25.0835C31.8015 25.3063 31.9774 25.4378 32.2237 25.5038C32.6473 25.6174 33.2802 25.5017 33.3779 25.1372C33.3859 25.1079 33.3865 25.0658 33.3872 25.0238ZM30.3462 22.1078L31.7729 19.6603L31.7846 22.4931L30.3462 22.1078Z" fill="url(#paint20_linear_375_2307)"/>
<path d="M38.1147 43.544L38.3467 50.0471C38.3628 50.4209 38.7611 50.7071 39.2143 50.8286C39.6675 50.95 40.1557 50.9014 40.3565 50.5857L43.799 45.0672C43.8195 45.0304 43.8398 44.9936 43.8478 44.9642C43.9455 44.5997 43.4553 44.1832 43.0317 44.0697C42.7854 44.0037 42.5672 44.0297 42.4526 44.2207L41.7877 45.3624L39.7091 44.8055L39.7041 43.4842C39.7004 43.2615 39.5245 43.13 39.2782 43.064C38.8546 42.9505 38.2217 43.066 38.124 43.4304C38.1161 43.4599 38.1156 43.502 38.1147 43.544ZM41.1558 46.46L39.7291 48.9075L39.7174 46.0746L41.1558 46.46Z" fill="url(#paint21_linear_375_2307)"/>
<path d="M31.0894 51.7831H10.9062C9.5425 51.7831 8.43701 50.6776 8.43701 49.3139V19.2537C8.43701 17.89 9.5425 16.7845 10.9062 16.7845H31.0894C32.4531 16.7845 33.5586 17.89 33.5586 19.2537V49.3138C33.5586 50.6776 32.4531 51.7831 31.0894 51.7831Z" fill="url(#paint22_linear_375_2307)"/>
<path d="M8.43689 38.793V49.314C8.43689 50.6777 9.54238 51.7832 10.9061 51.7832H31.0893C32.453 51.7832 33.5585 50.6777 33.5585 49.314V38.793H8.43689Z" fill="url(#paint23_linear_375_2307)"/>
<path d="M31.0894 16.7845H18.8506V51.7831H31.0894C32.4531 51.7831 33.5585 50.6776 33.5585 49.3139V19.2537C33.5585 17.89 32.4531 16.7845 31.0894 16.7845Z" fill="url(#paint24_linear_375_2307)"/>
<path d="M16.3177 25.951L14.4104 19.7296C14.2983 19.3726 13.8394 19.1993 13.3703 19.1993C12.9012 19.1993 12.4421 19.3726 12.33 19.7296L10.433 25.951C10.4227 25.9919 10.4126 26.0326 10.4126 26.0632C10.4126 26.4406 10.994 26.716 11.4325 26.716C11.6874 26.716 11.8915 26.6344 11.9527 26.4202L12.2995 25.1453H14.4514L14.7982 26.4202C14.8595 26.6343 15.0634 26.716 15.3184 26.716C15.757 26.716 16.3384 26.4406 16.3384 26.0632C16.3383 26.0326 16.3279 25.9919 16.3177 25.951ZM12.6257 23.9214L13.3703 21.1881L14.1148 23.9214H12.6257Z" fill="url(#paint25_linear_375_2307)"/>
<path d="M25.6776 42.6166L27.5849 48.8381C27.6971 49.195 28.156 49.3683 28.6251 49.3683C29.0942 49.3683 29.5532 49.195 29.6654 48.8381L31.5623 42.6166C31.5727 42.5758 31.5828 42.535 31.5828 42.5044C31.5828 42.1271 31.0014 41.8517 30.5629 41.8517C30.3079 41.8517 30.1039 41.9332 30.0426 42.1475L29.6959 43.4223H27.544L27.1971 42.1475C27.1359 41.9333 26.9319 41.8517 26.677 41.8517C26.2384 41.8517 25.657 42.1271 25.657 42.5044C25.6572 42.535 25.6674 42.5758 25.6776 42.6166ZM29.3697 44.6463L28.6251 47.3796L27.8806 44.6463H29.3697Z" fill="url(#paint26_linear_375_2307)"/>
<path d="M27.847 34.3663C27.5721 32.9151 26.6076 31.5203 24.9806 30.2209C23.7299 29.2222 22.404 28.537 21.725 28.2174C21.5003 28.1116 21.2489 28.0558 20.9978 28.0558C20.7468 28.0558 20.4953 28.1117 20.2706 28.2174C19.5917 28.537 18.2658 29.2221 17.0149 30.2209C15.3879 31.5204 14.4235 32.9151 14.1485 34.3663C13.9349 35.4937 14.2399 36.6447 14.9851 37.524C15.6753 38.3383 16.6533 38.8143 17.739 38.864C17.8028 38.8669 17.8676 38.8684 17.9312 38.8684C18.6658 38.8684 19.3701 38.6753 19.9788 38.3164C19.6532 39.1668 18.9335 39.8256 18.0265 40.0597C17.7651 40.127 17.814 40.5119 18.0839 40.5119H20.9977H23.9115C24.1815 40.5119 24.2303 40.1272 23.969 40.0597C23.0619 39.8256 22.3424 39.1668 22.0167 38.3165C22.6252 38.6754 23.3296 38.8686 24.0642 38.8686C24.1279 38.8686 24.1926 38.867 24.2564 38.8641C25.3422 38.8144 26.3202 38.3384 27.0105 37.5241C27.7557 36.6447 28.0606 35.4937 27.847 34.3663Z" fill="url(#paint27_linear_375_2307)"/>
<path d="M24.9805 30.2209C23.7298 29.2222 22.4039 28.537 21.725 28.2174C21.5003 28.1116 21.2488 28.0558 20.9978 28.0558C20.7467 28.0558 20.4952 28.1117 20.2706 28.2174C19.9513 28.3676 19.4881 28.5997 18.9579 28.9062V38.7375C19.3178 38.6443 19.6615 38.5035 19.9788 38.3164C19.7755 38.8476 19.4184 39.3038 18.9579 39.6287V40.5119H20.9976H23.9115C24.1814 40.5119 24.2302 40.1272 23.9689 40.0597C23.0619 39.8256 22.3423 39.1668 22.0166 38.3165C22.6251 38.6754 23.3295 38.8686 24.0641 38.8686C24.1278 38.8686 24.1925 38.867 24.2563 38.8641C25.3421 38.8144 26.3201 38.3384 27.0104 37.5241C27.7557 36.6448 28.0606 35.4939 27.847 34.3665C27.572 32.9151 26.6076 31.5204 24.9805 30.2209Z" fill="url(#paint28_linear_375_2307)"/>
<path d="M14.1486 34.3664C13.935 35.4938 14.24 36.6448 14.9852 37.524C15.6754 38.3384 16.6534 38.8143 17.7391 38.8641C17.8029 38.867 17.8677 38.8685 17.9314 38.8685C18.6659 38.8685 19.3702 38.6754 19.9789 38.3165C19.6533 39.1669 18.9336 39.8256 18.0266 40.0597C17.7652 40.1271 17.8141 40.512 18.084 40.512H20.9978H23.9117C24.1816 40.512 24.2304 40.1272 23.9691 40.0597C23.0621 39.8256 22.3425 39.1668 22.0168 38.3166C22.6253 38.6755 23.3297 38.8686 24.0643 38.8686C24.128 38.8686 24.1927 38.8671 24.2565 38.8642C25.3423 38.8144 26.3203 38.3385 27.0106 37.5242C27.7559 36.6449 28.0608 35.4939 27.8472 34.3665C27.7768 33.9951 27.6607 33.6275 27.5004 33.264H14.4955C14.3351 33.6272 14.219 33.995 14.1486 34.3664Z" fill="url(#paint29_linear_375_2307)"/>
<defs>
<linearGradient id="paint0_linear_375_2307" x1="0.914911" y1="13.0782" x2="2.38429" y2="13.0782" gradientUnits="userSpaceOnUse">
<stop stop-color="#C8EFFE"/>
<stop offset="1" stop-color="#62DBFB"/>
</linearGradient>
<linearGradient id="paint1_linear_375_2307" x1="0.914911" y1="20.1929" x2="2.38429" y2="20.1929" gradientUnits="userSpaceOnUse">
<stop stop-color="#C8EFFE"/>
<stop offset="1" stop-color="#62DBFB"/>
</linearGradient>
<linearGradient id="paint2_linear_375_2307" x1="42.5205" y1="13.0782" x2="41.0511" y2="13.0782" gradientUnits="userSpaceOnUse">
<stop stop-color="#C8EFFE"/>
<stop offset="1" stop-color="#62DBFB"/>
</linearGradient>
<linearGradient id="paint3_linear_375_2307" x1="5.62646" y1="14.2324" x2="40.2601" y2="48.8661" gradientUnits="userSpaceOnUse">
<stop stop-color="#537983"/>
<stop offset="1" stop-color="#384949"/>
</linearGradient>
<linearGradient id="paint4_linear_375_2307" x1="40.2884" y1="37.7012" x2="5.81198" y2="24.005" gradientUnits="userSpaceOnUse">
<stop stop-color="#537983"/>
<stop offset="1" stop-color="#384949"/>
</linearGradient>
<linearGradient id="paint5_linear_375_2307" x1="25.3418" y1="59.9038" x2="25.3418" y2="53.5037" gradientUnits="userSpaceOnUse">
<stop stop-color="#554E56" stop-opacity="0"/>
<stop offset="0.269" stop-color="#524B52" stop-opacity="0.269"/>
<stop offset="0.521" stop-color="#464147" stop-opacity="0.521"/>
<stop offset="0.7654" stop-color="#343034" stop-opacity="0.765"/>
<stop offset="1" stop-color="#1A1A1A"/>
</linearGradient>
<linearGradient id="paint6_linear_375_2307" x1="21.7176" y1="50.3558" x2="21.7176" y2="59.2711" gradientUnits="userSpaceOnUse">
<stop stop-color="#554E56" stop-opacity="0"/>
<stop offset="0.269" stop-color="#524B52" stop-opacity="0.269"/>
<stop offset="0.521" stop-color="#464147" stop-opacity="0.521"/>
<stop offset="0.7654" stop-color="#343034" stop-opacity="0.765"/>
<stop offset="1" stop-color="#1A1A1A"/>
</linearGradient>
<linearGradient id="paint7_linear_375_2307" x1="10.0728" y1="17.2603" x2="29.7961" y2="36.9835" gradientUnits="userSpaceOnUse">
<stop stop-color="#FEF0AE"/>
<stop offset="1" stop-color="#FAC600"/>
</linearGradient>
<linearGradient id="paint8_linear_375_2307" x1="21.7176" y1="13.6196" x2="21.7176" y2="3.75956" gradientUnits="userSpaceOnUse">
<stop stop-color="#FEA613" stop-opacity="0"/>
<stop offset="0.2032" stop-color="#FDA215" stop-opacity="0.203"/>
<stop offset="0.4052" stop-color="#FB961B" stop-opacity="0.405"/>
<stop offset="0.6066" stop-color="#F68225" stop-opacity="0.607"/>
<stop offset="0.8066" stop-color="#F06633" stop-opacity="0.807"/>
<stop offset="1" stop-color="#E94444"/>
</linearGradient>
<linearGradient id="paint9_linear_375_2307" x1="12.6695" y1="28.905" x2="4.58181" y2="28.905" gradientUnits="userSpaceOnUse">
<stop stop-color="#FEA613" stop-opacity="0"/>
<stop offset="0.2032" stop-color="#FDA215" stop-opacity="0.203"/>
<stop offset="0.4052" stop-color="#FB961B" stop-opacity="0.405"/>
<stop offset="0.6066" stop-color="#F68225" stop-opacity="0.607"/>
<stop offset="0.8066" stop-color="#F06633" stop-opacity="0.807"/>
<stop offset="1" stop-color="#E94444"/>
</linearGradient>
<linearGradient id="paint10_linear_375_2307" x1="23.6743" y1="60.0533" x2="22.6883" y2="50.2513" gradientUnits="userSpaceOnUse">
<stop stop-color="#FEA613" stop-opacity="0"/>
<stop offset="0.2032" stop-color="#FDA215" stop-opacity="0.203"/>
<stop offset="0.4052" stop-color="#FB961B" stop-opacity="0.405"/>
<stop offset="0.6066" stop-color="#F68225" stop-opacity="0.607"/>
<stop offset="0.8066" stop-color="#F06633" stop-opacity="0.807"/>
<stop offset="1" stop-color="#E94444"/>
</linearGradient>
<linearGradient id="paint11_linear_375_2307" x1="23.2257" y1="58.1639" x2="20.5865" y2="55.5247" gradientUnits="userSpaceOnUse">
<stop stop-color="#537983"/>
<stop offset="1" stop-color="#384949"/>
</linearGradient>
<linearGradient id="paint12_linear_375_2307" x1="26.0236" y1="24.1082" x2="44.8578" y2="43.8315" gradientUnits="userSpaceOnUse">
<stop stop-color="#EAF9FA"/>
<stop offset="1" stop-color="#B3DAFE"/>
</linearGradient>
<linearGradient id="paint13_linear_375_2307" x1="38.9711" y1="35.3964" x2="33.2484" y2="35.8604" gradientUnits="userSpaceOnUse">
<stop stop-color="#B3DAFE" stop-opacity="0"/>
<stop offset="0.2438" stop-color="#ACD5FA" stop-opacity="0.244"/>
<stop offset="0.589" stop-color="#9AC5F0" stop-opacity="0.589"/>
<stop offset="0.9932" stop-color="#7CACDF" stop-opacity="0.993"/>
<stop offset="1" stop-color="#7BACDF"/>
</linearGradient>
<linearGradient id="paint14_linear_375_2307" x1="32.5796" y1="46.1158" x2="31.2931" y2="50.9144" gradientUnits="userSpaceOnUse">
<stop stop-color="#B3DAFE" stop-opacity="0"/>
<stop offset="0.2438" stop-color="#ACD5FA" stop-opacity="0.244"/>
<stop offset="0.589" stop-color="#9AC5F0" stop-opacity="0.589"/>
<stop offset="0.9932" stop-color="#7CACDF" stop-opacity="0.993"/>
<stop offset="1" stop-color="#7BACDF"/>
</linearGradient>
<linearGradient id="paint15_linear_375_2307" x1="43.6311" y1="36.4064" x2="48.8999" y2="37.819" gradientUnits="userSpaceOnUse">
<stop stop-color="#B3DAFE" stop-opacity="0"/>
<stop offset="0.2438" stop-color="#ACD5FA" stop-opacity="0.244"/>
<stop offset="0.589" stop-color="#9AC5F0" stop-opacity="0.589"/>
<stop offset="0.9932" stop-color="#7CACDF" stop-opacity="0.993"/>
<stop offset="1" stop-color="#7BACDF"/>
</linearGradient>
<linearGradient id="paint16_linear_375_2307" x1="34.5961" y1="30.3407" x2="38.8381" y2="37.6905" gradientUnits="userSpaceOnUse">
<stop stop-color="#FE646F"/>
<stop offset="1" stop-color="#C41926"/>
</linearGradient>
<linearGradient id="paint17_linear_375_2307" x1="37.7258" y1="33.847" x2="33.0085" y2="33.847" gradientUnits="userSpaceOnUse">
<stop stop-color="#A72B2B" stop-opacity="0"/>
<stop offset="0.1996" stop-color="#A32B2A" stop-opacity="0.2"/>
<stop offset="0.3982" stop-color="#972926" stop-opacity="0.398"/>
<stop offset="0.5966" stop-color="#832820" stop-opacity="0.597"/>
<stop offset="0.7949" stop-color="#672517" stop-opacity="0.795"/>
<stop offset="0.9914" stop-color="#44210C" stop-opacity="0.991"/>
<stop offset="1" stop-color="#42210B"/>
</linearGradient>
<linearGradient id="paint18_linear_375_2307" x1="35.5179" y1="35.1569" x2="34.3289" y2="39.5916" gradientUnits="userSpaceOnUse">
<stop stop-color="#A72B2B" stop-opacity="0"/>
<stop offset="0.1996" stop-color="#A32B2A" stop-opacity="0.2"/>
<stop offset="0.3982" stop-color="#972926" stop-opacity="0.398"/>
<stop offset="0.5966" stop-color="#832820" stop-opacity="0.597"/>
<stop offset="0.7949" stop-color="#672517" stop-opacity="0.795"/>
<stop offset="0.9914" stop-color="#44210C" stop-opacity="0.991"/>
<stop offset="1" stop-color="#42210B"/>
</linearGradient>
<linearGradient id="paint19_linear_375_2307" x1="33.4915" y1="30.4121" x2="37.7226" y2="29.0384" gradientUnits="userSpaceOnUse">
<stop stop-color="#A72B2B" stop-opacity="0"/>
<stop offset="0.1996" stop-color="#A32B2A" stop-opacity="0.2"/>
<stop offset="0.3982" stop-color="#972926" stop-opacity="0.398"/>
<stop offset="0.5966" stop-color="#832820" stop-opacity="0.597"/>
<stop offset="0.7949" stop-color="#672517" stop-opacity="0.795"/>
<stop offset="0.9914" stop-color="#44210C" stop-opacity="0.991"/>
<stop offset="1" stop-color="#42210B"/>
</linearGradient>
<linearGradient id="paint20_linear_375_2307" x1="28.7855" y1="18.3212" x2="33.0187" y2="25.656" gradientUnits="userSpaceOnUse">
<stop stop-color="#FE646F"/>
<stop offset="1" stop-color="#C41926"/>
</linearGradient>
<linearGradient id="paint21_linear_375_2307" x1="37.8134" y1="41.7755" x2="42.4069" y2="49.7344" gradientUnits="userSpaceOnUse">
<stop stop-color="#FE646F"/>
<stop offset="1" stop-color="#C41926"/>
</linearGradient>
<linearGradient id="paint22_linear_375_2307" x1="8.9676" y1="26.9659" x2="32.2641" y2="41.1372" gradientUnits="userSpaceOnUse">
<stop stop-color="#EAF9FA"/>
<stop offset="1" stop-color="#B3DAFE"/>
</linearGradient>
<linearGradient id="paint23_linear_375_2307" x1="20.9978" y1="46.5227" x2="20.9978" y2="51.4902" gradientUnits="userSpaceOnUse">
<stop stop-color="#B3DAFE" stop-opacity="0"/>
<stop offset="0.2438" stop-color="#ACD5FA" stop-opacity="0.244"/>
<stop offset="0.589" stop-color="#9AC5F0" stop-opacity="0.589"/>
<stop offset="0.9932" stop-color="#7CACDF" stop-opacity="0.993"/>
<stop offset="1" stop-color="#7BACDF"/>
</linearGradient>
<linearGradient id="paint24_linear_375_2307" x1="29.1569" y1="34.2838" x2="34.611" y2="34.2838" gradientUnits="userSpaceOnUse">
<stop stop-color="#B3DAFE" stop-opacity="0"/>
<stop offset="0.2438" stop-color="#ACD5FA" stop-opacity="0.244"/>
<stop offset="0.589" stop-color="#9AC5F0" stop-opacity="0.589"/>
<stop offset="0.9932" stop-color="#7CACDF" stop-opacity="0.993"/>
<stop offset="1" stop-color="#7BACDF"/>
</linearGradient>
<linearGradient id="paint25_linear_375_2307" x1="10.1365" y1="20.6618" x2="16.124" y2="26.6494" gradientUnits="userSpaceOnUse">
<stop stop-color="#537983"/>
<stop offset="1" stop-color="#384949"/>
</linearGradient>
<linearGradient id="paint26_linear_375_2307" x1="24.9286" y1="40.9755" x2="31.4257" y2="47.4726" gradientUnits="userSpaceOnUse">
<stop stop-color="#537983"/>
<stop offset="1" stop-color="#384949"/>
</linearGradient>
<linearGradient id="paint27_linear_375_2307" x1="19.1998" y1="32.4229" x2="23.011" y2="37.7908" gradientUnits="userSpaceOnUse">
<stop stop-color="#537983"/>
<stop offset="1" stop-color="#384949"/>
</linearGradient>
<linearGradient id="paint28_linear_375_2307" x1="22.9945" y1="34.1923" x2="27.1815" y2="33.5482" gradientUnits="userSpaceOnUse">
<stop stop-color="#554E56" stop-opacity="0"/>
<stop offset="0.269" stop-color="#524B52" stop-opacity="0.269"/>
<stop offset="0.521" stop-color="#464147" stop-opacity="0.521"/>
<stop offset="0.7654" stop-color="#343034" stop-opacity="0.765"/>
<stop offset="1" stop-color="#1A1A1A"/>
</linearGradient>
<linearGradient id="paint29_linear_375_2307" x1="20.9978" y1="35.6794" x2="20.9978" y2="40.973" gradientUnits="userSpaceOnUse">
<stop stop-color="#554E56" stop-opacity="0"/>
<stop offset="0.269" stop-color="#524B52" stop-opacity="0.269"/>
<stop offset="0.521" stop-color="#464147" stop-opacity="0.521"/>
<stop offset="0.7654" stop-color="#343034" stop-opacity="0.765"/>
<stop offset="1" stop-color="#1A1A1A"/>
</linearGradient>
</defs>
</svg>
