<svg width="50" height="50" viewBox="0 0 50 50" fill="none" xmlns="http://www.w3.org/2000/svg">
<path d="M31.1398 22.4066L30.1815 22.1191C29.4993 21.9144 29.0321 21.2865 29.0321 20.5742V19.8801L22.081 20.1137L19.0903 24.377L24.9999 29.8387L32.2302 25.6814L31.1398 22.4066Z" fill="#FFD18D"/>
<path d="M20.9678 16.9355V20.5742C20.9678 21.2865 20.5006 21.9145 19.8184 22.1191L18.8601 22.4066L19.1462 24.0049L20.2811 23.6645C21.1114 23.4154 21.7764 22.8643 22.1733 22.1508C22.6213 21.3453 23.4544 20.8727 24.3734 20.9437C24.5802 20.9598 24.7892 20.9679 25.0001 20.9679C26.4709 20.9679 27.8453 20.5679 29.0324 19.8802V16.9356L20.9678 16.9355Z" fill="#FBBD80"/>
<path d="M35.3726 23.6763L31.14 22.4065C29.8552 24.4466 27.589 25.8064 25 25.8064C23.0394 25.8064 21.2639 25.0266 19.9596 23.7622L15.2714 24.0602C14.3083 24.3492 13.6309 25.2004 13.5544 26.1904L25 29.8387L37.0895 25.8065C37.0131 24.8166 36.3357 23.9653 35.3726 23.6763Z" fill="#E29A6C"/>
<path d="M14.5233 25.8852C14.565 25.5757 14.7887 25.3119 15.0903 25.2213L19.9597 23.7623C19.5417 23.3569 19.1719 22.9017 18.86 22.4065L14.6274 23.6763C13.6643 23.9653 12.9869 24.8166 12.9104 25.8065L14.5232 26.3444H14.5233V25.8852Z" fill="#D48C64"/>
<path d="M38.7097 46.7742L25.549 49.0977L11.2903 46.7742C10.8449 46.7742 10.4839 46.4132 10.4839 45.9678V44.3549C10.4839 43.9095 10.8449 43.5484 11.2903 43.5484L25.4854 41.6528L38.7097 43.5484C39.1551 43.5484 39.5161 43.9095 39.5161 44.3549V45.9678C39.5161 46.4131 39.1551 46.7742 38.7097 46.7742Z" fill="#B8B2B8"/>
<path d="M37.0969 25.8064H12.9033C12.6204 25.8064 12.3488 25.8549 12.0966 25.9442L11.252 28.2257V40.1878C11.252 41.524 12.3352 42.6072 13.6713 42.6072H37.0969L39.3786 41.9353C39.4678 41.6831 39.5162 41.4117 39.5162 41.129V28.2257C39.5162 26.8896 38.433 25.8064 37.0969 25.8064Z" fill="#DBD8DB"/>
<path d="M23.3871 39.5161C23.2871 39.5161 23.1855 39.4981 23.0878 39.4586C22.6743 39.2932 22.4728 38.8239 22.6381 38.4104L25.8639 30.3458C26.0293 29.9308 26.501 29.7308 26.9121 29.8961C27.3256 30.0616 27.5272 30.5309 27.3618 30.9444L24.1361 39.0089C24.0101 39.3247 23.7069 39.5161 23.3871 39.5161Z" fill="white"/>
<path d="M20.1614 37.9032C19.955 37.9032 19.7487 37.8245 19.5912 37.6669L17.1718 35.2476C16.8568 34.9326 16.8568 34.4222 17.1718 34.1073L19.5912 31.6879C19.9062 31.3729 20.4166 31.3729 20.7315 31.6879C21.0465 32.003 21.0465 32.5133 20.7315 32.8283L18.8824 34.6774L20.7315 36.5265C21.0465 36.8416 21.0465 37.3519 20.7315 37.6668C20.574 37.8245 20.3677 37.9032 20.1614 37.9032Z" fill="white"/>
<path d="M29.8387 37.9033C29.6324 37.9033 29.426 37.8246 29.2685 37.6671C28.9535 37.3521 28.9535 36.8417 29.2685 36.5268L31.1176 34.6776L29.2685 32.8285C28.9535 32.5135 28.9535 32.0031 29.2685 31.6882C29.5835 31.3731 30.0939 31.3731 30.4088 31.6882L32.8282 34.1075C33.1432 34.4226 33.1432 34.9329 32.8282 35.2479L30.4088 37.6672C30.2514 37.8246 30.0451 37.9033 29.8387 37.9033Z" fill="white"/>
<path d="M27.4194 0H21.7743L19.5254 4.83867V11.8616L33.8711 11.8259V6.45166C33.8711 2.88848 30.9826 0 27.4194 0Z" fill="#D48C64"/>
<path d="M21.7743 0C20.7224 0 19.8364 0.675391 19.5031 1.61289H19.3549C17.5734 1.61289 16.1292 3.05713 16.1292 4.83867V11.8616L21.7743 11.8503V0Z" fill="#C6805D"/>
<path d="M49.1935 49.1935H0.806396V47.5806C0.806396 47.1352 1.16743 46.7742 1.61284 46.7742H49.1935C49.6389 46.7742 50 47.1352 50 47.5806V48.3871C50 48.8325 49.6389 49.1935 49.1935 49.1935Z" fill="#FFE09C"/>
<path d="M2.41934 48.3871C1.97393 48.3871 1.61289 48.0259 1.61289 47.5806V46.7742H0.806445C0.361035 46.7742 0 47.1352 0 47.5806V49.1935C0 49.6388 0.361035 50 0.806445 50H49.1936C49.639 50 50 49.6388 50 49.1935V48.3871H2.41934Z" fill="#FFD18D"/>
<path d="M14.5161 41.9355C13.18 41.9355 12.0968 40.8523 12.0968 39.5162V25.9453C11.1593 26.2786 10.4839 27.1741 10.4839 28.226V41.1292C10.4839 42.4653 11.5671 43.5485 12.9032 43.5485H37.0968C38.1486 43.5485 39.0456 42.8731 39.3788 41.9356H14.5161V41.9355Z" fill="#C9C5C9"/>
<path d="M33.8489 11.826C33.7199 11.033 32.9752 10.484 32.1718 10.484H32.1693C31.3275 10.484 30.6451 9.80156 30.6451 8.95977V8.56201C30.6451 7.80147 30.1139 7.14424 29.3702 6.98486L21.3057 5.25684C21.1919 5.23242 21.0788 5.22139 20.9677 5.22119L19.2812 12.7325C19.6789 15.9142 21.7104 19.2759 24.9999 19.2759C25.4149 19.2759 25.8207 19.3156 26.2137 19.2407C28.936 18.7218 31.0482 16.4899 31.3958 13.7097H32.258C33.2376 13.7098 34.0133 12.8365 33.8489 11.826Z" fill="#FFE09C"/>
<path d="M20.9678 12.9033V5.22119C20.0994 5.21963 19.3549 5.92364 19.3549 6.83389V8.95977C19.3549 9.80157 18.6725 10.484 17.8307 10.484H17.8284C17.025 10.484 16.2802 11.0329 16.1512 11.826C15.9869 12.8365 16.7625 13.7098 17.742 13.7098H18.6043C19.0019 16.8914 21.7107 19.3549 25.0001 19.3549C25.417 19.3549 25.8192 19.3163 26.2139 19.2407C23.2251 18.6777 20.9678 16.0558 20.9678 12.9033Z" fill="#FFD18D"/>
<path d="M22.5806 12.0968C22.1348 12.0968 21.7742 11.7361 21.7742 11.2904V10.4839C21.7742 10.0381 22.1349 9.67749 22.5806 9.67749C23.0264 9.67749 23.3871 10.0382 23.3871 10.4839V11.2904C23.3871 11.7361 23.0263 12.0968 22.5806 12.0968Z" fill="#845252"/>
<path d="M27.4192 12.0968C26.9734 12.0968 26.6128 11.7361 26.6128 11.2904V10.4839C26.6128 10.0381 26.9735 9.67749 27.4192 9.67749C27.8649 9.67749 28.2257 10.0382 28.2257 10.4839V11.2904C28.2257 11.7361 27.865 12.0968 27.4192 12.0968Z" fill="#845252"/>
<path d="M25.8065 15.3226H24.1937C23.7479 15.3226 23.3872 14.9619 23.3872 14.5162C23.3872 14.0705 23.748 13.7097 24.1937 13.7097H25.8065C26.2523 13.7097 26.613 14.0705 26.613 14.5162C26.613 14.9619 26.2523 15.3226 25.8065 15.3226Z" fill="#FBBD80"/>
</svg>
