<svg width="93" height="93" viewBox="0 0 93 93" fill="none" xmlns="http://www.w3.org/2000/svg">
<path d="M79.3804 45.6918L85.8049 52.1162L92.1937 45.7274C91.6617 23.2328 74.9169 4.67976 53.2198 1.33032L59.0828 7.19327L52.1411 14.1349C67.263 16.8909 78.8461 29.9142 79.3804 45.6918Z" fill="white"/>
<path d="M12.9541 47.9698L6.52969 41.5454L0.140869 47.9342C0.672671 70.4289 17.4175 88.9819 39.1147 92.3313L33.2518 86.4684L40.1935 79.5267C25.0714 76.7708 13.4883 63.7475 12.9541 47.9698Z" fill="white"/>
<path d="M74.0066 46.8307C74.0066 31.48 61.518 18.9912 46.1671 18.9912C30.8163 18.9912 18.3276 31.4798 18.3276 46.8307C18.3276 56.7333 23.5257 65.4436 31.3355 70.3798V50.7306L46.1671 25.0414L60.9988 50.7306V70.38C68.8085 65.4436 74.0066 56.7333 74.0066 46.8307Z" fill="white"/>
<path d="M78.8629 52.8047C76.1069 67.9268 63.0836 79.5099 47.306 80.044L40.8816 86.4685L47.2704 92.8573C69.7651 92.3255 88.3181 75.5806 91.6675 53.8834L85.8046 59.7463L78.8629 52.8047Z" fill="white"/>
<path d="M13.4714 40.857C16.2273 25.7349 29.2506 14.152 45.0282 13.6177L51.4527 7.19326L45.0639 0.804443C22.5692 1.33625 4.01618 18.0811 0.666748 39.7783L6.5297 33.9154L13.4714 40.857Z" fill="white"/>
<path d="M55.6036 56.5391C53.2716 56.2778 51.0064 55.6789 48.865 54.7583V74.5395C51.2075 74.3132 53.4658 73.7956 55.6036 73.023V56.5391Z" fill="white"/>
<path d="M36.731 73.0225C38.8686 73.7951 41.1271 74.3127 43.4696 74.539V54.7578C41.3283 55.6784 39.063 56.2773 36.731 56.5386V73.0225Z" fill="white"/>
<path d="M46.1671 46.8975L47.7106 47.9741C49.8903 49.4947 52.338 50.5119 54.9168 50.987L46.1671 35.832L37.4175 50.987C39.9963 50.5119 42.4438 49.4947 44.6237 47.9741L46.1671 46.8975Z" fill="white"/>
</svg>
