<svg width="41" height="41" viewBox="0 0 41 41" fill="none" xmlns="http://www.w3.org/2000/svg">
<g clip-path="url(#clip0_375_7484)">
<path d="M39.058 17.9322C39.058 17.9303 39.0583 17.9287 39.0583 17.9269C39.0583 17.9153 39.0571 17.9043 39.0568 17.8931C38.8891 13.1869 36.9782 8.78638 33.6309 5.43906C30.1237 1.93157 25.4601 0 20.4999 0C15.5398 0 10.8762 1.93157 7.36899 5.43906C4.02166 8.78638 2.11073 13.1869 1.94338 17.8931C1.94307 17.9043 1.94151 17.9153 1.94151 17.9269C1.94151 17.9287 1.94182 17.9303 1.94182 17.9322C1.93462 18.1443 1.92993 18.3567 1.92993 18.57C1.92993 20.6986 2.28716 22.7866 2.99222 24.7754C3.16676 25.2678 3.63003 25.5756 4.12457 25.5756C4.25751 25.5756 4.39296 25.5534 4.52559 25.5061C5.15089 25.2847 5.47808 24.5981 5.25661 23.9728C4.70483 22.4162 4.39859 20.789 4.3426 19.128H9.65622C9.6875 20.9986 9.87612 22.8342 10.2211 24.5912C10.3488 25.2421 10.9803 25.6663 11.6313 25.5384C12.2822 25.4107 12.7064 24.7795 12.5784 24.1282C12.2631 22.5229 12.0895 20.8431 12.0583 19.128H19.2988V24.3597C19.2988 25.0232 19.8368 25.5609 20.4999 25.5609C21.1634 25.5609 21.7011 25.0232 21.7011 24.3597V19.128H28.9419C28.9106 20.8428 28.7367 22.5229 28.4217 24.1282C28.2938 24.7792 28.7179 25.4107 29.3689 25.5384C29.4471 25.5537 29.525 25.5612 29.6016 25.5612C30.164 25.5612 30.6667 25.1639 30.779 24.5912C31.124 22.8342 31.3123 20.9986 31.3439 19.1277H36.6576C36.6013 20.7887 36.295 22.4159 35.7435 23.9725C35.5218 24.5977 35.8493 25.2844 36.4743 25.5058C37.0999 25.7276 37.7862 25.4004 38.0079 24.7751C38.7127 22.786 39.0702 20.6983 39.0702 18.57C39.0699 18.3567 39.0652 18.1443 39.058 17.9322ZM36.5618 16.7257H31.2986C31.1947 14.8795 30.9348 13.0912 30.5316 11.4086H34.9922C35.8039 13.0443 36.3463 14.836 36.5618 16.7257ZM33.527 9.00629H29.8322C29.4227 7.82482 28.9353 6.71687 28.3729 5.70494C27.9966 5.0274 27.5947 4.40649 27.1705 3.84344C29.7061 4.99644 31.8926 6.786 33.527 9.00629ZM19.2988 2.57439V9.00597H13.7408C15.0646 5.62267 17.0544 3.21689 19.2988 2.57439ZM21.7011 2.57439C23.9455 3.21689 25.9352 5.62267 27.259 9.00597H21.7011V2.57439ZM13.8294 3.84344C13.4052 4.40649 13.0032 5.0274 12.6266 5.70494C12.0645 6.71687 11.5772 7.82482 11.1677 9.00629H7.47284C9.10725 6.786 11.2941 4.99644 13.8294 3.84344ZM6.00766 11.4086H10.4683C10.0651 13.0912 9.80511 14.8795 9.70126 16.7257H4.438C4.65353 14.836 5.19593 13.0443 6.00766 11.4086ZM12.1099 16.7257C12.2272 14.8448 12.5215 13.0512 12.9588 11.4086H19.2988V16.7257H12.1099ZM21.7011 11.4086H28.0413C28.4786 13.0512 28.7727 14.8448 28.8903 16.7257H21.7011V11.4086Z" fill="#00D8E0"/>
<path d="M39.0581 17.9322C39.0581 17.9303 39.0584 17.9287 39.0584 17.9269C39.0584 17.9153 39.0572 17.9043 39.0569 17.8931C38.8892 13.1869 36.9783 8.78638 33.6309 5.43906C30.1238 1.93157 25.4602 0 20.5 0V25.5609C21.1635 25.5609 21.7012 25.0232 21.7012 24.3597V19.128H28.942C28.9107 20.8428 28.7368 22.5229 28.4218 24.1282C28.2939 24.7792 28.718 25.4107 29.369 25.5384C29.4472 25.5537 29.5251 25.5612 29.6017 25.5612C30.1641 25.5612 30.6668 25.1639 30.7791 24.5912C31.1241 22.8342 31.3124 20.9986 31.344 19.1277H36.6576C36.6013 20.7887 36.2951 22.4159 35.7436 23.9725C35.5218 24.5977 35.8493 25.2844 36.4743 25.5058C37.0999 25.7276 37.7862 25.4004 38.008 24.7751C38.7128 22.786 39.0703 20.6983 39.0703 18.57C39.07 18.3567 39.0653 18.1443 39.0581 17.9322ZM21.7012 2.57439C23.9455 3.21689 25.9353 5.62267 27.2591 9.00597H21.7012V2.57439ZM21.7012 16.7257V11.4086H28.0414C28.4787 13.0512 28.7728 14.8448 28.8904 16.7257H21.7012ZM29.8322 9.00629C29.4231 7.82482 28.9354 6.71687 28.3733 5.70494C27.9967 5.0274 27.5947 4.40649 27.1706 3.84344C29.7059 4.99644 31.8927 6.786 33.5271 9.00629H29.8322ZM31.2987 16.7257C31.1948 14.8795 30.9349 13.0912 30.5317 11.4086H34.9923C35.804 13.0443 36.3464 14.836 36.5619 16.7257H31.2987Z" fill="#00ACB3"/>
<path d="M36.5826 23.1584H4.41743C1.98162 23.1584 0 25.1401 0 27.5762V36.5825C0 39.0183 1.98162 40.9999 4.41743 40.9999H36.5823C39.0184 40.9999 41 39.0183 41 36.5825V27.5762C41 25.1401 39.0184 23.1584 36.5826 23.1584Z" fill="#FF4949"/>
<path d="M36.5826 23.1584H20.5V40.9999H36.5826C39.0184 40.9999 41 39.0183 41 36.5825V27.5762C41 25.1401 39.0184 23.1584 36.5826 23.1584Z" fill="#F30051"/>
<path d="M13.9709 34.9162H11.1916V27.8525C11.1916 27.3291 10.7108 26.9775 9.99513 26.9775C9.27912 26.9775 8.79834 27.3291 8.79834 27.8525V36.2159C8.79834 36.7302 9.25848 37.1037 9.89222 37.1037H13.9709C14.4704 37.1037 14.833 36.6438 14.833 36.0101C14.833 35.366 14.4786 34.9162 13.9709 34.9162Z" fill="#E7F0EF"/>
<path d="M16.2219 26.9775C15.5062 26.9775 15.0254 27.3291 15.0254 27.8525V36.2159C15.0254 36.7386 15.5174 37.1037 16.2219 37.1037C16.9154 37.1037 17.4187 36.7305 17.4187 36.2159V27.8525C17.4187 27.3291 16.9379 26.9775 16.2219 26.9775Z" fill="#E7F0EF"/>
<path d="M24.0576 26.9775C23.3754 26.9775 23.1908 27.3995 23.1446 27.5753L21.5349 33.3159L19.9158 27.5809C19.8679 27.3995 19.6834 26.9775 19.0011 26.9775C18.4224 26.9775 17.5857 27.3532 17.5857 28.0326C17.5857 28.1027 17.6026 28.1703 17.622 28.2485C17.6235 28.2547 17.6254 28.261 17.627 28.2672L20.1103 36.3601C20.1113 36.3629 20.1122 36.3658 20.1132 36.3686C20.2802 36.8697 20.8251 37.1809 21.5358 37.1809C22.2631 37.1809 22.8092 36.8656 22.9613 36.3598L25.4318 28.2666C25.4333 28.261 25.4349 28.2553 25.4365 28.2494L25.443 28.2241C25.4565 28.1734 25.4731 28.1105 25.4731 28.0326C25.4731 27.3532 24.636 26.9775 24.0576 26.9775Z" fill="#E7F0EF"/>
<path d="M31.3136 34.9162H28.0329V33.0507H29.6282C30.205 33.0507 30.5163 32.5336 30.5163 32.0472C30.5163 31.46 30.1347 31.0177 29.6282 31.0177H28.0329V29.165H31.3136C31.8285 29.165 32.202 28.6995 32.202 28.0586C32.202 27.432 31.8285 26.9775 31.3136 26.9775H26.7335C26.0995 26.9775 25.6396 27.351 25.6396 27.8656V36.2159C25.6396 36.7305 26.0995 37.1037 26.7335 37.1037H31.3136C31.8285 37.1037 32.202 36.6492 32.202 36.0229C32.202 35.3817 31.8285 34.9162 31.3136 34.9162Z" fill="#C5E1E6"/>
<path d="M24.0575 26.9775C23.3753 26.9775 23.1908 27.3995 23.1445 27.5753L21.5348 33.3159L20.5 29.6508V36.8835C20.7599 37.073 21.119 37.1809 21.5357 37.1809C22.263 37.1809 22.8094 36.8656 22.9612 36.3595L25.4317 28.2666C25.4333 28.261 25.4348 28.255 25.4364 28.2494L25.4429 28.2241C25.4564 28.1734 25.473 28.1102 25.473 28.0326C25.473 27.3532 24.6359 26.9775 24.0575 26.9775Z" fill="#C5E1E6"/>
</g>
<defs>
<clipPath id="clip0_375_7484">
<rect width="41" height="41" fill="white"/>
</clipPath>
</defs>
</svg>
