<svg width="119" height="117" viewBox="0 0 119 117" fill="none" xmlns="http://www.w3.org/2000/svg">
<path fill-rule="evenodd" clip-rule="evenodd" d="M90.0276 41.0611C92.6619 49.0213 101.334 54.6606 100.942 63.0383C100.536 71.6988 93.6518 78.3032 87.9751 84.8647C81.7919 92.0117 75.5963 99.2993 66.7321 102.581C56.4327 106.393 43.7556 110.738 34.6599 104.601C25.5098 98.4261 29.3504 83.8332 24.3621 73.9897C19.3377 64.0749 4.53239 58.435 5.65942 47.3734C6.77477 36.4265 19.7849 31.0129 29.3049 25.4768C36.8614 21.0824 45.6844 21.5493 54.104 19.2013C64.2101 16.383 74.5534 4.91139 83.509 10.3609C92.6724 15.937 86.6585 30.8806 90.0276 41.0611Z" fill="#022A4B"/>
<path d="M41.548 73.5347H65.1827V84.3575H41.548V73.5347Z" fill="#5D859B"/>
<path d="M76.7285 76.3081H30.0019C24.5986 76.3081 20.2185 71.928 20.2185 66.5248V33.5165C20.2185 28.1133 24.5986 23.7332 30.0019 23.7332H76.7285C82.1317 23.7332 86.5119 28.1133 86.5119 33.5165V66.5248C86.5119 71.928 82.1317 76.3081 76.7285 76.3081Z" fill="#CEEDFF"/>
<path d="M33.2029 76.3097H30.002C24.5985 76.3097 20.2185 71.928 20.2185 66.5259V33.5171C20.2185 28.1135 24.5985 23.7335 30.0022 23.7335H33.2031C27.7995 23.7335 23.4194 28.1135 23.4194 33.5172V66.5261C23.4194 71.928 27.7993 76.3097 33.2029 76.3097Z" fill="#5D859B"/>
<path d="M68.2593 88.8847H38.4713C36.3049 88.8847 34.5486 87.1284 34.5486 84.9619C34.5486 82.7955 36.3049 81.0392 38.4713 81.0392H68.2593C70.4258 81.0392 72.1821 82.7955 72.1821 84.9619C72.1819 87.1285 70.4258 88.8847 68.2593 88.8847Z" fill="#47748C"/>
<path d="M48.1377 88.8856H38.4703C36.3037 88.8856 34.5486 87.1289 34.5486 84.9621C34.5486 83.8778 34.9873 82.8988 35.6962 82.1881C36.4069 81.4774 37.3878 81.0387 38.4702 81.0387H48.1376C47.0551 81.0387 46.0725 81.4774 45.3636 82.1881C44.6529 82.8988 44.2142 83.878 44.2142 84.9621C44.2142 87.1287 45.9709 88.8856 48.1377 88.8856Z" fill="#5D859B"/>
<path d="M30.0019 70.8688C27.6066 70.8688 25.6577 68.9201 25.6577 66.5246V33.5166C25.6577 31.1213 27.6064 29.1724 30.0019 29.1724H76.7286C79.1239 29.1724 81.0728 31.1211 81.0728 33.5166V66.5248C81.0728 68.9201 79.124 70.869 76.7286 70.869H30.0019V70.8688Z" fill="#AC6CFE"/>
<path d="M41.6375 70.8689H30.0022C27.6066 70.8689 25.6578 68.9202 25.6578 66.5246V33.5165C25.6578 31.1209 27.6066 29.1721 30.0022 29.1721H41.6375C36.5875 29.1721 32.4938 33.2658 32.4938 38.3158V61.7252C32.4938 66.7752 36.5875 70.8689 41.6375 70.8689Z" fill="#9951F4"/>
<path d="M46.73 56.7253C46.4056 56.7253 46.0811 56.6014 45.8337 56.354L40.3965 50.9168C39.9014 50.4218 39.9014 49.6191 40.3965 49.1241L45.8337 43.6869C46.3287 43.1918 47.1314 43.1918 47.6264 43.6869C48.1215 44.1819 48.1215 44.9845 47.6264 45.4796L43.0857 50.0204L47.6264 54.5611C48.1215 55.0561 48.1215 55.8589 47.6264 56.3538C47.3788 56.6014 47.0543 56.7253 46.73 56.7253Z" fill="#F9F6F6"/>
<path d="M60.0005 56.7254C59.6762 56.7254 59.3517 56.6015 59.1043 56.3541C58.6091 55.8591 58.6091 55.0564 59.1043 54.5614L63.645 50.0206L59.1043 45.4799C58.6091 44.9849 58.6091 44.1823 59.1043 43.6872C59.5992 43.192 60.402 43.192 60.897 43.6872L66.3342 49.1243C66.8293 49.6193 66.8293 50.4221 66.3342 50.9171L60.897 56.3543C60.6492 56.6015 60.3249 56.7254 60.0005 56.7254Z" fill="#F9F6F6"/>
<path d="M50.7823 60.7934C50.6834 60.7934 50.5828 60.7818 50.4824 60.7573C49.802 60.5921 49.3843 59.9068 49.5495 59.2265L54.1636 40.2165C54.3288 39.5363 55.0131 39.1183 55.6945 39.2837C56.3748 39.4489 56.7925 40.1342 56.6273 40.8146L52.0132 59.8245C51.8725 60.4043 51.3537 60.7934 50.7823 60.7934Z" fill="#F9F6F6"/>
<path d="M90.2535 69.8801L83.5048 92.5907H65.5755L58.4785 69.5742V69.5658H87.6944C88.57 69.5658 89.4269 69.6741 90.2535 69.8801Z" fill="#DDDAEC"/>
<path d="M90.2534 69.8801L83.5047 92.5907H81.032L77.7463 84.0148C75.3886 77.8626 79.1323 71.0683 85.5937 69.7753C86.2985 69.6334 87.0016 69.5658 87.6946 69.5658C88.57 69.5658 89.4269 69.6741 90.2534 69.8801Z" fill="#D0CEE7"/>
<path d="M61.0141 69.7748C55.252 68.6211 49.6457 72.3568 48.4918 78.119L45.0416 95.351C44.0485 100.31 47.264 105.136 52.2233 106.129C56.6023 107.006 60.9752 104.596 62.573 100.426L68.8608 84.0149C71.2183 77.8626 67.4744 71.0684 61.0141 69.7748Z" fill="#F9F6F6"/>
<path d="M55.9817 106.094C55.3464 106.235 54.69 106.307 54.0262 106.307C53.43 106.307 52.8277 106.249 52.224 106.129C47.2649 105.136 44.0492 100.31 45.042 95.3512L48.4917 78.1187C49.6362 72.4026 55.163 68.681 60.8761 69.7488C56.737 70.5267 53.2841 73.7363 52.4071 78.1187L48.9573 95.3512C47.9752 100.258 51.1126 105.032 55.9817 106.094Z" fill="#DDDAEC"/>
<path d="M88.0661 69.7748C93.8281 68.6211 99.4344 72.3568 100.588 78.119L104.039 95.351C105.032 100.31 101.816 105.136 96.8568 106.129C92.4779 107.006 88.1049 104.596 86.5071 100.426L80.2193 84.0149C77.8619 77.8626 81.6058 71.0684 88.0661 69.7748Z" fill="#F9F6F6"/>
<path d="M97.0259 106.093C96.9702 106.105 96.9127 106.117 96.8553 106.129C96.2519 106.251 95.6486 106.308 95.0519 106.308C91.3251 106.308 87.884 104.021 86.5066 100.426L80.2192 84.0149C77.8615 77.8628 81.6052 71.0684 88.0648 69.7755C89.449 69.4982 90.8232 69.5033 92.1297 69.7518C92.0857 69.7586 92.0435 69.7671 91.9996 69.7755C85.5398 71.0684 81.7962 77.8629 84.1521 84.0149L90.4411 100.426C91.5718 103.379 94.0953 105.45 97.0259 106.093Z" fill="#DDDAEC"/>
<path d="M61.5634 78.4885H60.621V77.5461C60.621 76.1752 59.5096 75.0638 58.1387 75.0638C56.7678 75.0638 55.6565 76.1752 55.6565 77.5461V78.4885H54.7141C53.3432 78.4885 52.2318 79.5998 52.2318 80.9707C52.2318 82.3417 53.3432 83.453 54.7141 83.453H55.6565V84.3954C55.6565 85.7663 56.7678 86.8777 58.1387 86.8777C59.5096 86.8777 60.621 85.7663 60.621 84.3954V83.453H61.5634C62.9343 83.453 64.0456 82.3417 64.0456 80.9707C64.0456 79.5997 62.9343 78.4885 61.5634 78.4885Z" fill="#5D859B"/>
<path d="M59.0684 86.6973C58.7815 86.813 58.4676 86.8777 58.1388 86.8777C56.7676 86.8777 55.6577 85.7663 55.6577 84.3951V83.4519H54.7145C54.0297 83.4519 53.4079 83.1739 52.9589 82.7249C52.5099 82.2759 52.2319 81.657 52.2319 80.9707C52.2319 79.5995 53.3433 78.4882 54.7145 78.4882H55.6577V77.545C55.6577 76.1752 56.7676 75.0638 58.1388 75.0638C58.4678 75.0638 58.7816 75.1285 59.0684 75.2441C58.1582 75.6107 57.5154 76.5027 57.5154 77.545V78.4882H56.5722C55.201 78.4882 54.0896 79.5995 54.0896 80.9707C54.0896 81.6572 54.3675 82.2759 54.8166 82.7249C55.2656 83.1739 55.8859 83.4519 56.5722 83.4519H57.5154V84.3951C57.5154 85.4372 58.1582 86.3294 59.0684 86.6973Z" fill="#3C6F8A"/>
<path d="M93.2855 80.0284C94.6564 80.0284 95.7678 78.917 95.7678 77.5461C95.7678 76.1752 94.6564 75.0638 93.2855 75.0638C91.9146 75.0638 90.8032 76.1752 90.8032 77.5461C90.8032 78.917 91.9146 80.0284 93.2855 80.0284Z" fill="#E28086"/>
<path d="M86.5724 84.993C87.9433 84.993 89.0546 83.8816 89.0546 82.5107C89.0546 81.1398 87.9433 80.0284 86.5724 80.0284C85.2014 80.0284 84.0901 81.1398 84.0901 82.5107C84.0901 83.8816 85.2014 84.993 86.5724 84.993Z" fill="#E28086"/>
<path d="M94.2533 79.8328C93.9561 79.959 93.6286 80.0281 93.2862 80.0281C91.9149 80.0281 90.8036 78.9167 90.8036 77.5455C90.8036 76.1742 91.9149 75.0629 93.2862 75.0629C93.6286 75.0629 93.9561 75.1319 94.2533 75.2581C93.3628 75.6351 92.7379 76.5181 92.7379 77.5455C92.7379 78.5727 93.3626 79.4558 94.2533 79.8328Z" fill="#DD636E"/>
<path d="M87.5398 84.798C87.2424 84.9242 86.9151 84.9933 86.5727 84.9933C85.2015 84.9933 84.0901 83.8819 84.0901 82.5107C84.0901 81.1394 85.2015 80.0281 86.5727 80.0281C86.9151 80.0281 87.2426 80.0971 87.5398 80.2233C86.6508 80.6003 86.0259 81.4833 86.0259 82.5107C86.026 83.5379 86.6508 84.421 87.5398 84.798Z" fill="#DD636E"/>
<path d="M76.0265 88.5925H73.0523C72.0583 88.5925 71.2526 87.7866 71.2526 86.7927C71.2526 85.7986 72.0584 84.9929 73.0523 84.9929H76.0265C77.0205 84.9929 77.8262 85.7988 77.8262 86.7927C77.8262 87.7867 77.0205 88.5925 76.0265 88.5925Z" fill="#5D859B"/>
<path d="M75.1092 88.592H73.0532C72.059 88.592 71.2524 87.7869 71.2524 86.7927C71.2524 86.2956 71.4537 85.8451 71.7796 85.5191C72.1054 85.1932 72.5561 84.9919 73.0532 84.9919H75.1092C74.6121 84.9919 74.1616 85.1932 73.8356 85.5191C73.5096 85.8449 73.3085 86.2956 73.3085 86.7927C73.3085 87.7869 74.115 88.592 75.1092 88.592Z" fill="#3C6F8A"/>
</svg>
