<svg width="123" height="123" viewBox="0 0 123 123" fill="none" xmlns="http://www.w3.org/2000/svg">
<path fill-rule="evenodd" clip-rule="evenodd" d="M38.9095 33.884C46.341 30.0012 50.509 20.5333 58.8405 19.5706C67.4532 18.5753 75.0807 24.3052 82.4713 28.8502C90.5214 33.8007 98.7121 38.7409 103.379 46.9604C108.802 56.5108 115.133 68.3219 110.541 78.2879C105.922 88.3134 90.9013 86.8748 81.9903 93.3843C73.015 99.9409 69.8348 115.462 58.7362 116.132C47.7526 116.795 40.3131 104.828 33.315 96.3245C27.7603 89.575 26.7991 80.7921 23.1249 72.8609C18.7148 63.3412 5.72617 54.9819 9.66118 45.2651C13.6875 35.3228 29.4051 38.8497 38.9095 33.884Z" fill="#022A4B"/>
<path d="M33.7459 48.7191H32.552C31.7206 48.7191 31.0466 48.0451 31.0466 47.2137V42.023C31.0466 41.1916 31.7206 40.5176 32.552 40.5176H33.7459V48.7191Z" fill="url(#paint0_linear_375_7090)"/>
<path d="M33.7459 58.27H32.552C31.7206 58.27 31.0466 57.596 31.0466 56.7646V51.5739C31.0466 50.7425 31.7206 50.0685 32.552 50.0685H33.7459V58.27Z" fill="url(#paint1_linear_375_7090)"/>
<path d="M84.2004 48.7191H85.3944C86.2258 48.7191 86.8998 48.0451 86.8998 47.2137V42.023C86.8998 41.1916 86.2258 40.5176 85.3944 40.5176H84.2004V48.7191Z" fill="url(#paint2_linear_375_7090)"/>
<path d="M85.2884 97.3777V38.1609C85.2884 32.5822 80.7658 28.0597 75.1872 28.0597H42.7594C37.1806 28.0597 32.6582 32.5822 32.6582 38.1609V97.3777C32.6582 102.957 37.1807 107.479 42.7594 107.479H75.1872C80.7658 107.479 85.2884 102.956 85.2884 97.3777Z" fill="url(#paint3_linear_375_7090)"/>
<path d="M73.5898 30.3505H44.3568C39.4703 30.3505 35.509 34.3118 35.509 39.1982V96.3402C35.509 101.227 39.4703 105.188 44.3568 105.188H73.5898C78.4762 105.188 82.4377 101.227 82.4377 96.34V39.1984C82.4375 34.3118 78.4762 30.3505 73.5898 30.3505Z" fill="url(#paint4_linear_375_7090)"/>
<path d="M42.3887 95.7217L54.1458 107.479H75.1871C80.7659 107.479 85.2883 102.956 85.2883 97.3776V95.7217H42.3887Z" fill="url(#paint5_linear_375_7090)"/>
<path d="M32.6582 71.2471V97.3775C32.6582 102.956 37.1807 107.479 42.7594 107.479H75.1872C80.766 107.479 85.2884 102.956 85.2884 97.3775V71.2471H32.6582Z" fill="url(#paint6_linear_375_7090)"/>
<path d="M79.6931 40.0548V91.6748C79.6931 95.5473 76.5537 98.6867 72.6812 98.6867H45.2654C41.3928 98.6867 38.2534 95.5473 38.2534 91.6748V40.0548C38.2534 36.1822 41.3927 33.0428 45.2654 33.0428H50.0456C50.7909 33.0428 51.395 33.6469 51.395 34.3922C51.395 35.1375 51.999 35.7415 52.7443 35.7415H65.2022C65.9475 35.7415 66.5516 35.1375 66.5516 34.3922C66.5516 33.6469 67.1556 33.0428 67.9009 33.0428H72.6812C76.5537 33.0428 79.6931 36.1822 79.6931 40.0548Z" fill="url(#paint7_linear_375_7090)"/>
<path d="M72.6812 33.0428H67.9009C67.1556 33.0428 66.5516 33.6469 66.5516 34.3922C66.5516 35.1375 65.9475 35.7415 65.2022 35.7415H52.7443C51.999 35.7415 51.395 35.1375 51.395 34.3922C51.395 33.6469 50.7908 33.0428 50.0456 33.0428H45.2654C41.3928 33.0428 38.2534 36.1822 38.2534 40.0548V61.696H79.6931V40.0548C79.6931 36.1822 76.5537 33.0428 72.6812 33.0428Z" fill="url(#paint8_linear_375_7090)"/>
<path d="M59.2847 35.7415H52.7443C51.999 35.7415 51.395 35.1375 51.395 34.3922C51.395 33.6469 50.7908 33.0428 50.0456 33.0428H45.2654C41.3928 33.0428 38.2534 36.1822 38.2534 40.0548V91.6748C38.2534 95.5473 41.3928 98.6867 45.2654 98.6867H59.2849V35.7415H59.2847Z" fill="url(#paint9_linear_375_7090)"/>
<path d="M45.3537 98.6867H72.6812C75.0459 98.6867 77.1355 97.515 78.4056 95.7217H42.3887L45.3537 98.6867Z" fill="url(#paint10_linear_375_7090)"/>
<path d="M58.9733 105.61C60.3493 105.61 61.4649 104.495 61.4649 103.119C61.4649 101.742 60.3493 100.627 58.9733 100.627C57.5972 100.627 56.4817 101.742 56.4817 103.119C56.4817 104.495 57.5972 105.61 58.9733 105.61Z" fill="url(#paint11_linear_375_7090)"/>
<path d="M84.818 99.2833L58.6464 92.2706C56.878 91.7968 55.8287 89.9791 56.3025 88.2109L66.7469 49.2321C67.2207 47.4637 69.0383 46.4144 70.8066 46.8881L96.9782 53.9007C98.7464 54.3746 99.7958 56.1922 99.3221 57.9604L88.8777 96.9392C88.4039 98.7078 86.5862 99.7572 84.818 99.2833Z" fill="url(#paint12_linear_375_7090)"/>
<path d="M95.5014 72.2185L88.8769 96.9396C88.4035 98.7071 86.5862 99.7567 84.8172 99.2833L58.6462 92.271C56.8787 91.7961 55.8292 89.9788 56.3026 88.2113L66.3421 50.7441H74.0271L95.5014 72.2185Z" fill="url(#paint13_linear_375_7090)"/>
<path d="M59.958 74.5684L56.3025 88.211C55.8286 89.9794 56.8781 91.797 58.6465 92.2707L84.8181 99.2835C86.5865 99.7573 88.4041 98.7079 88.8778 96.9395L92.5332 83.2968L59.958 74.5684Z" fill="url(#paint14_linear_375_7090)"/>
<path d="M96.9782 53.9009L81.1082 49.6486L68.948 95.031L84.818 99.2834C86.5864 99.7573 88.404 98.7078 88.8777 96.9394L99.3221 57.9606C99.7958 56.1922 98.7464 54.3746 96.9782 53.9009Z" fill="url(#paint15_linear_375_7090)"/>
<path d="M75.9339 80.0963C75.6084 80.0091 75.3018 79.8491 75.0472 79.6341C74.2778 78.9838 72.7965 77.6347 71.5218 75.9049C69.8635 73.6547 69.0974 71.511 69.2452 69.5337C69.36 67.9974 70.1553 66.611 71.4272 65.7298C72.6051 64.9136 74.0387 64.6363 75.4639 64.949C75.5477 64.9674 75.6321 64.9879 75.7146 65.01C77.0336 65.3635 78.1508 66.1752 78.8602 67.2956C78.9884 67.498 79.1007 67.7064 79.1968 67.9193C79.3864 67.783 79.5879 67.6586 79.8002 67.5474C80.9747 66.9318 82.348 66.7875 83.6671 67.141C83.7497 67.1631 83.8331 67.1875 83.9149 67.2135C85.3055 67.6553 86.4083 68.6122 87.0205 69.908C87.6814 71.3072 87.6769 72.9055 87.008 74.2932C86.1474 76.0795 84.4121 77.5531 81.8508 78.6726C79.882 79.5333 77.9247 79.9611 76.933 80.1395C76.6049 80.1984 76.2595 80.1836 75.9339 80.0963Z" fill="url(#paint16_linear_375_7090)"/>
<path d="M75.9339 80.0963C75.6084 80.0091 75.3018 79.8491 75.0472 79.6341C74.2778 78.9838 72.7965 77.6347 71.5218 75.9049C69.8635 73.6547 69.0974 71.511 69.2452 69.5337C69.36 67.9974 70.1553 66.611 71.4272 65.7298C72.6051 64.9136 74.0387 64.6363 75.4639 64.949C75.5477 64.9674 75.6321 64.9879 75.7146 65.01C77.0336 65.3635 78.1508 66.1752 78.8602 67.2956C78.9884 67.498 79.1007 67.7064 79.1968 67.9193C79.3864 67.783 79.5879 67.6586 79.8002 67.5474C80.9747 66.9318 82.348 66.7875 83.6671 67.141C83.7497 67.1631 83.8331 67.1875 83.9149 67.2135C85.3055 67.6553 86.4083 68.6122 87.0205 69.908C87.6814 71.3072 87.6769 72.9055 87.008 74.2932C86.1474 76.0795 84.4121 77.5531 81.8508 78.6726C79.882 79.5333 77.9247 79.9611 76.933 80.1395C76.6049 80.1984 76.2595 80.1836 75.9339 80.0963Z" fill="url(#paint17_linear_375_7090)"/>
<path d="M69.3357 71.2317C69.5964 72.7193 70.3278 74.2845 71.5219 75.905C72.7967 77.6347 74.2779 78.9839 75.0473 79.6341C75.3019 79.8493 75.6086 80.0091 75.934 80.0963C76.2595 80.1835 76.605 80.1984 76.9332 80.1394C77.9247 79.9609 79.8821 79.5332 81.8509 78.6725C83.6953 77.8663 85.1113 76.8764 86.0808 75.7184L69.3357 71.2317Z" fill="url(#paint18_linear_375_7090)"/>
<path d="M78.8604 67.2955C78.1509 66.1751 77.0339 65.3634 75.7148 65.0099C75.6323 64.9878 75.5479 64.9673 75.4641 64.9489C74.0389 64.6362 72.6053 64.9134 71.4274 65.7297C70.1555 66.6109 69.3602 67.9975 69.2454 69.5336C69.164 70.6247 69.3611 71.7665 69.8325 72.9489L79.1969 67.9192C79.1009 67.7061 78.9884 67.4978 78.8604 67.2955Z" fill="url(#paint19_linear_375_7090)"/>
<path d="M74.639 60.6546L74.3276 51.9246C74.3061 51.4227 73.7713 51.0385 73.1629 50.8755C72.5545 50.7124 71.8992 50.7777 71.6296 51.2016L67.0082 58.6098C66.9807 58.6592 66.9534 58.7086 66.9427 58.7481C66.8115 59.2374 67.4696 59.7964 68.0383 59.9489C68.3689 60.0375 68.6619 60.0026 68.8157 59.7461L69.7083 58.2135L72.4987 58.9611L72.5054 60.7348C72.5104 61.0338 72.7465 61.2104 73.0771 61.299C73.6458 61.4515 74.4954 61.2962 74.6266 60.8069C74.6373 60.7675 74.6381 60.711 74.639 60.6546ZM70.5567 56.7401L72.472 53.4544L72.4877 57.2574L70.5567 56.7401Z" fill="url(#paint20_linear_375_7090)"/>
<path d="M80.9856 85.517L81.297 94.247C81.3185 94.7489 81.8533 95.1331 82.4617 95.2961C83.0701 95.4592 83.7254 95.3939 83.995 94.97L88.6164 87.5618C88.6439 87.5124 88.6712 87.4631 88.6819 87.4235C88.8131 86.9342 88.155 86.3752 87.5863 86.2227C87.2557 86.1341 86.9627 86.169 86.8089 86.4255L85.9163 87.9581L83.1259 87.2105L83.1192 85.4368C83.1142 85.1378 82.8781 84.9612 82.5475 84.8726C81.9788 84.7203 81.1292 84.8754 80.9981 85.3645C80.9875 85.4041 80.9867 85.4606 80.9856 85.517ZM85.0681 89.4316L83.1528 92.7172L83.1371 88.9143L85.0681 89.4316Z" fill="url(#paint21_linear_375_7090)"/>
<path d="M71.5542 96.5773H44.4595C42.6288 96.5773 41.1448 95.0933 41.1448 93.2626V52.9086C41.1448 51.0779 42.6288 49.5939 44.4595 49.5939H71.5542C73.3849 49.5939 74.869 51.0779 74.869 52.9086V93.2624C74.869 95.0933 73.3849 96.5773 71.5542 96.5773Z" fill="url(#paint22_linear_375_7090)"/>
<path d="M41.1445 79.1388V93.2626C41.1445 95.0933 42.6286 96.5774 44.4593 96.5774H71.554C73.3847 96.5774 74.8687 95.0933 74.8687 93.2626V79.1388H41.1445Z" fill="url(#paint23_linear_375_7090)"/>
<path d="M71.5541 49.5939H55.1243V96.5773H71.5541C73.3848 96.5773 74.8688 95.0933 74.8688 93.2626V52.9086C74.8688 51.0779 73.3848 49.5939 71.5541 49.5939Z" fill="url(#paint24_linear_375_7090)"/>
<path d="M51.7242 61.8993L49.1637 53.5474C49.0132 53.0682 48.3971 52.8356 47.7674 52.8356C47.1376 52.8356 46.5214 53.0682 46.3708 53.5474L43.8243 61.8993C43.8104 61.9541 43.7969 62.0088 43.7969 62.0499C43.7969 62.5565 44.5774 62.9262 45.166 62.9262C45.5083 62.9262 45.7822 62.8167 45.8644 62.5291L46.3299 60.8177H49.2187L49.6843 62.5291C49.7666 62.8165 50.0403 62.9262 50.3826 62.9262C50.9714 62.9262 51.7519 62.5565 51.7519 62.0499C51.7517 62.0088 51.7379 61.9541 51.7242 61.8993ZM46.7678 59.1746L47.7674 55.5053L48.7668 59.1746H46.7678Z" fill="url(#paint25_linear_375_7090)"/>
<path d="M64.2894 84.2718L66.8499 92.6238C67.0004 93.1029 67.6165 93.3356 68.2462 93.3356C68.876 93.3356 69.4922 93.1029 69.6428 92.6238L72.1893 84.2718C72.2032 84.217 72.2167 84.1624 72.2167 84.1213C72.2167 83.6147 71.4362 83.245 70.8476 83.245C70.5053 83.245 70.2314 83.3545 70.1492 83.6421L69.6837 85.3535H66.7949L66.3293 83.6421C66.247 83.3546 65.9733 83.245 65.631 83.245C65.0422 83.245 64.2617 83.6147 64.2617 84.1213C64.262 84.1624 64.2757 84.217 64.2894 84.2718ZM69.2458 86.9965L68.2462 90.6659L67.2468 86.9965H69.2458Z" fill="url(#paint26_linear_375_7090)"/>
<path d="M67.2013 73.1964C66.8323 71.2481 65.5376 69.3757 63.3534 67.6314C61.6744 66.2907 59.8945 65.3708 58.983 64.9418C58.6814 64.7998 58.3438 64.7249 58.0068 64.7249C57.6698 64.7249 57.3322 64.7999 57.0306 64.9418C56.1191 65.3708 54.3392 66.2905 52.66 67.6314C50.4758 69.3759 49.1811 71.2481 48.8119 73.1964C48.5252 74.7099 48.9346 76.255 49.935 77.4354C50.8615 78.5285 52.1745 79.1675 53.632 79.2343C53.7177 79.2382 53.8046 79.2402 53.8901 79.2402C54.8761 79.2402 55.8217 78.9809 56.6387 78.4991C56.2016 79.6407 55.2355 80.5251 54.0179 80.8393C53.6671 80.9298 53.7326 81.4465 54.095 81.4465H58.0066H61.9183C62.2806 81.4465 62.3462 80.93 61.9953 80.8393C60.7777 80.5251 59.8118 79.6407 59.3745 78.4993C60.1914 78.9811 61.137 79.2403 62.1232 79.2403C62.2087 79.2403 62.2956 79.2383 62.3812 79.2344C63.8388 79.1676 65.1517 78.5287 66.0784 77.4355C67.0788 76.255 67.4882 74.7099 67.2013 73.1964Z" fill="url(#paint27_linear_375_7090)"/>
<path d="M63.3533 67.6314C61.6743 66.2907 59.8944 65.3708 58.983 64.9418C58.6813 64.7998 58.3437 64.7249 58.0067 64.7249C57.6697 64.7249 57.3321 64.7999 57.0305 64.9418C56.6019 65.1434 55.9801 65.455 55.2683 65.8665V79.0644C55.7515 78.9393 56.2129 78.7503 56.6388 78.4991C56.3659 79.2122 55.8865 79.8246 55.2683 80.2608V81.4465H58.0066H61.9182C62.2806 81.4465 62.3461 80.93 61.9953 80.8393C60.7777 80.5251 59.8117 79.6407 59.3744 78.4993C60.1914 78.9811 61.1369 79.2403 62.1231 79.2403C62.2086 79.2403 62.2955 79.2383 62.3812 79.2344C63.8387 79.1676 65.1516 78.5287 66.0784 77.4355C67.0789 76.2551 67.4881 74.71 67.2014 73.1965C66.8322 71.2481 65.5375 69.3759 63.3533 67.6314Z" fill="url(#paint28_linear_375_7090)"/>
<path d="M48.8122 73.1965C48.5255 74.71 48.9349 76.2551 49.9352 77.4355C50.8618 78.5287 52.1747 79.1676 53.6323 79.2344C53.7179 79.2383 53.8048 79.2403 53.8903 79.2403C54.8764 79.2403 55.8219 78.981 56.639 78.4992C56.2019 79.6408 55.2358 80.5252 54.0182 80.8395C53.6673 80.9299 53.7329 81.4466 54.0952 81.4466H58.0069H61.9185C62.2809 81.4466 62.3464 80.9301 61.9956 80.8395C60.778 80.5252 59.812 79.6408 59.3747 78.4994C60.1917 78.9812 61.1372 79.2405 62.1234 79.2405C62.2089 79.2405 62.2958 79.2385 62.3815 79.2346C63.839 79.1678 65.152 78.5288 66.0787 77.4356C67.0792 76.2552 67.4884 74.7102 67.2017 73.1967C67.1072 72.698 66.9513 72.2046 66.7361 71.7167H49.2779C49.0626 72.2042 48.9067 72.6979 48.8122 73.1965Z" fill="url(#paint29_linear_375_7090)"/>
<defs>
<linearGradient id="paint0_linear_375_7090" x1="31.0468" y1="44.6183" x2="33.0193" y2="44.6183" gradientUnits="userSpaceOnUse">
<stop stop-color="#C8EFFE"/>
<stop offset="1" stop-color="#62DBFB"/>
</linearGradient>
<linearGradient id="paint1_linear_375_7090" x1="31.0468" y1="54.1693" x2="33.0193" y2="54.1693" gradientUnits="userSpaceOnUse">
<stop stop-color="#C8EFFE"/>
<stop offset="1" stop-color="#62DBFB"/>
</linearGradient>
<linearGradient id="paint2_linear_375_7090" x1="86.8998" y1="44.6183" x2="84.9272" y2="44.6183" gradientUnits="userSpaceOnUse">
<stop stop-color="#C8EFFE"/>
<stop offset="1" stop-color="#62DBFB"/>
</linearGradient>
<linearGradient id="paint3_linear_375_7090" x1="37.3718" y1="46.1677" x2="83.8654" y2="92.6613" gradientUnits="userSpaceOnUse">
<stop stop-color="#537983"/>
<stop offset="1" stop-color="#384949"/>
</linearGradient>
<linearGradient id="paint4_linear_375_7090" x1="83.9034" y1="77.6731" x2="37.6208" y2="59.2868" gradientUnits="userSpaceOnUse">
<stop stop-color="#537983"/>
<stop offset="1" stop-color="#384949"/>
</linearGradient>
<linearGradient id="paint5_linear_375_7090" x1="63.8386" y1="107.479" x2="63.8386" y2="98.8871" gradientUnits="userSpaceOnUse">
<stop stop-color="#554E56" stop-opacity="0"/>
<stop offset="0.269" stop-color="#524B52" stop-opacity="0.269"/>
<stop offset="0.521" stop-color="#464147" stop-opacity="0.521"/>
<stop offset="0.7654" stop-color="#343034" stop-opacity="0.765"/>
<stop offset="1" stop-color="#1A1A1A"/>
</linearGradient>
<linearGradient id="paint6_linear_375_7090" x1="58.9732" y1="94.6611" x2="58.9732" y2="106.629" gradientUnits="userSpaceOnUse">
<stop stop-color="#554E56" stop-opacity="0"/>
<stop offset="0.269" stop-color="#524B52" stop-opacity="0.269"/>
<stop offset="0.521" stop-color="#464147" stop-opacity="0.521"/>
<stop offset="0.7654" stop-color="#343034" stop-opacity="0.765"/>
<stop offset="1" stop-color="#1A1A1A"/>
</linearGradient>
<linearGradient id="paint7_linear_375_7090" x1="43.3409" y1="50.2324" x2="69.8182" y2="76.7097" gradientUnits="userSpaceOnUse">
<stop stop-color="#FEF0AE"/>
<stop offset="1" stop-color="#FAC600"/>
</linearGradient>
<linearGradient id="paint8_linear_375_7090" x1="58.9733" y1="45.345" x2="58.9733" y2="32.1085" gradientUnits="userSpaceOnUse">
<stop stop-color="#FEA613" stop-opacity="0"/>
<stop offset="0.2032" stop-color="#FDA215" stop-opacity="0.203"/>
<stop offset="0.4052" stop-color="#FB961B" stop-opacity="0.405"/>
<stop offset="0.6066" stop-color="#F68225" stop-opacity="0.607"/>
<stop offset="0.8066" stop-color="#F06633" stop-opacity="0.807"/>
<stop offset="1" stop-color="#E94444"/>
</linearGradient>
<linearGradient id="paint9_linear_375_7090" x1="46.8268" y1="65.8648" x2="35.9696" y2="65.8648" gradientUnits="userSpaceOnUse">
<stop stop-color="#FEA613" stop-opacity="0"/>
<stop offset="0.2032" stop-color="#FDA215" stop-opacity="0.203"/>
<stop offset="0.4052" stop-color="#FB961B" stop-opacity="0.405"/>
<stop offset="0.6066" stop-color="#F68225" stop-opacity="0.607"/>
<stop offset="0.8066" stop-color="#F06633" stop-opacity="0.807"/>
<stop offset="1" stop-color="#E94444"/>
</linearGradient>
<linearGradient id="paint10_linear_375_7090" x1="61.6" y1="107.68" x2="60.2764" y2="94.5209" gradientUnits="userSpaceOnUse">
<stop stop-color="#FEA613" stop-opacity="0"/>
<stop offset="0.2032" stop-color="#FDA215" stop-opacity="0.203"/>
<stop offset="0.4052" stop-color="#FB961B" stop-opacity="0.405"/>
<stop offset="0.6066" stop-color="#F68225" stop-opacity="0.607"/>
<stop offset="0.8066" stop-color="#F06633" stop-opacity="0.807"/>
<stop offset="1" stop-color="#E94444"/>
</linearGradient>
<linearGradient id="paint11_linear_375_7090" x1="60.9978" y1="105.143" x2="57.4548" y2="101.6" gradientUnits="userSpaceOnUse">
<stop stop-color="#537983"/>
<stop offset="1" stop-color="#384949"/>
</linearGradient>
<linearGradient id="paint12_linear_375_7090" x1="64.7537" y1="59.4256" x2="90.0375" y2="85.9029" gradientUnits="userSpaceOnUse">
<stop stop-color="#EAF9FA"/>
<stop offset="1" stop-color="#B3DAFE"/>
</linearGradient>
<linearGradient id="paint13_linear_375_7090" x1="82.1348" y1="74.5792" x2="74.4525" y2="75.2021" gradientUnits="userSpaceOnUse">
<stop stop-color="#B3DAFE" stop-opacity="0"/>
<stop offset="0.2438" stop-color="#ACD5FA" stop-opacity="0.244"/>
<stop offset="0.589" stop-color="#9AC5F0" stop-opacity="0.589"/>
<stop offset="0.9932" stop-color="#7CACDF" stop-opacity="0.993"/>
<stop offset="1" stop-color="#7BACDF"/>
</linearGradient>
<linearGradient id="paint14_linear_375_7090" x1="73.5546" y1="88.9694" x2="71.8275" y2="95.4112" gradientUnits="userSpaceOnUse">
<stop stop-color="#B3DAFE" stop-opacity="0"/>
<stop offset="0.2438" stop-color="#ACD5FA" stop-opacity="0.244"/>
<stop offset="0.589" stop-color="#9AC5F0" stop-opacity="0.589"/>
<stop offset="0.9932" stop-color="#7CACDF" stop-opacity="0.993"/>
<stop offset="1" stop-color="#7BACDF"/>
</linearGradient>
<linearGradient id="paint15_linear_375_7090" x1="88.3908" y1="75.9351" x2="95.4638" y2="77.8315" gradientUnits="userSpaceOnUse">
<stop stop-color="#B3DAFE" stop-opacity="0"/>
<stop offset="0.2438" stop-color="#ACD5FA" stop-opacity="0.244"/>
<stop offset="0.589" stop-color="#9AC5F0" stop-opacity="0.589"/>
<stop offset="0.9932" stop-color="#7CACDF" stop-opacity="0.993"/>
<stop offset="1" stop-color="#7BACDF"/>
</linearGradient>
<linearGradient id="paint16_linear_375_7090" x1="76.2619" y1="67.7923" x2="81.9565" y2="77.6589" gradientUnits="userSpaceOnUse">
<stop stop-color="#FE646F"/>
<stop offset="1" stop-color="#C41926"/>
</linearGradient>
<linearGradient id="paint17_linear_375_7090" x1="80.4633" y1="72.4993" x2="74.1306" y2="72.4993" gradientUnits="userSpaceOnUse">
<stop stop-color="#A72B2B" stop-opacity="0"/>
<stop offset="0.1996" stop-color="#A32B2A" stop-opacity="0.2"/>
<stop offset="0.3982" stop-color="#972926" stop-opacity="0.398"/>
<stop offset="0.5966" stop-color="#832820" stop-opacity="0.597"/>
<stop offset="0.7949" stop-color="#672517" stop-opacity="0.795"/>
<stop offset="0.9914" stop-color="#44210C" stop-opacity="0.991"/>
<stop offset="1" stop-color="#42210B"/>
</linearGradient>
<linearGradient id="paint18_linear_375_7090" x1="77.4995" y1="74.2577" x2="75.9033" y2="80.2111" gradientUnits="userSpaceOnUse">
<stop stop-color="#A72B2B" stop-opacity="0"/>
<stop offset="0.1996" stop-color="#A32B2A" stop-opacity="0.2"/>
<stop offset="0.3982" stop-color="#972926" stop-opacity="0.398"/>
<stop offset="0.5966" stop-color="#832820" stop-opacity="0.597"/>
<stop offset="0.7949" stop-color="#672517" stop-opacity="0.795"/>
<stop offset="0.9914" stop-color="#44210C" stop-opacity="0.991"/>
<stop offset="1" stop-color="#42210B"/>
</linearGradient>
<linearGradient id="paint19_linear_375_7090" x1="74.779" y1="67.8881" x2="80.459" y2="66.0441" gradientUnits="userSpaceOnUse">
<stop stop-color="#A72B2B" stop-opacity="0"/>
<stop offset="0.1996" stop-color="#A32B2A" stop-opacity="0.2"/>
<stop offset="0.3982" stop-color="#972926" stop-opacity="0.398"/>
<stop offset="0.5966" stop-color="#832820" stop-opacity="0.597"/>
<stop offset="0.7949" stop-color="#672517" stop-opacity="0.795"/>
<stop offset="0.9914" stop-color="#44210C" stop-opacity="0.991"/>
<stop offset="1" stop-color="#42210B"/>
</linearGradient>
<linearGradient id="paint20_linear_375_7090" x1="68.4616" y1="51.6568" x2="74.1444" y2="61.5034" gradientUnits="userSpaceOnUse">
<stop stop-color="#FE646F"/>
<stop offset="1" stop-color="#C41926"/>
</linearGradient>
<linearGradient id="paint21_linear_375_7090" x1="80.5811" y1="83.1429" x2="86.7475" y2="93.8273" gradientUnits="userSpaceOnUse">
<stop stop-color="#FE646F"/>
<stop offset="1" stop-color="#C41926"/>
</linearGradient>
<linearGradient id="paint22_linear_375_7090" x1="41.8571" y1="63.2618" x2="73.1313" y2="82.2858" gradientUnits="userSpaceOnUse">
<stop stop-color="#EAF9FA"/>
<stop offset="1" stop-color="#B3DAFE"/>
</linearGradient>
<linearGradient id="paint23_linear_375_7090" x1="58.0068" y1="89.5155" x2="58.0068" y2="96.184" gradientUnits="userSpaceOnUse">
<stop stop-color="#B3DAFE" stop-opacity="0"/>
<stop offset="0.2438" stop-color="#ACD5FA" stop-opacity="0.244"/>
<stop offset="0.589" stop-color="#9AC5F0" stop-opacity="0.589"/>
<stop offset="0.9932" stop-color="#7CACDF" stop-opacity="0.993"/>
<stop offset="1" stop-color="#7BACDF"/>
</linearGradient>
<linearGradient id="paint24_linear_375_7090" x1="68.9599" y1="73.0856" x2="76.2817" y2="73.0856" gradientUnits="userSpaceOnUse">
<stop stop-color="#B3DAFE" stop-opacity="0"/>
<stop offset="0.2438" stop-color="#ACD5FA" stop-opacity="0.244"/>
<stop offset="0.589" stop-color="#9AC5F0" stop-opacity="0.589"/>
<stop offset="0.9932" stop-color="#7CACDF" stop-opacity="0.993"/>
<stop offset="1" stop-color="#7BACDF"/>
</linearGradient>
<linearGradient id="paint25_linear_375_7090" x1="43.4263" y1="54.7988" x2="51.4641" y2="62.8368" gradientUnits="userSpaceOnUse">
<stop stop-color="#537983"/>
<stop offset="1" stop-color="#384949"/>
</linearGradient>
<linearGradient id="paint26_linear_375_7090" x1="63.2839" y1="82.0688" x2="72.0059" y2="90.7908" gradientUnits="userSpaceOnUse">
<stop stop-color="#537983"/>
<stop offset="1" stop-color="#384949"/>
</linearGradient>
<linearGradient id="paint27_linear_375_7090" x1="55.5931" y1="70.5874" x2="60.7094" y2="77.7935" gradientUnits="userSpaceOnUse">
<stop stop-color="#537983"/>
<stop offset="1" stop-color="#384949"/>
</linearGradient>
<linearGradient id="paint28_linear_375_7090" x1="60.6872" y1="72.9628" x2="66.3081" y2="72.0981" gradientUnits="userSpaceOnUse">
<stop stop-color="#554E56" stop-opacity="0"/>
<stop offset="0.269" stop-color="#524B52" stop-opacity="0.269"/>
<stop offset="0.521" stop-color="#464147" stop-opacity="0.521"/>
<stop offset="0.7654" stop-color="#343034" stop-opacity="0.765"/>
<stop offset="1" stop-color="#1A1A1A"/>
</linearGradient>
<linearGradient id="paint29_linear_375_7090" x1="58.0069" y1="74.9592" x2="58.0069" y2="82.0655" gradientUnits="userSpaceOnUse">
<stop stop-color="#554E56" stop-opacity="0"/>
<stop offset="0.269" stop-color="#524B52" stop-opacity="0.269"/>
<stop offset="0.521" stop-color="#464147" stop-opacity="0.521"/>
<stop offset="0.7654" stop-color="#343034" stop-opacity="0.765"/>
<stop offset="1" stop-color="#1A1A1A"/>
</linearGradient>
</defs>
</svg>
