<svg width="19" height="19" viewBox="0 0 19 19" fill="none" xmlns="http://www.w3.org/2000/svg">
<path d="M18.8346 7.65848V16.6244C18.8346 16.9753 18.7318 17.3091 18.5607 17.5915C18.2357 18.1217 17.6452 18.4726 16.9866 18.4642H2.8183C2.15949 18.4642 1.57776 18.1217 1.25253 17.5915C1.0729 17.3091 0.970337 16.9753 0.970337 16.6244L0.978692 7.65848C0.978692 7.06777 1.25253 6.52051 1.72314 6.16959L8.80729 0.925039C9.45753 0.437096 10.3474 0.437096 11.0062 0.925039L18.0901 6.16959C18.2271 6.27236 18.3468 6.39184 18.4496 6.52886C18.6977 6.84552 18.8346 7.23905 18.8346 7.65848Z" fill="#FFA300"/>
<path d="M16.4433 3.15037V13.7245H3.36157V3.15037C3.36157 2.55819 3.84163 2.07812 4.43382 2.07812H15.371C15.9632 2.07812 16.4433 2.55819 16.4433 3.15037Z" fill="#E5E8EF"/>
<path d="M18.5607 17.5919C18.2357 18.122 17.6452 18.4729 16.9866 18.4646H2.81833C2.15952 18.4646 1.57779 18.122 1.25256 17.5919L9.09829 10.4561C9.55156 10.0459 10.2532 10.0459 10.7067 10.4561L18.5607 17.5919Z" fill="#FFA300"/>
<path d="M18.8346 7.65892V16.6249C18.8346 16.9758 18.7318 17.3096 18.5608 17.592L12.5377 12.1164L18.4496 6.5293C18.6978 6.84596 18.8346 7.23949 18.8346 7.65892Z" fill="#FFD80C"/>
<path d="M0.970337 7.65892V16.6249C0.970337 16.9758 1.07311 17.3096 1.24418 17.592L7.26722 12.1164L1.3553 6.5293C1.10715 6.84596 0.970337 7.23949 0.970337 7.65892Z" fill="#FFD80C"/>
<path d="M8.69908 15.5829C8.69908 15.6606 8.66747 15.7309 8.61672 15.7821C8.56556 15.8328 8.49527 15.8644 8.41749 15.8644H7.9393C7.78373 15.8644 7.65771 15.7384 7.65771 15.5829C7.65771 15.5051 7.68933 15.4348 7.74007 15.3836C7.79123 15.3329 7.86152 15.3013 7.9393 15.3013H8.41749C8.57305 15.3013 8.69908 15.4273 8.69908 15.5829Z" fill="#FFD80C"/>
<path d="M12.4229 15.5829C12.4229 15.6606 12.3913 15.7309 12.3406 15.7821C12.2894 15.8328 12.2191 15.8644 12.1414 15.8644H9.54184C9.38627 15.8644 9.26025 15.7384 9.26025 15.5829C9.26025 15.5051 9.29187 15.4348 9.34261 15.3836C9.39377 15.3329 9.46406 15.3013 9.54184 15.3013H12.1414C12.2969 15.3013 12.4229 15.4273 12.4229 15.5829Z" fill="#FFD80C"/>
<path d="M11.6217 16.87C11.6217 16.9478 11.5901 17.018 11.5393 17.0692C11.4882 17.12 11.4179 17.1516 11.3401 17.1516H8.74057C8.585 17.1516 8.45898 17.0255 8.45898 16.87C8.45898 16.7922 8.4906 16.7219 8.54134 16.6707C8.5925 16.62 8.66279 16.5884 8.74057 16.5884H11.3401C11.4956 16.5884 11.6217 16.7144 11.6217 16.87Z" fill="#FFD80C"/>
<path d="M5.09916 3.49177C5.09916 3.5626 5.07038 3.6266 5.02417 3.67319C4.97758 3.7194 4.91358 3.74818 4.84275 3.74818H4.68708C4.54542 3.74818 4.43066 3.63343 4.43066 3.49177C4.43066 3.42095 4.45945 3.35693 4.50566 3.31034C4.55224 3.26415 4.61625 3.23535 4.68708 3.23535H4.84275C4.9844 3.23535 5.09916 3.35012 5.09916 3.49177Z" fill="#CDD4DF"/>
<path d="M7.09121 3.49177C7.09121 3.5626 7.06242 3.6266 7.01622 3.67319C6.96963 3.7194 6.90562 3.74818 6.83479 3.74818H5.86652C5.72486 3.74818 5.61011 3.63343 5.61011 3.49177C5.61011 3.42095 5.63889 3.35693 5.6851 3.31034C5.73168 3.26415 5.79569 3.23535 5.86652 3.23535H6.83479C6.97644 3.23535 7.09121 3.35012 7.09121 3.49177Z" fill="#CDD4DF"/>
<path d="M5.65128 4.50056C5.65128 4.57139 5.6225 4.63539 5.57629 4.68198C5.5297 4.72819 5.4657 4.75697 5.39487 4.75697H4.70637C4.5647 4.75697 4.44995 4.64222 4.44995 4.50056C4.44995 4.42974 4.47874 4.36572 4.52494 4.31913C4.57153 4.27294 4.63553 4.24414 4.70637 4.24414H5.39487C5.53652 4.24414 5.65128 4.35891 5.65128 4.50056Z" fill="#CDD4DF"/>
</svg>
