<svg width="38" height="36" viewBox="0 0 38 36" fill="none" xmlns="http://www.w3.org/2000/svg">
<path d="M23.9469 28.6047V32.6739L18.6275 33.3266L11.7747 32.6739L13.9446 28.6047H23.9469Z" fill="#2B597F"/>
<path d="M29.9718 35.8914H9.02214C8.13537 35.8914 7.4165 35.1726 7.4165 34.2858C7.4165 33.399 8.13537 32.6802 9.02214 32.6802H29.9718V35.8914Z" fill="#50758D"/>
<path d="M38 3.16699V25.9838C38 27.6728 36.6306 29.0422 34.9416 29.0422H3.05835C1.36938 29.0422 0 27.6728 0 25.9838V3.24345C0 1.51243 1.40378 0.108643 3.13481 0.108643H34.9416C36.6306 0.108643 38 1.47802 38 3.16699Z" fill="#50758D"/>
<path d="M4.20523 29.0422H3.05835C1.36938 29.0422 0 27.6728 0 25.9838V3.24345C0 1.51243 1.40378 0.108643 3.13481 0.108643H4.28169C2.55066 0.108643 1.14688 1.51243 1.14688 3.24345V25.9838C1.14688 27.6728 2.51626 29.0422 4.20523 29.0422Z" fill="#2B597F"/>
<path d="M34.1389 26.7485H3.86121C3.01664 26.7485 2.33203 26.0638 2.33203 25.2193V3.96375C2.33203 3.11918 3.01664 2.43457 3.86121 2.43457H34.1389C34.9834 2.43457 35.668 3.11918 35.668 3.96375V25.2193C35.668 26.0638 34.9834 26.7485 34.1389 26.7485Z" fill="#F5F5F5"/>
<path d="M19 22.0843C23.1383 22.0843 26.493 18.7296 26.493 14.5913C26.493 10.4531 23.1383 7.09839 19 7.09839C14.8618 7.09839 11.5071 10.4531 11.5071 14.5913C11.5071 18.7296 14.8618 22.0843 19 22.0843Z" fill="#FD646F"/>
<path d="M19.6117 22.0591C19.4099 22.0759 19.2057 22.0843 19 22.0843C14.8621 22.0843 11.5071 18.7293 11.5071 14.5913C11.5071 10.4534 14.8621 7.09839 19 7.09839C19.2057 7.09839 19.4099 7.1068 19.6117 7.12362C15.7597 7.43404 12.7304 10.6591 12.7304 14.5913C12.7304 18.5236 15.7597 21.7486 19.6117 22.0591Z" fill="#FC4755"/>
<path d="M16.8219 14.7657V12.3257C16.8219 11.655 17.548 11.2358 18.1288 11.5711L20.2419 12.7911L22.355 14.0111C22.9358 14.3464 22.9358 15.1848 22.355 15.5202L20.2419 16.7401L18.1288 17.9601C17.548 18.2955 16.8219 17.8762 16.8219 17.2055V14.7657Z" fill="#F5F5F5"/>
<path d="M10.8571 35.8914H9.02214C8.13522 35.8914 7.4165 35.1727 7.4165 34.2858C7.4165 33.8423 7.59618 33.4409 7.88673 33.1504C8.17727 32.8599 8.57868 32.6802 9.02214 32.6802H10.8571C10.4137 32.6802 10.0123 32.8599 9.72174 33.1504C9.43119 33.4409 9.25151 33.8423 9.25151 34.2858C9.25151 35.1727 9.97023 35.8914 10.8571 35.8914Z" fill="#2B597F"/>
<path d="M21.7882 31.3797C21.9858 31.8944 22.2307 32.3854 22.5151 32.8496L24.3041 32.7004L23.9469 28.6047H21.1997C21.2499 29.5783 21.4534 30.5112 21.7882 31.3797Z" fill="#225272"/>
<path d="M23.3401 33.9895C23.6156 34.3168 23.9162 34.6227 24.2372 34.9063C24.6234 35.2496 25.039 35.5592 25.4804 35.833C25.5128 35.853 25.546 35.8718 25.5786 35.8914H29.9719V32.6802H22.4135C22.684 33.1442 22.9936 33.5827 23.3401 33.9895Z" fill="#2B597F"/>
<path d="M35.668 20.877V25.2191C35.668 26.064 34.9837 26.7483 34.1388 26.7483H21.2845C21.952 22.4062 25.7138 19.0703 30.2394 19.0703C31.3618 19.0703 32.4559 19.2729 33.4919 19.6728C34.2695 19.9718 35.0005 20.3755 35.668 20.877Z" fill="#E6E6E6"/>
<path d="M38 23.4523V25.9839C38 27.6729 36.6306 29.0422 34.9417 29.0422H21.225C21.1944 28.741 21.1791 28.4374 21.1791 28.1308C21.1791 27.6606 21.215 27.1988 21.2846 26.7485H34.1388C34.9837 26.7485 35.668 26.0642 35.668 25.2193V20.8772C35.8171 20.9881 35.9624 21.105 36.1054 21.2258C36.4334 21.5042 36.7423 21.8069 37.0206 22.1235C37.3616 22.5065 37.6735 22.9248 37.9472 23.3659C37.9648 23.3942 37.9824 23.4233 38 23.4523Z" fill="#2B597F"/>
<path d="M38 28.1307C38 32.417 34.5257 35.8912 30.2394 35.8912C28.7424 35.8912 27.3447 35.4677 26.1596 34.7337C25.7811 34.4989 25.4248 34.2336 25.0938 33.9393C24.8185 33.6961 24.5609 33.4339 24.3246 33.1533C23.7626 32.4934 23.31 31.7388 22.9942 30.9161C22.6609 30.0513 22.4789 29.1124 22.4789 28.1307C22.4789 23.8444 25.9532 20.3701 30.2394 20.3701C31.2212 20.3701 32.1601 20.5521 33.0241 20.8854C33.8468 21.2012 34.6022 21.6539 35.2628 22.2158C35.5426 22.4529 35.8056 22.7098 36.0472 22.985C36.3424 23.3161 36.6077 23.6724 36.8424 24.0508C37.5764 25.236 38 26.6336 38 28.1307Z" fill="#FAD207"/>
<path fill-rule="evenodd" clip-rule="evenodd" d="M30.0865 28.371V25.4877C30.8969 25.6781 31.501 26.234 31.501 26.8693C31.501 27.1859 31.7579 27.4428 32.0744 27.4428C32.246 27.4428 32.3876 27.3574 32.5048 27.2473L33.2402 26.5142H32.6182C32.4338 25.4132 31.4054 24.5303 30.0865 24.3187V22.2688H29.8624L29.1139 23.0173C29.1093 23.0212 29.1055 23.025 29.1017 23.0296L29.0933 23.038L29.094 23.0387C28.9985 23.1412 28.9396 23.2781 28.9396 23.4287V24.3072C28.4919 24.3699 28.0764 24.5101 27.7131 24.7095V24.5339L26.9674 25.2784V25.2787C26.5505 25.7185 26.3018 26.2705 26.3018 26.8693C26.3018 28.1531 27.4441 29.222 28.9396 29.4315V32.3201C28.0909 32.1473 27.4486 31.5769 27.4486 30.9216C27.4486 30.7519 27.3743 30.5998 27.257 30.4948L27.2538 29.7329L26.4859 30.5007L26.4862 30.5013C26.373 30.606 26.3018 30.7553 26.3018 30.9216C26.3018 32.2053 27.4441 33.2742 28.9396 33.4837V34.3622C28.9396 34.6787 29.1965 34.9356 29.513 34.9356C29.655 34.9356 29.7847 34.8837 29.8848 34.7982L30.6479 34.0354H30.0865V33.4722C31.5445 33.2383 32.6478 32.1839 32.6478 30.9216C32.6478 29.6592 31.5445 28.6049 30.0865 28.371ZM28.9396 28.2679C28.0912 28.0947 27.4486 27.5245 27.4486 26.8693C27.4486 26.2141 28.0912 25.6439 28.9396 25.4707V28.2679ZM30.0865 32.3036V29.5396C30.8967 29.7306 31.501 30.2863 31.501 30.9216C31.501 31.5569 30.8967 32.1126 30.0865 32.3036Z" fill="#F8C201"/>
<path d="M30.8511 27.6063V24.7227C31.6613 24.9137 32.2656 25.4693 32.2656 26.1046C32.2656 26.4214 32.5223 26.678 32.839 26.678C33.1558 26.678 33.4125 26.4214 33.4125 26.1046C33.4125 24.8426 32.309 23.7882 30.8511 23.5539V22.664C30.8511 22.3472 30.5944 22.0906 30.2777 22.0906C29.9609 22.0906 29.7042 22.3472 29.7042 22.664V23.5428C28.2087 23.7519 27.0664 24.8207 27.0664 26.1047C27.0664 27.3886 28.2087 28.4574 29.7042 28.6666V31.5556C28.8558 31.3824 28.2133 30.8121 28.2133 30.157C28.2133 29.8402 27.9566 29.5835 27.6398 29.5835C27.3231 29.5835 27.0664 29.8402 27.0664 30.157C27.0664 31.4409 28.2087 32.5098 29.7042 32.7189V33.5976C29.7042 33.9144 29.9609 34.1711 30.2777 34.1711C30.5944 34.1711 30.8511 33.9144 30.8511 33.5976V32.7076C32.309 32.4734 33.4125 31.419 33.4125 30.157C33.4125 28.8949 32.309 27.8406 30.8511 27.6063ZM28.2133 26.1047C28.2133 25.4495 28.8558 24.8793 29.7042 24.7061V27.5032C28.8558 27.3301 28.2133 26.7598 28.2133 26.1047ZM30.8511 31.5389V28.775C31.6613 28.966 32.2656 29.5216 32.2656 30.1569C32.2656 30.7922 31.6613 31.3479 30.8511 31.5389Z" fill="#F5F5F5"/>
</svg>
