<svg width="91" height="97" viewBox="0 0 91 97" fill="none" xmlns="http://www.w3.org/2000/svg">
<path fill-rule="evenodd" clip-rule="evenodd" d="M66.6715 59.7851L76.8086 77.3433L80.2706 73.8813L76.9946 66.5049C79.7565 62.391 81.7391 57.7105 82.7284 52.6731L90.2554 49.7757V40.7955L82.7302 37.8991C81.7406 32.8607 79.7586 28.1783 76.9957 24.0641L80.2706 16.6899L73.9206 10.3401L66.5443 13.6162C62.4304 10.8545 57.7499 8.87185 52.7124 7.88242L49.8149 0.35498H40.8349L37.9375 7.88204C32.8999 8.87148 28.2194 10.8541 24.1055 13.6158L16.7293 10.3398L10.3793 16.6898L13.655 24.0656C10.8927 28.1793 8.91028 32.8605 7.92103 37.8983L0.394531 40.7953V49.7755L7.91991 52.6721C8.90972 57.7103 10.8916 62.3929 13.6544 66.5071L10.3793 73.8813L13.8413 77.3433L23.9785 59.7851C21.1657 55.6524 19.5212 50.6612 19.5212 45.2854C19.5212 31.0346 31.0741 19.4817 45.325 19.4817C59.5758 19.4817 71.1287 31.0346 71.1287 45.2854C71.1287 50.6612 69.4842 55.6524 66.6715 59.7851ZM51.1025 42.5886L76.4088 86.4204C77.6168 88.5128 77.6168 90.9995 76.4088 93.0919C75.2007 95.1842 73.0474 96.4276 70.6313 96.4276H20.0187C17.6026 96.4276 15.4492 95.1841 14.2412 93.0919C13.0331 90.9996 13.0331 88.5128 14.2412 86.4204L39.5475 42.5886C40.7555 40.4964 42.9089 39.2531 45.325 39.2531C47.7409 39.2531 49.8944 40.4964 51.1025 42.5886ZM45.325 83.3131C43.4874 83.3131 41.9975 84.8028 41.9975 86.6405C41.9975 88.4783 43.4872 89.968 45.325 89.968C47.1627 89.968 48.6524 88.4783 48.6524 86.6405C48.6524 84.8028 47.1626 83.3131 45.325 83.3131ZM45.3252 77.3735C43.9274 77.3735 42.7798 76.2668 42.7293 74.87L42.0728 56.6888C42.0463 55.9576 42.291 55.3186 42.7989 54.7919C43.3069 54.2652 43.9366 53.9978 44.6682 53.9978H45.9813C46.7132 53.9978 47.3429 54.2654 47.8508 54.7919C48.3588 55.3186 48.6033 55.9576 48.577 56.6888L47.9204 74.87C47.8702 76.2666 46.7227 77.3735 45.3252 77.3735Z" fill="white"/>
</svg>
