<svg width="59" height="59" viewBox="0 0 59 59" fill="none" xmlns="http://www.w3.org/2000/svg">
<path d="M35.9059 18.9728C35.9059 18.9728 32.6684 31.5037 21.4307 33.9455L39.2514 34.0164C39.2514 34.0164 44.6085 25.5072 42.2649 19.0281C41.62 17.2454 39.7877 16.0723 37.9492 16.4944C36.9807 16.7168 36.1119 17.3799 35.9059 18.9728Z" fill="url(#paint0_linear_375_2239)"/>
<g opacity="0.3">
<path d="M22.4976 33.6761C22.1499 33.7758 21.795 33.8663 21.4307 33.9455L21.8575 33.9471C22.0747 33.8606 22.2879 33.7704 22.4976 33.6761Z" fill="url(#paint1_linear_375_2239)"/>
<path d="M42.2648 19.0281C41.6199 17.2454 39.7877 16.0723 37.9492 16.4944C37.4574 16.6073 36.9924 16.8358 36.6257 17.2399C38.1369 17.2997 39.5108 18.3508 40.0505 19.843C41.9567 25.1128 38.7688 31.7248 37.5123 34.0096L39.2512 34.0164C39.2513 34.0164 44.6085 25.5072 42.2648 19.0281Z" fill="url(#paint2_linear_375_2239)"/>
</g>
<path d="M53.7358 37.5253H53.6849C54.6877 37.5027 55.8918 37.0859 56.8728 36.4263C59.4398 34.7008 58.4083 30.5444 55.4483 29.9924C55.2134 29.9487 54.9744 29.928 54.7355 29.928C54.7352 29.928 36.3958 29.928 36.3958 29.928C32.646 29.928 28.979 30.8645 25.6021 32.5041C24.3936 33.091 23.0004 33.6047 21.4307 33.9372V36.7894V45.6175V55.2206L26.5929 56.9493C30.0554 58.1088 33.681 58.6999 37.3303 58.6999H48.2614C50.0757 58.6999 51.7023 57.3363 51.8034 55.5141C51.911 53.5737 50.3897 51.9684 48.4897 51.945H51.0907C53.0316 51.945 54.7717 50.4861 54.8794 48.5367C54.9942 46.4607 53.3655 44.7432 51.3325 44.72H53.9381C55.9768 44.72 57.617 43.004 57.5091 40.9294C57.4079 38.9841 55.6723 37.5253 53.7358 37.5253Z" fill="url(#paint3_linear_375_2239)"/>
<path d="M54.948 36.1457H49.3059C47.8789 36.1457 46.7222 34.9889 46.7222 33.5619V33.5466C46.7222 32.1196 47.8789 30.9629 49.3059 30.9629H54.948C56.375 30.9629 57.5318 32.1196 57.5318 33.5466V33.5619C57.5318 34.9889 56.375 36.1457 54.948 36.1457Z" fill="url(#paint4_linear_375_2239)"/>
<path d="M54.3008 43.6324H48.6587C47.2317 43.6324 46.075 42.4756 46.075 41.0486V41.0333C46.075 39.6063 47.2317 38.4496 48.6587 38.4496H54.3008C55.7278 38.4496 56.8846 39.6063 56.8846 41.0333V41.0486C56.8846 42.4756 55.7278 43.6324 54.3008 43.6324Z" fill="url(#paint5_linear_375_2239)"/>
<path d="M51.6404 50.9424H45.9983C44.5713 50.9424 43.4146 49.7857 43.4146 48.3587V48.3434C43.4146 46.9164 44.5713 45.7596 45.9983 45.7596H51.6404C53.0674 45.7596 54.2242 46.9164 54.2242 48.3434V48.3587C54.2242 49.7855 53.0674 50.9424 51.6404 50.9424Z" fill="url(#paint6_linear_375_2239)"/>
<path d="M48.4278 58.0336H42.7856C41.3587 58.0336 40.2019 56.8769 40.2019 55.4499V55.4346C40.2019 54.0076 41.3587 52.8508 42.7856 52.8508H48.4278C49.8548 52.8508 51.0115 54.0076 51.0115 55.4346V55.4499C51.0115 56.8769 49.8548 58.0336 48.4278 58.0336Z" fill="url(#paint7_linear_375_2239)"/>
<path d="M19.982 30.946H12.8697C11.8977 30.946 11.1096 31.7175 11.1096 32.6689V56.977C11.1098 57.9284 11.8977 58.6999 12.8698 58.6999H19.9821C20.9541 58.6999 21.7422 57.9284 21.7422 56.9769V32.6688C21.742 31.7174 20.954 30.946 19.982 30.946Z" fill="url(#paint8_linear_375_2239)"/>
<path d="M14.6535 39.0387C15.632 39.0387 16.4253 38.2408 16.4253 37.2566C16.4253 36.2724 15.632 35.4745 14.6535 35.4745C13.6749 35.4745 12.8816 36.2724 12.8816 37.2566C12.8816 38.2408 13.6749 39.0387 14.6535 39.0387Z" fill="url(#paint9_linear_375_2239)"/>
<path opacity="0.7" d="M19.9821 30.946H12.8699C11.8979 30.946 11.1099 31.7174 11.1099 32.6689V32.7033H13.307C13.307 32.7033 19.3824 32.7154 19.3824 40.2298V58.6999H19.9822C20.9543 58.6999 21.7423 57.9286 21.7423 56.9769V32.6688C21.7421 31.7174 20.9542 30.946 19.9821 30.946Z" fill="url(#paint10_linear_375_2239)"/>
<path opacity="0.2" d="M53.7359 37.5253H53.685C54.6878 37.5027 55.8919 37.0859 56.8731 36.4263C59.4401 34.7008 58.4086 30.5444 55.4486 29.9924C55.2137 29.9487 54.9746 29.928 54.7358 29.928C54.7358 29.928 54.4079 29.928 53.8554 29.928C52.2407 35.7884 45.0303 57.5917 27.301 57.1549C30.55 58.1647 33.9271 58.6999 37.3304 58.6999H48.2615C50.0757 58.6999 51.7024 57.3363 51.8035 55.5141C51.9113 53.5737 50.3898 51.9684 48.49 51.945H51.0908C53.0317 51.945 54.7718 50.4861 54.8796 48.5367C54.9942 46.4607 53.3657 44.7432 51.3326 44.7199H53.9382C55.9768 44.7199 57.617 43.0038 57.5092 40.9292C57.408 38.9839 55.6725 37.5253 53.7359 37.5253Z" fill="url(#paint11_linear_375_2239)"/>
<path d="M13.8542 28.0749C21.5056 28.0749 27.7083 21.8722 27.7083 14.2207C27.7083 6.5693 21.5056 0.366577 13.8542 0.366577C6.20272 0.366577 0 6.5693 0 14.2207C0 21.8722 6.20272 28.0749 13.8542 28.0749Z" fill="url(#paint12_linear_375_2239)"/>
<path d="M21.835 12.0395C21.7431 11.7652 21.5057 11.5651 21.2193 11.5214L16.825 10.8507L14.8528 6.65112C14.7254 6.3806 14.4533 6.20764 14.1542 6.20764C13.8551 6.20764 13.583 6.3806 13.4557 6.65112L11.4834 10.8507L7.08903 11.5214C6.80261 11.5651 6.56534 11.7652 6.47332 12.0395C6.38145 12.3138 6.45072 12.6164 6.6527 12.8237L9.85549 16.1033L9.0973 20.744C9.04976 21.0357 9.17342 21.3288 9.41463 21.4991C9.65657 21.6695 9.97536 21.6868 10.2323 21.5436L14.1541 19.3777L18.0758 21.5436C18.1926 21.6084 18.3207 21.64 18.4489 21.64C18.6049 21.64 18.7608 21.5925 18.8935 21.4991C19.1347 21.3288 19.2582 21.0357 19.2108 20.744L18.4527 16.1033L21.6554 12.8237C21.8576 12.6164 21.9268 12.3138 21.835 12.0395Z" fill="#FFF9E9"/>
<defs>
<linearGradient id="paint0_linear_375_2239" x1="39.1446" y1="17.6463" x2="30.6892" y2="33.3657" gradientUnits="userSpaceOnUse">
<stop stop-color="#FFDFCF"/>
<stop offset="1" stop-color="#FFA78F"/>
</linearGradient>
<linearGradient id="paint1_linear_375_2239" x1="22.1215" y1="33.5188" x2="21.8604" y2="34.0044" gradientUnits="userSpaceOnUse">
<stop stop-color="#FFDFCF"/>
<stop offset="1" stop-color="#FFA78F"/>
</linearGradient>
<linearGradient id="paint2_linear_375_2239" x1="41.7462" y1="18.5811" x2="35.9494" y2="29.3582" gradientUnits="userSpaceOnUse">
<stop stop-color="#FFDFCF"/>
<stop offset="1" stop-color="#FFA78F"/>
</linearGradient>
<linearGradient id="paint3_linear_375_2239" x1="29.9396" y1="31.3561" x2="48.9986" y2="55.1138" gradientUnits="userSpaceOnUse">
<stop stop-color="#FFDFCF"/>
<stop offset="1" stop-color="#FFA78F"/>
</linearGradient>
<linearGradient id="paint4_linear_375_2239" x1="53.092" y1="32.5738" x2="57.0456" y2="28.5517" gradientUnits="userSpaceOnUse">
<stop stop-color="#FFDFCF" stop-opacity="0"/>
<stop offset="1" stop-color="#FFA78F"/>
</linearGradient>
<linearGradient id="paint5_linear_375_2239" x1="52.4445" y1="40.0609" x2="56.3981" y2="36.0388" gradientUnits="userSpaceOnUse">
<stop stop-color="#FFDFCF" stop-opacity="0"/>
<stop offset="1" stop-color="#FFA78F"/>
</linearGradient>
<linearGradient id="paint6_linear_375_2239" x1="49.7832" y1="47.3701" x2="53.7382" y2="43.3495" gradientUnits="userSpaceOnUse">
<stop stop-color="#FFDFCF" stop-opacity="0"/>
<stop offset="1" stop-color="#FFA78F"/>
</linearGradient>
<linearGradient id="paint7_linear_375_2239" x1="46.5704" y1="54.462" x2="50.5254" y2="50.4399" gradientUnits="userSpaceOnUse">
<stop stop-color="#FFDFCF" stop-opacity="0"/>
<stop offset="1" stop-color="#FFA78F"/>
</linearGradient>
<linearGradient id="paint8_linear_375_2239" x1="16.4252" y1="57.4034" x2="16.4252" y2="31.9555" gradientUnits="userSpaceOnUse">
<stop stop-color="#F92814"/>
<stop offset="1" stop-color="#FF7044"/>
</linearGradient>
<linearGradient id="paint9_linear_375_2239" x1="14.6535" y1="38.8724" x2="14.6535" y2="35.6043" gradientUnits="userSpaceOnUse">
<stop stop-color="#FFEACA"/>
<stop offset="1" stop-color="#FFD9B1"/>
</linearGradient>
<linearGradient id="paint10_linear_375_2239" x1="16.4253" y1="57.4034" x2="16.4253" y2="31.9555" gradientUnits="userSpaceOnUse">
<stop stop-color="#FF7044"/>
<stop offset="1" stop-color="#F92814"/>
</linearGradient>
<linearGradient id="paint11_linear_375_2239" x1="40.4368" y1="41.7584" x2="51.5581" y2="55.5674" gradientUnits="userSpaceOnUse">
<stop stop-color="#FFDFCF"/>
<stop offset="1" stop-color="#FFA78F"/>
</linearGradient>
<linearGradient id="paint12_linear_375_2239" x1="13.8542" y1="0.39866" x2="13.8542" y2="26.5524" gradientUnits="userSpaceOnUse">
<stop stop-color="#FFE878"/>
<stop offset="1" stop-color="#FEAD00"/>
</linearGradient>
</defs>
</svg>
