<svg width="79" height="97" viewBox="0 0 79 97" fill="none" xmlns="http://www.w3.org/2000/svg">
<path d="M55.3655 14.012C44.905 11.4716 34.5939 11.4716 24.1334 14.012C23.685 21.0355 19.0525 27.1624 12.1785 29.4039V52.5665C12.1785 62.7282 29.0647 76.6257 39.6747 83.7987C50.2847 76.7752 67.171 62.8776 67.171 52.5665V29.4039C60.4463 27.1624 55.6644 21.0355 55.3655 14.012ZM44.3072 49.4284V56.0035C44.3072 58.544 42.2151 60.6361 39.6747 60.6361C37.1343 60.6361 35.0422 58.544 35.0422 56.0035V49.4284C26.9726 44.3475 32.0535 31.6455 41.4679 33.5881C49.0892 35.0825 50.8824 45.2441 44.3072 49.4284Z" fill="white"/>
<path d="M40.8701 36.5769C34.1455 35.2319 31.1568 44.3475 37.1342 47.3363C37.5825 47.6351 38.0309 48.0834 38.0309 48.6812V56.153C38.0309 57.0496 38.778 57.7968 39.6746 57.7968C40.5713 57.7968 41.3184 57.0496 41.3184 56.153V48.6812C41.3184 48.0834 41.6173 47.6351 42.2151 47.3363C47.1465 44.7958 46.1004 37.6229 40.8701 36.5769Z" fill="white"/>
<path d="M77.3326 20.886C71.5046 18.7939 67.7687 13.2648 67.7687 7.28731C67.7687 6.68956 67.3204 6.09182 66.7226 5.79295C48.6409 -0.632805 30.4097 -0.632805 12.3279 5.79295C11.7301 5.94238 11.2818 6.54013 11.2818 7.28731C11.4313 13.2648 7.54594 18.7939 1.71793 20.886C1.12018 21.0354 0.671875 21.6332 0.671875 22.2309V52.5664C0.671875 74.3841 36.9848 95.4546 38.6286 96.3512C39.2264 96.6501 39.3758 96.6501 39.6747 96.6501C39.9736 96.6501 40.2724 96.6501 40.4219 96.5006C41.9162 95.604 78.3786 74.5335 78.3786 52.7159V22.2309C78.3786 21.6332 77.9303 21.0354 77.3326 20.886ZM70.1597 52.7159C70.1597 67.2112 43.56 84.9941 40.4219 86.9367C40.123 87.0862 39.8241 87.2356 39.6747 87.2356C39.5253 87.2356 39.077 87.0862 38.9275 86.9367C35.9388 84.9941 9.18973 67.2112 9.18973 52.7159V28.3578C9.18973 27.6106 9.63804 27.1623 10.2358 26.8634C16.6615 25.0702 21.1446 19.3916 20.9952 12.8164C20.9952 12.0693 21.4435 11.4715 22.1907 11.3221C33.8467 8.33336 45.5027 8.33336 57.1587 11.3221C57.7565 11.4715 58.3542 12.0693 58.3542 12.8164C58.2048 19.3916 62.6879 25.0702 69.1136 26.8634C69.7114 27.0129 70.1597 27.6106 70.1597 28.3578V52.7159Z" fill="white"/>
</svg>
