<svg width="48" height="48" viewBox="0 0 48 48" fill="none" xmlns="http://www.w3.org/2000/svg">
<g clip-path="url(#clip0_375_7534)">
<path d="M37.1842 38.5972C36.8397 37.3703 35.5662 36.6546 34.3387 36.9994L33.4105 37.2601L31.5259 39.934C30.0349 42.0494 27.5921 43.2833 25.0512 43.2833C24.9515 43.2833 24.8518 43.2807 24.752 43.2769C25.4015 43.3865 26.0625 43.4419 26.73 43.4419C27.8776 43.4419 29.0437 43.2798 30.2004 42.955L35.5865 41.4426C36.8134 41.0982 37.5288 39.8242 37.1842 38.5972Z" fill="url(#paint0_linear_375_7534)"/>
<path d="M37.1842 38.5972C36.8397 37.3703 35.5662 36.6546 34.3387 36.9994L33.4105 37.2601L31.5259 39.934C30.0349 42.0494 27.5921 43.2833 25.0512 43.2833C24.9515 43.2833 24.8518 43.2807 24.752 43.2769C25.4015 43.3865 26.0625 43.4419 26.73 43.4419C27.8776 43.4419 29.0437 43.2798 30.2004 42.955L35.5865 41.4426C36.8134 41.0982 37.5288 39.8242 37.1842 38.5972Z" fill="url(#paint1_linear_375_7534)"/>
<path d="M25.2396 44.3354C24.7904 44.3309 24.339 44.2879 23.8893 44.2044C22.6362 43.9717 21.8091 42.7673 22.0418 41.5144C22.2744 40.2615 23.479 39.4339 24.7317 39.6669C25.9785 39.8983 27.2614 39.3831 28.0019 38.3546L31.0718 34.0904C31.8165 33.056 33.2585 32.8213 34.2927 33.5659C35.327 34.3104 35.5618 35.7525 34.8172 36.7867L31.7473 41.0509C30.2353 43.1513 27.7804 44.3608 25.2396 44.3354Z" fill="url(#paint2_linear_375_7534)"/>
<path d="M31.2275 34.4841L29.6594 36.0523L28.0019 38.3546C27.5307 39.009 26.8397 39.4544 26.0785 39.6332L22.434 43.2777C22.7689 43.7463 23.2782 44.0911 23.8891 44.2045C24.3389 44.2879 24.7902 44.331 25.2394 44.3355C27.7802 44.3609 30.2352 43.1514 31.7473 41.051L34.2784 37.5351L31.2275 34.4841Z" fill="url(#paint3_linear_375_7534)"/>
<path d="M31.2275 34.4841L29.6594 36.0523L28.0019 38.3546C27.5307 39.009 26.8397 39.4544 26.0785 39.6332L22.434 43.2777C22.7689 43.7463 23.2782 44.0911 23.8891 44.2045C24.3389 44.2879 24.7902 44.331 25.2394 44.3355C27.7802 44.3609 30.2352 43.1514 31.7473 41.051L34.2784 37.5351L31.2275 34.4841Z" fill="url(#paint4_linear_375_7534)"/>
<path d="M20.9872 45.1486C20.9318 45.1417 20.8768 45.1343 20.8214 45.1263L16.5646 44.5075C15.3035 44.3242 14.4298 43.1532 14.613 41.892C14.7939 40.6476 15.9367 39.7803 17.1786 39.9337C17.1953 39.9358 17.2118 39.938 17.2286 39.9405L21.4853 40.5592C22.7366 40.741 24.0018 40.1766 24.7016 39.1197L27.6017 34.7385C28.3052 33.6757 29.7368 33.3845 30.7997 34.0881C31.8624 34.7915 32.1536 36.2232 31.4502 37.286L28.5499 41.6673C26.8996 44.1599 23.9458 45.5141 20.9872 45.1486Z" fill="url(#paint5_linear_375_7534)"/>
<path d="M27.7914 35.6355L25.474 37.9529L24.7017 39.1196C24.2929 39.737 23.6907 40.1845 23.0115 40.4152L18.6205 44.8063L20.8215 45.1263C20.8769 45.1343 20.9318 45.1417 20.9872 45.1486C23.9459 45.5141 26.8996 44.1599 28.5499 41.6672L30.6503 38.4943L27.7914 35.6355Z" fill="url(#paint6_linear_375_7534)"/>
<path d="M27.7914 35.6355L25.474 37.9529L24.7017 39.1196C24.2929 39.737 23.6907 40.1845 23.0115 40.4152L18.6205 44.8063L20.8215 45.1263C20.8769 45.1343 20.9318 45.1417 20.9872 45.1486C23.9459 45.5141 26.8996 44.1599 28.5499 41.6672L30.6503 38.4943L27.7914 35.6355Z" fill="url(#paint7_linear_375_7534)"/>
<path d="M27.4659 35.3153C26.4824 34.5061 25.0282 34.6476 24.218 35.6322L22.8232 37.3275C21.7863 36.7829 20.8592 36.0435 20.0551 35.1142L19.7905 34.8096C21.1043 34.0066 22.373 33.1338 23.5903 32.1913C24.7533 31.2908 24.9369 29.6038 24.0026 28.4685C23.8949 28.3372 23.777 28.2203 23.6519 28.1167C22.7812 27.3937 21.5177 27.3055 20.5403 27.9516C18.6019 29.2346 16.4123 30.1053 14.1109 30.5002C13.7212 30.5679 13.3242 30.5936 12.9294 30.5884C11.5767 30.5731 8.13591 30.5546 7.01391 30.7618C7.00369 30.7638 6.85388 30.7925 6.79032 30.8069C5.4181 31.1053 4.1956 31.8827 3.29926 32.9647L1.69116 34.9021V46.3762H3.45301C5.40891 46.3762 7.3441 45.9751 9.13894 45.1979C9.91426 44.8348 10.7829 44.682 11.6598 44.7722C11.6598 44.7722 17.682 45.5025 18.323 45.5025C20.6561 45.5025 22.9268 44.4666 24.4447 42.6216L27.7819 38.5634C28.5921 37.5797 28.4505 36.1255 27.4659 35.3153Z" fill="url(#paint8_linear_375_7534)"/>
<path d="M14.1928 30.4851C14.1654 30.49 14.1383 30.4956 14.1109 30.5003C13.7212 30.568 13.3242 30.5937 12.9294 30.5885C11.5767 30.5731 8.13591 30.5547 7.01391 30.7619C7.00369 30.7639 6.85388 30.7926 6.79032 30.8069C5.4181 31.1054 4.1956 31.8828 3.29926 32.9648L1.69116 34.9021V46.3763H3.45301C5.40891 46.3763 7.3441 45.9752 9.13894 45.1979C9.91426 44.8349 10.7829 44.682 11.6598 44.7723C11.6598 44.7723 12.8296 44.9142 14.1929 45.0728V30.4851H14.1928Z" fill="url(#paint9_linear_375_7534)"/>
<path d="M23.5904 32.1913C22.373 33.1337 21.1044 34.0066 19.7906 34.8096L20.0551 35.1142C20.8592 36.0434 21.7863 36.7829 22.8232 37.3275L20.8798 39.6894C20.7136 39.8914 20.526 40.0699 20.3219 40.2237C18.6526 36.0376 15.2895 32.8207 5.93095 33.6979C4.7393 33.8096 3.56395 33.8056 2.43164 34.0097L3.2993 32.9647C4.19564 31.8827 5.41814 31.1054 6.79036 30.8069C6.85392 30.7925 7.00364 30.7638 7.01395 30.7618C8.13595 30.5546 11.5768 30.5731 12.9295 30.5884C13.3244 30.5936 13.7212 30.5679 14.1109 30.5002C16.4123 30.1053 18.6019 29.2347 20.5403 27.9516C21.5176 27.3055 22.7812 27.3937 23.652 28.1167C23.7771 28.2203 23.895 28.3372 24.0027 28.4685C24.9369 29.6038 24.7533 31.2908 23.5904 32.1913Z" fill="url(#paint10_linear_375_7534)"/>
<path d="M18.3233 45.502C17.682 45.502 17.0362 45.4238 16.3997 45.2626L11.1774 43.9405C9.94194 43.6277 9.19391 42.3726 9.50666 41.1372C9.8195 39.9016 11.0748 39.1539 12.31 39.4666L17.5323 40.7887C18.7611 41.0998 20.0751 40.6683 20.8801 39.6895L24.2181 35.6317C25.0277 34.6474 26.4821 34.5061 27.4661 35.3155C28.4503 36.1251 28.5918 37.5793 27.7823 38.5635L24.4443 42.6212C22.9269 44.4662 20.6565 45.502 18.3233 45.502Z" fill="url(#paint11_linear_375_7534)"/>
<path d="M23.6521 28.1173C22.7811 27.3941 21.5171 27.3061 20.5399 27.9521C18.6018 29.2351 16.4123 30.1052 14.1113 30.4999C13.7211 30.568 13.3246 30.5934 12.929 30.5889C12.3607 30.5821 11.4231 30.5749 10.4438 30.5843V39.7978C10.9709 39.4387 11.6432 39.298 12.3099 39.4667L17.5323 40.7889C18.7611 41.1 20.0751 40.6685 20.8801 39.6897L22.8233 37.3275C21.7867 36.7829 20.8588 36.043 20.0549 35.1148L19.7903 34.8093C21.1038 34.0068 22.3733 33.1337 23.5903 32.1913C24.7536 31.2912 24.9368 29.6035 24.0023 28.4685C23.8953 28.3378 23.7773 28.2208 23.6521 28.1173Z" fill="url(#paint12_linear_375_7534)"/>
<path d="M23.5903 32.1914C22.373 33.1338 21.1043 34.0066 19.7905 34.8097L11.594 39.4002L11.593 39.4012C11.1777 39.4268 10.7808 39.5684 10.4434 39.7981V30.5843C11.4228 30.575 12.3612 30.5822 12.9293 30.5884C13.3242 30.5936 13.721 30.5679 14.1108 30.5002C16.4121 30.1053 18.6018 29.2347 20.5401 27.9516C21.5175 27.3055 22.781 27.3937 23.6518 28.1167C23.777 28.2203 23.8949 28.3372 24.0025 28.4685C24.9368 29.6039 24.7533 31.2909 23.5903 32.1914Z" fill="url(#paint13_linear_375_7534)"/>
<path d="M23.5903 32.1914C22.373 33.1338 21.1043 34.0066 19.7905 34.8097L11.594 39.4002L11.593 39.4012C11.1777 39.4268 10.7808 39.5684 10.4434 39.7981V30.5843C11.4228 30.575 12.3612 30.5822 12.9293 30.5884C13.3242 30.5936 13.721 30.5679 14.1108 30.5002C16.4121 30.1053 18.6018 29.2347 20.5401 27.9516C21.5175 27.3055 22.781 27.3937 23.6518 28.1167C23.777 28.2203 23.8949 28.3372 24.0025 28.4685C24.9368 29.6039 24.7533 31.2909 23.5903 32.1914Z" fill="url(#paint14_linear_375_7534)"/>
<path d="M6.92016 47.5312H1.51247C0.677156 47.5312 0 46.8541 0 46.0189V29.0288C0 28.1935 0.677156 27.5164 1.51247 27.5164H6.92016C7.75547 27.5164 8.43262 28.1935 8.43262 29.0288V46.0189C8.43262 46.8541 7.75547 47.5312 6.92016 47.5312Z" fill="url(#paint15_linear_375_7534)"/>
<path d="M8.43262 46.0188V34.5051H0V46.0188C0 46.8541 0.677156 47.5312 1.51247 47.5312H6.92016C7.75547 47.5312 8.43262 46.8541 8.43262 46.0188Z" fill="url(#paint16_linear_375_7534)"/>
<path d="M45.8371 16.443C45.8371 15.7475 45.7839 15.0642 45.6821 14.3972L47.1143 13.5706C47.9612 13.0818 48.2515 11.9988 47.7626 11.1519L44.649 5.75944C44.1601 4.91269 43.0774 4.62253 42.2307 5.11144L40.797 5.93906C39.736 5.08744 38.5447 4.39284 37.2554 3.89138V2.23922C37.2554 1.26141 36.4627 0.46875 35.4849 0.46875H29.2584C28.2806 0.46875 27.4879 1.26141 27.4879 2.23922V3.89138C26.1995 4.39284 25.0073 5.08744 23.9473 5.93906L22.5135 5.11144C21.6668 4.62263 20.5841 4.91269 20.0952 5.75944L16.9815 11.1521C16.4925 11.999 16.7826 13.0818 17.6295 13.5707L19.0611 14.3972C18.9593 15.0642 18.907 15.7475 18.907 16.443C18.907 17.1376 18.9593 17.8208 19.0611 18.4879L17.6295 19.3144C16.7826 19.8033 16.4925 20.8861 16.9815 21.7329L20.0952 27.1256C20.5841 27.9724 21.6668 28.2625 22.5135 27.7736L23.9473 26.946C25.0073 27.7976 26.1995 28.4922 27.4879 28.9937V30.6458C27.4879 31.6237 28.2806 32.4163 29.2584 32.4163H35.4849C36.4627 32.4163 37.2554 31.6237 37.2554 30.6458V28.9937C38.5447 28.4922 39.736 27.7976 40.797 26.946L42.2307 27.7736C43.0774 28.2624 44.1601 27.9724 44.649 27.1256L47.7626 21.7331C48.2516 20.8862 47.9613 19.8033 47.1143 19.3145L45.6821 18.4879C45.7839 17.8208 45.8371 17.1376 45.8371 16.443ZM32.372 25.8032C27.2024 25.8032 23.0109 21.6127 23.0109 16.443C23.0109 11.2724 27.2024 7.08188 32.372 7.08188C37.5417 7.08188 41.7322 11.2724 41.7322 16.443C41.7322 21.6127 37.5417 25.8032 32.372 25.8032Z" fill="url(#paint17_linear_375_7534)"/>
<path d="M32.3719 5.04663C26.0776 5.04663 20.9764 10.1488 20.9764 16.4431C20.9764 22.7365 26.0776 27.8386 32.3719 27.8386C38.6654 27.8386 43.7674 22.7364 43.7674 16.4431C43.7674 10.1487 38.6654 5.04663 32.3719 5.04663ZM32.3719 25.8033C27.2023 25.8033 23.0108 21.6127 23.0108 16.4431C23.0108 11.2725 27.2023 7.08194 32.3719 7.08194C37.5416 7.08194 41.7321 11.2725 41.7321 16.4431C41.7321 21.6127 37.5416 25.8033 32.3719 25.8033Z" fill="url(#paint18_linear_375_7534)"/>
<path d="M41.7322 16.443C41.7322 21.6126 37.5416 25.8032 32.372 25.8032C27.2023 25.8032 23.0109 21.6126 23.0109 16.443C23.0109 16.3177 23.014 16.1931 23.0189 16.0691H18.9139C18.9105 16.1935 18.9069 16.3178 18.9069 16.443C18.9069 17.1376 18.9592 17.8208 19.061 18.4878L17.6293 19.3143C16.7825 19.8032 16.4923 20.8861 16.9813 21.7329L20.095 27.1256C20.584 27.9723 21.6667 28.2625 22.5134 27.7736L23.9471 26.946C25.0072 27.7976 26.1994 28.4922 27.4878 28.9937V30.6458C27.4878 31.6236 28.2805 32.4163 29.2583 32.4163H35.4848C36.4626 32.4163 37.2552 31.6236 37.2552 30.6458V28.9937C38.5446 28.4922 39.7359 27.7976 40.7968 26.946L42.2306 27.7736C43.0773 28.2624 44.16 27.9723 44.6489 27.1256L47.7625 21.7331C48.2515 20.8862 47.9612 19.8032 47.1142 19.3144L45.682 18.4878C45.7838 17.8208 45.837 17.1376 45.837 16.443C45.837 16.3177 45.8333 16.1934 45.8299 16.0691H41.724C41.729 16.1931 41.7322 16.3177 41.7322 16.443Z" fill="url(#paint19_linear_375_7534)"/>
<path d="M41.7322 16.443C41.7322 21.6127 37.5417 25.8032 32.372 25.8032C29.2568 25.8032 26.4973 24.2811 24.7955 21.9404L19.9176 26.8184L20.0951 27.1257C20.584 27.9724 21.6667 28.2626 22.5134 27.7737L23.9472 26.946C25.0072 27.7977 26.1994 28.4923 27.4878 28.9937V30.6459C27.4878 31.6237 28.2805 32.4164 29.2583 32.4164H35.4848C36.4626 32.4164 37.2553 31.6237 37.2553 30.6459V28.9937C38.5446 28.4923 39.7359 27.7977 40.7969 26.946L42.2306 27.7737C43.0773 28.2625 44.16 27.9724 44.6489 27.1257L47.7625 21.7332C48.2515 20.8862 47.9612 19.8033 47.1142 19.3145L45.682 18.4879C45.7838 17.8209 45.837 17.1376 45.837 16.443C45.837 15.7475 45.7838 15.0643 45.682 14.3972L47.1142 13.5706C47.9611 13.0818 48.2514 11.9988 47.7625 11.152L44.6489 5.75948C44.16 4.91273 43.0773 4.62266 42.2306 5.11148L40.7969 5.9391L37.8695 8.86644C40.2102 10.5679 41.7322 13.3273 41.7322 16.443Z" fill="url(#paint20_linear_375_7534)"/>
<path d="M35.8499 11.4661C35.6602 11.093 35.3971 10.772 35.0609 10.5027C34.724 10.2338 34.3144 10.0225 33.8312 9.86936C33.3478 9.71673 32.8125 9.64014 32.2252 9.64014C31.6011 9.64014 31.0626 9.72273 30.6102 9.88782C30.1573 10.053 29.7844 10.2579 29.4906 10.5026C29.1971 10.7474 28.9766 11.0137 28.83 11.3009C28.6831 11.5887 28.6097 11.8547 28.6097 12.0995C28.6097 12.2829 28.6433 12.4388 28.7106 12.5674C28.7776 12.6957 28.8665 12.8032 28.9766 12.8885C29.0869 12.9744 29.2061 13.0387 29.3347 13.0811C29.4631 13.1242 29.5884 13.1454 29.7108 13.1454C29.9556 13.1454 30.133 13.0721 30.2431 12.9252C30.3531 12.7783 30.4726 12.6164 30.6009 12.4388C30.7295 12.2616 30.9067 12.0995 31.1331 11.9526C31.3593 11.8057 31.7049 11.7324 32.1701 11.7324C32.635 11.7324 33.0264 11.8332 33.3447 12.0352C33.6627 12.2371 33.8219 12.5522 33.8219 12.9804C33.8219 13.2253 33.7636 13.4483 33.6474 13.6502C33.5311 13.8521 33.3904 14.0356 33.2252 14.2007C33.0601 14.3659 32.8827 14.519 32.693 14.6596C32.5034 14.8005 32.3352 14.9321 32.1883 15.0542C32.0536 15.1643 31.913 15.299 31.7664 15.4578C31.6195 15.617 31.4879 15.8066 31.3718 16.0269C31.2552 16.2471 31.1576 16.507 31.078 16.8069C30.9984 17.1069 30.9586 17.4525 30.9586 17.8438C30.9586 18.321 31.0322 18.6454 31.1791 18.8165C31.3258 18.9879 31.5887 19.0734 31.9681 19.0734C32.4209 19.0734 32.7144 18.9909 32.8492 18.8258C32.9836 18.6606 33.0511 18.4925 33.0511 18.321C33.0511 18.0888 33.0571 17.8743 33.0694 17.6786C33.0814 17.483 33.1212 17.2962 33.1888 17.1189C33.2558 16.9417 33.3567 16.764 33.4916 16.5866C33.6259 16.4094 33.8219 16.2228 34.0789 16.0269C34.201 15.929 34.3785 15.7792 34.6111 15.5771C34.8434 15.3752 35.0728 15.1307 35.2993 14.8429C35.5255 14.5556 35.7214 14.2281 35.8866 13.8612C36.0518 13.4941 36.1343 13.0965 36.1343 12.6681C36.1344 12.2401 36.0395 11.8395 35.8499 11.4661Z" fill="url(#paint21_linear_375_7534)"/>
<path d="M31.9958 23.245C32.8196 23.245 33.4875 22.5771 33.4875 21.7532C33.4875 20.9294 32.8196 20.2615 31.9958 20.2615C31.1719 20.2615 30.504 20.9294 30.504 21.7532C30.504 22.5771 31.1719 23.245 31.9958 23.245Z" fill="url(#paint22_linear_375_7534)"/>
</g>
<defs>
<linearGradient id="paint0_linear_375_7534" x1="30.3665" y1="39.0178" x2="31.5363" y2="42.7464" gradientUnits="userSpaceOnUse">
<stop stop-color="#FFDFCF"/>
<stop offset="1" stop-color="#FFA78F"/>
</linearGradient>
<linearGradient id="paint1_linear_375_7534" x1="34.4029" y1="42.1497" x2="31.4053" y2="40.7119" gradientUnits="userSpaceOnUse">
<stop stop-color="#F89580" stop-opacity="0"/>
<stop offset="0.2859" stop-color="#EE8E79" stop-opacity="0.287"/>
<stop offset="0.7624" stop-color="#D57B65" stop-opacity="0.765"/>
<stop offset="0.9972" stop-color="#C5715A"/>
</linearGradient>
<linearGradient id="paint2_linear_375_7534" x1="28.1922" y1="38.2296" x2="31.0801" y2="41.2637" gradientUnits="userSpaceOnUse">
<stop stop-color="#FFDFCF"/>
<stop offset="1" stop-color="#FFA78F"/>
</linearGradient>
<linearGradient id="paint3_linear_375_7534" x1="32.1256" y1="42.3864" x2="27.3551" y2="39.3158" gradientUnits="userSpaceOnUse">
<stop stop-color="#F89580" stop-opacity="0"/>
<stop offset="0.2859" stop-color="#EE8E79" stop-opacity="0.287"/>
<stop offset="0.7624" stop-color="#D57B65" stop-opacity="0.765"/>
<stop offset="0.9972" stop-color="#C5715A"/>
</linearGradient>
<linearGradient id="paint4_linear_375_7534" x1="28.2375" y1="39.9649" x2="29.261" y2="43.7667" gradientUnits="userSpaceOnUse">
<stop stop-color="#F89580" stop-opacity="0"/>
<stop offset="0.2859" stop-color="#EE8E79" stop-opacity="0.287"/>
<stop offset="0.7624" stop-color="#D57B65" stop-opacity="0.765"/>
<stop offset="0.9972" stop-color="#C5715A"/>
</linearGradient>
<linearGradient id="paint5_linear_375_7534" x1="23.3216" y1="39.228" x2="27.0136" y2="42.9202" gradientUnits="userSpaceOnUse">
<stop stop-color="#FFDFCF"/>
<stop offset="1" stop-color="#FFA78F"/>
</linearGradient>
<linearGradient id="paint6_linear_375_7534" x1="26.8117" y1="43.0956" x2="23.3267" y2="40.3174" gradientUnits="userSpaceOnUse">
<stop stop-color="#F89580" stop-opacity="0"/>
<stop offset="0.2859" stop-color="#EE8E79" stop-opacity="0.287"/>
<stop offset="0.7624" stop-color="#D57B65" stop-opacity="0.765"/>
<stop offset="0.9972" stop-color="#C5715A"/>
</linearGradient>
<linearGradient id="paint7_linear_375_7534" x1="24.5349" y1="40.9513" x2="25.1198" y2="45.0212" gradientUnits="userSpaceOnUse">
<stop stop-color="#F89580" stop-opacity="0"/>
<stop offset="0.2859" stop-color="#EE8E79" stop-opacity="0.287"/>
<stop offset="0.7624" stop-color="#D57B65" stop-opacity="0.765"/>
<stop offset="0.9972" stop-color="#C5715A"/>
</linearGradient>
<linearGradient id="paint8_linear_375_7534" x1="12.407" y1="33.8535" x2="16.9398" y2="47.3057" gradientUnits="userSpaceOnUse">
<stop stop-color="#FFDFCF"/>
<stop offset="1" stop-color="#FFA78F"/>
</linearGradient>
<linearGradient id="paint9_linear_375_7534" x1="10.8297" y1="38.4307" x2="6.00394" y2="38.4307" gradientUnits="userSpaceOnUse">
<stop stop-color="#F89580" stop-opacity="0"/>
<stop offset="0.2859" stop-color="#EE8E79" stop-opacity="0.287"/>
<stop offset="0.7624" stop-color="#D57B65" stop-opacity="0.765"/>
<stop offset="0.9972" stop-color="#C5715A"/>
</linearGradient>
<linearGradient id="paint10_linear_375_7534" x1="13.5571" y1="32.9103" x2="11.3639" y2="39.4171" gradientUnits="userSpaceOnUse">
<stop stop-color="#F89580" stop-opacity="0"/>
<stop offset="0.2859" stop-color="#EE8E79" stop-opacity="0.287"/>
<stop offset="0.7624" stop-color="#D57B65" stop-opacity="0.765"/>
<stop offset="0.9972" stop-color="#C5715A"/>
</linearGradient>
<linearGradient id="paint11_linear_375_7534" x1="20.6011" y1="41.1025" x2="23.6718" y2="44.1244" gradientUnits="userSpaceOnUse">
<stop stop-color="#F89580" stop-opacity="0"/>
<stop offset="0.2859" stop-color="#EE8E79" stop-opacity="0.287"/>
<stop offset="0.7624" stop-color="#D57B65" stop-opacity="0.765"/>
<stop offset="0.9972" stop-color="#C5715A"/>
</linearGradient>
<linearGradient id="paint12_linear_375_7534" x1="17.7533" y1="34.4161" x2="24.2601" y2="38.7296" gradientUnits="userSpaceOnUse">
<stop stop-color="#F89580" stop-opacity="0"/>
<stop offset="0.2859" stop-color="#EE8E79" stop-opacity="0.287"/>
<stop offset="0.7624" stop-color="#D57B65" stop-opacity="0.765"/>
<stop offset="0.9972" stop-color="#C5715A"/>
</linearGradient>
<linearGradient id="paint13_linear_375_7534" x1="18.5802" y1="34.8468" x2="22.5281" y2="37.1864" gradientUnits="userSpaceOnUse">
<stop stop-color="#F89580" stop-opacity="0"/>
<stop offset="0.2859" stop-color="#EE8E79" stop-opacity="0.287"/>
<stop offset="0.7624" stop-color="#D57B65" stop-opacity="0.765"/>
<stop offset="0.9972" stop-color="#C5715A"/>
</linearGradient>
<linearGradient id="paint14_linear_375_7534" x1="17.5148" y1="30.5137" x2="17.6505" y2="27.8457" gradientUnits="userSpaceOnUse">
<stop stop-color="#F89580" stop-opacity="0"/>
<stop offset="0.2859" stop-color="#EE8E79" stop-opacity="0.287"/>
<stop offset="0.7624" stop-color="#D57B65" stop-opacity="0.765"/>
<stop offset="0.9972" stop-color="#C5715A"/>
</linearGradient>
<linearGradient id="paint15_linear_375_7534" x1="0.0825937" y1="37.5238" x2="9.15797" y2="37.5238" gradientUnits="userSpaceOnUse">
<stop stop-color="#B3DAFE"/>
<stop offset="1" stop-color="#0182FC"/>
</linearGradient>
<linearGradient id="paint16_linear_375_7534" x1="4.21631" y1="43.525" x2="4.21631" y2="48.0716" gradientUnits="userSpaceOnUse">
<stop stop-color="#314DC9" stop-opacity="0"/>
<stop offset="0.2761" stop-color="#304BC4" stop-opacity="0.276"/>
<stop offset="0.5628" stop-color="#2B45B8" stop-opacity="0.563"/>
<stop offset="0.8535" stop-color="#243BA3" stop-opacity="0.854"/>
<stop offset="1" stop-color="#1F3596"/>
</linearGradient>
<linearGradient id="paint17_linear_375_7534" x1="22.0916" y1="6.16209" x2="42.2494" y2="26.3199" gradientUnits="userSpaceOnUse">
<stop stop-color="#FFBD5A"/>
<stop offset="1" stop-color="#FFA929"/>
</linearGradient>
<linearGradient id="paint18_linear_375_7534" x1="39.7483" y1="23.8191" x2="27.3553" y2="11.4261" gradientUnits="userSpaceOnUse">
<stop stop-color="#A73F3F"/>
<stop offset="1" stop-color="#8E6D18" stop-opacity="0.04"/>
</linearGradient>
<linearGradient id="paint19_linear_375_7534" x1="32.372" y1="29.5224" x2="32.372" y2="32.0548" gradientUnits="userSpaceOnUse">
<stop stop-color="#433F43" stop-opacity="0"/>
<stop offset="1" stop-color="#1A1A1A"/>
</linearGradient>
<linearGradient id="paint20_linear_375_7534" x1="42.3213" y1="22.1176" x2="45.9164" y2="24.1526" gradientUnits="userSpaceOnUse">
<stop stop-color="#FBB348" stop-opacity="0.83"/>
<stop offset="1" stop-color="#FFA929"/>
</linearGradient>
<linearGradient id="paint21_linear_375_7534" x1="30.7171" y1="13.1828" x2="35.1261" y2="15.896" gradientUnits="userSpaceOnUse">
<stop stop-color="#B3DAFE"/>
<stop offset="1" stop-color="#0182FC"/>
</linearGradient>
<linearGradient id="paint22_linear_375_7534" x1="31.3429" y1="21.1003" x2="32.8785" y2="22.636" gradientUnits="userSpaceOnUse">
<stop stop-color="#B3DAFE"/>
<stop offset="1" stop-color="#0182FC"/>
</linearGradient>
<clipPath id="clip0_375_7534">
<rect width="48" height="48" fill="white"/>
</clipPath>
</defs>
</svg>
