<svg width="58" height="55" viewBox="0 0 58 55" fill="none" xmlns="http://www.w3.org/2000/svg">
<path d="M56.2548 51.3999H39.9285C39.319 51.3999 38.825 50.9032 38.825 50.2903V43.9868C38.825 40.4129 41.7063 37.5157 45.2606 37.5157H50.9227C54.477 37.5157 57.3584 40.4129 57.3584 43.9868V50.2903C57.3584 50.9032 56.8643 51.3999 56.2548 51.3999Z" fill="#27D1B3"/>
<path d="M50.7528 46.1976L48.5396 48.1539C48.2834 48.3803 47.8998 48.3803 47.6436 48.1539L45.4304 46.1976C45.2386 46.028 45.1577 45.7645 45.2211 45.5157L47.2596 37.5157H48.9235L50.9621 45.5157C51.0256 45.7645 50.9447 46.028 50.7528 46.1976Z" fill="#FB4A59"/>
<path d="M57.3584 43.9866V50.2902C57.3584 50.903 56.8643 51.3998 56.2549 51.3998H54.0088V43.9866C54.0088 40.4137 51.1266 37.5157 47.5732 37.5157H50.9228C54.4771 37.5156 57.3584 40.4128 57.3584 43.9866Z" fill="#20B69F"/>
<path d="M48.0916 38.0864C45.194 38.0864 42.845 35.7245 42.845 32.8109V30.9066C42.845 27.993 45.1939 25.6311 48.0916 25.6311C50.9892 25.6311 53.3382 27.9929 53.3382 30.9066V32.8109C53.3382 35.7245 50.9892 38.0864 48.0916 38.0864Z" fill="#FFCEC0"/>
<path d="M53.3384 30.9073V32.8111C53.3384 35.7246 50.9893 38.0865 48.0917 38.0865C47.5123 38.0865 46.9534 37.9917 46.4314 37.8167C48.515 37.1169 50.0161 35.1404 50.0161 32.8112V30.9074C50.0161 29.4514 49.4293 28.1318 48.4796 27.1769C47.9104 26.6046 47.2129 26.1642 46.4314 25.9018C46.9534 25.7268 47.5123 25.632 48.0917 25.632C49.5398 25.632 50.8522 26.222 51.8018 27.1769C52.7514 28.1317 53.3384 29.4512 53.3384 30.9073Z" fill="#FDB0A0"/>
<path d="M18.2887 51.4H1.96227C1.3528 51.4 0.858765 50.9033 0.858765 50.2905V43.9869C0.858765 40.4131 3.74013 37.5159 7.29442 37.5159H12.9565C16.5108 37.5159 19.3922 40.4131 19.3922 43.9869V50.2905C19.3922 50.9033 18.8981 51.4 18.2887 51.4Z" fill="#FB4A59"/>
<path d="M12.7866 46.1977L10.5734 48.154C10.3172 48.3804 9.93364 48.3804 9.6774 48.154L7.46421 46.1977C7.27242 46.0282 7.19153 45.7646 7.25487 45.5159L9.29338 37.5159H10.9574L12.9959 45.5159C13.0593 45.7646 12.9784 46.0282 12.7866 46.1977Z" fill="#F8F3F1"/>
<path d="M19.3922 43.9868V50.2903C19.3922 50.9032 18.8981 51.3999 18.2887 51.3999H16.0426V43.9868C16.0426 40.4138 13.1605 37.5159 9.60706 37.5159H12.9566C16.5109 37.5158 19.3922 40.413 19.3922 43.9868Z" fill="#F82F40"/>
<path d="M10.1254 38.0865C7.22782 38.0865 4.87878 35.7247 4.87878 32.811V30.9067C4.87878 27.9932 7.22771 25.6312 10.1254 25.6312C13.023 25.6312 15.372 27.9931 15.372 30.9067V32.811C15.372 35.7247 13.023 38.0865 10.1254 38.0865Z" fill="#FFCEC0"/>
<path d="M15.3722 30.9074V32.8112C15.3722 35.7247 13.0231 38.0867 10.1255 38.0867C9.54609 38.0867 8.98717 37.9918 8.46521 37.8168C10.5489 37.117 12.05 35.1405 12.05 32.8113V30.9075C12.05 29.4516 11.4631 28.1319 10.5134 27.177C9.94424 26.6047 9.24671 26.1643 8.46521 25.9019C8.98717 25.7269 9.54609 25.6321 10.1255 25.6321C11.5736 25.6321 12.886 26.2221 13.8356 27.177C14.7853 28.1318 15.3722 29.4513 15.3722 30.9074Z" fill="#FDB0A0"/>
<path d="M41.0263 55.0008H17.1908C16.5813 55.0008 16.0873 54.504 16.0873 53.8912V43.6111C16.0873 38.5893 20.136 34.5183 25.1304 34.5183H33.0867C38.0811 34.5183 42.1298 38.5893 42.1298 43.6111V53.8912C42.1298 54.504 41.6358 55.0008 41.0263 55.0008Z" fill="#0D5F7F"/>
<path d="M42.1298 43.611V53.8911C42.1298 54.5039 41.6358 55.0006 41.0263 55.0006H37.423V43.6111C37.423 38.5905 33.373 34.5183 28.3799 34.5183H33.0867C38.0811 34.5183 42.1298 38.5892 42.1298 43.611Z" fill="#094C66"/>
<path d="M36.0527 35.0198L29.1086 48.3183L22.1644 35.0197C23.0935 34.6963 24.0925 34.5193 25.1313 34.5193H33.0858C34.1246 34.5194 35.1237 34.6964 36.0527 35.0198Z" fill="white"/>
<path d="M32.6524 41.5301L29.1085 48.3182L25.5646 41.5301L28.117 34.5193H30.1L32.6524 41.5301Z" fill="#FB4A59"/>
<path d="M20.3995 28.6062C21.9416 28.6062 23.1918 27.3491 23.1918 25.7985C23.1918 24.2479 21.9416 22.9908 20.3995 22.9908C18.8573 22.9908 17.6072 24.2479 17.6072 25.7985C17.6072 27.3491 18.8573 28.6062 20.3995 28.6062Z" fill="#FDB0A0"/>
<path d="M37.8175 28.6062C39.3596 28.6062 40.6098 27.3491 40.6098 25.7985C40.6098 24.2479 39.3596 22.9908 37.8175 22.9908C36.2753 22.9908 35.0251 24.2479 35.0251 25.7985C35.0251 27.3491 36.2753 28.6062 37.8175 28.6062Z" fill="#F69583"/>
<path d="M29.1085 35.3207C25.0369 35.3207 21.7361 32.0018 21.7361 27.9079V25.2319C21.7361 21.1379 25.0368 17.8191 29.1084 17.8191C33.18 17.8191 36.4807 21.1379 36.4807 25.2319V27.9079C36.4808 32.0018 33.1801 35.3207 29.1085 35.3207Z" fill="#FFCEC0"/>
<path d="M36.4811 25.232V27.9074C36.4811 32.0028 33.1799 35.3203 29.1085 35.3203C28.4988 35.3203 27.9045 35.2465 27.3375 35.104C30.5532 34.3072 32.9373 31.388 32.9373 27.9074V25.232C32.9373 23.1852 32.1124 21.3323 30.7769 19.9895C29.8428 19.0503 28.6609 18.3633 27.3374 18.0353C27.9044 17.8928 28.4987 17.819 29.1084 17.819C31.1441 17.819 32.9868 18.6484 34.3223 19.9895C35.6562 21.3323 36.4811 23.1851 36.4811 25.232Z" fill="#FDB0A0"/>
<path d="M38.8936 23.2327C37.417 23.3801 34.4728 23.5392 31.9487 22.8483C30.1542 22.3571 28.9235 20.697 28.9235 18.8271V15.9979C28.9235 14.5635 30.0799 13.4005 31.5067 13.4005H33.4499C36.9793 13.4005 39.8403 16.2773 39.8403 19.826V22.1813C39.8403 22.7249 39.4316 23.179 38.8936 23.2327Z" fill="#7A7179"/>
<path d="M39.8407 19.8266V22.1819C39.8407 22.7242 39.4319 23.1789 38.8928 23.2321C37.8748 23.3349 36.1605 23.4414 34.3649 23.2702C34.5144 23.2569 34.6524 23.2454 34.7811 23.2321C35.3185 23.1789 35.7271 22.7242 35.7271 22.1819V19.8266C35.7271 16.735 33.5587 14.1552 30.6694 13.5407C30.9305 13.4494 31.2125 13.3999 31.5058 13.3999H33.4489C36.9797 13.3999 39.8407 16.2766 39.8407 19.8266Z" fill="#685E67"/>
<path d="M19.314 23.5202C20.9864 23.6977 24.5983 23.9286 27.679 23.0855C29.7944 22.5065 31.2451 20.5497 31.2451 18.3454V15.0105C31.2451 13.3195 29.8819 11.9487 28.2001 11.9487H25.9095C21.7491 11.9487 18.3766 15.3398 18.3766 19.523V22.47C18.3766 23.0094 18.7805 23.4635 19.314 23.5202Z" fill="#9B8F99"/>
<path d="M31.2447 15.0093V18.3445C31.2447 20.5495 29.7935 22.5072 27.6799 23.0855C25.135 23.7819 22.2287 23.7457 20.3536 23.6126C21.4113 23.5288 22.5032 23.3672 23.5343 23.0855C25.6497 22.5072 27.1009 20.5495 27.1009 18.3445V15.0093C27.1009 13.5672 26.1075 12.3572 24.7717 12.0338C25.1426 11.9767 25.5229 11.9481 25.9089 11.9481H28.2002C29.8824 11.9481 31.2447 13.3199 31.2447 15.0093Z" fill="#8B8088"/>
<path d="M28.256 54.9942V48.3183C28.256 47.8449 28.6377 47.4611 29.1086 47.4611C29.5794 47.4611 29.9611 47.8449 29.9611 48.3183V54.9942H28.256Z" fill="#094C66"/>
<path d="M32.315 50.8796C32.3141 50.8796 32.3133 50.8796 32.3125 50.8796L32.2929 50.8795C31.822 50.8782 31.4414 50.4933 31.4428 50.0198C31.4441 49.5472 31.8256 49.1649 32.2953 49.1649H32.2979H32.3175C32.7884 49.1662 33.169 49.5512 33.1676 50.0247C33.1662 50.4974 32.7846 50.8796 32.315 50.8796Z" fill="white"/>
<path d="M15.9252 20.9723C21.6667 20.9723 26.321 16.2923 26.321 10.5193C26.321 4.74634 21.6667 0.0664062 15.9252 0.0664062C10.1838 0.0664062 5.52942 4.74634 5.52942 10.5193C5.52942 16.2923 10.1838 20.9723 15.9252 20.9723Z" fill="#27D1B3"/>
<path d="M26.3214 10.5189C26.3214 16.2919 21.6668 20.9721 15.9254 20.9721C14.9701 20.9721 14.0458 20.843 13.1675 20.5999C18.6886 20.5816 23.1592 16.0747 23.1592 10.5189C23.1592 4.9632 18.6876 0.456243 13.1654 0.439044C14.0448 0.195938 14.9701 0.0668945 15.9254 0.0668945C21.6668 0.0668945 26.3214 4.74595 26.3214 10.5189Z" fill="#20B69F"/>
<path d="M13.1455 15.6338L9.41473 11.8826C9.20583 11.6725 9.20583 11.332 9.41473 11.122L10.9556 9.57278C11.1644 9.36274 11.5031 9.36274 11.712 9.57278L13.902 11.7748L20.1384 5.50421C20.3473 5.29417 20.6859 5.29417 20.8948 5.50421L22.4356 7.05339C22.6444 7.26343 22.6444 7.60396 22.4356 7.814L14.6584 15.6338C14.2406 16.0539 13.5633 16.0539 13.1455 15.6338Z" fill="#BCEA73"/>
</svg>
