<svg width="58" height="54" viewBox="0 0 58 54" fill="none" xmlns="http://www.w3.org/2000/svg">
<path d="M50.5366 4.92957H6.97804C3.21641 4.92957 0.166748 7.98776 0.166748 11.7613V46.309C0.166748 50.0826 3.21641 53.1408 6.97804 53.1408H50.5366C54.2983 53.1408 57.3479 50.0826 57.3479 46.309V11.7613C57.3479 7.98776 54.2983 4.92957 50.5366 4.92957ZM9.77207 14.076C7.89294 14.076 6.37035 12.5486 6.37035 10.6647C6.37035 8.77958 7.89294 7.25217 9.77207 7.25217C11.6501 7.25217 13.1727 8.77958 13.1727 10.6647C13.1727 12.5486 11.6501 14.076 9.77207 14.076ZM19.2641 14.076C17.3861 14.076 15.8635 12.5486 15.8635 10.6647C15.8635 8.77958 17.3861 7.25217 19.2641 7.25217C21.1433 7.25217 22.6659 8.77958 22.6659 10.6647C22.6659 12.5486 21.1433 14.076 19.2641 14.076ZM28.7573 14.076C26.8793 14.076 25.3567 12.5486 25.3567 10.6647C25.3567 8.77958 26.8793 7.25217 28.7573 7.25217C30.6354 7.25217 32.1579 8.77958 32.1579 10.6647C32.1579 12.5486 30.6354 14.076 28.7573 14.076ZM38.2505 14.076C36.3714 14.076 34.8488 12.5486 34.8488 10.6647C34.8488 8.77958 36.3714 7.25217 38.2505 7.25217C40.1286 7.25217 41.6511 8.77958 41.6511 10.6647C41.6511 12.5486 40.1286 14.076 38.2505 14.076ZM47.7426 14.076C45.8646 14.076 44.342 12.5486 44.342 10.6647C44.342 8.77958 45.8646 7.25217 47.7426 7.25217C49.6217 7.25217 51.1443 8.77958 51.1443 10.6647C51.1443 12.5486 49.6217 14.076 47.7426 14.076Z" fill="url(#paint0_linear_375_2263)"/>
<path d="M50.5366 4.92957H25.665V9.2441C26.201 8.06874 27.385 7.25217 28.7573 7.25217C30.6353 7.25217 32.1579 8.77958 32.1579 10.6647C32.1579 12.5486 30.6353 14.076 28.7573 14.076C27.3838 14.076 26.201 13.2594 25.665 12.0841V53.1408H50.5366C54.2982 53.1408 57.3479 50.0826 57.3479 46.309V11.7613C57.3479 7.98776 54.2982 4.92957 50.5366 4.92957ZM38.2505 14.076C36.3714 14.076 34.8488 12.5486 34.8488 10.6647C34.8488 8.77958 36.3714 7.25217 38.2505 7.25217C40.1285 7.25217 41.6511 8.77958 41.6511 10.6647C41.6511 12.5486 40.1285 14.076 38.2505 14.076ZM47.7426 14.076C45.8646 14.076 44.342 12.5486 44.342 10.6647C44.342 8.77958 45.8646 7.25217 47.7426 7.25217C49.6217 7.25217 51.1443 8.77958 51.1443 10.6647C51.1443 12.5486 49.6217 14.076 47.7426 14.076Z" fill="url(#paint1_linear_375_2263)"/>
<path d="M9.77209 7.25217C11.6501 7.25217 13.1727 8.77958 13.1727 10.6647C13.1727 12.5486 11.6501 14.076 9.77209 14.076H19.2642C17.3862 14.076 15.8636 12.5486 15.8636 10.6647C15.8636 8.77958 17.3862 7.25217 19.2642 7.25217V4.92957H9.77209V7.25217Z" fill="url(#paint2_linear_375_2263)"/>
<path d="M19.2642 7.25217C21.1422 7.25217 22.6648 8.77958 22.6648 10.6647C22.6648 12.5486 21.1422 14.076 19.2642 14.076H28.7562C26.8782 14.076 25.3556 12.5486 25.3556 10.6647C25.3556 8.77958 26.8782 7.25217 28.7562 7.25217V4.92957H19.2642V7.25217Z" fill="url(#paint3_linear_375_2263)"/>
<path d="M28.7562 7.25217C30.6342 7.25217 32.1568 8.77958 32.1568 10.6647C32.1568 12.5486 30.6342 14.076 28.7562 14.076H38.2483C36.3703 14.076 34.8477 12.5486 34.8477 10.6647C34.8477 8.77958 36.3703 7.25217 38.2483 7.25217V4.92957H28.7562V7.25217Z" fill="url(#paint4_linear_375_2263)"/>
<path d="M38.2483 7.25217C40.1263 7.25217 41.6489 8.77958 41.6489 10.6647C41.6489 12.5486 40.1263 14.076 38.2483 14.076H47.7404C45.8624 14.076 44.3398 12.5486 44.3398 10.6647C44.3398 8.77958 45.8624 7.25217 47.7404 7.25217V4.92957H38.2483V7.25217Z" fill="url(#paint5_linear_375_2263)"/>
<path d="M47.7415 7.25217H47.7426C49.6217 7.25217 51.1443 8.77958 51.1443 10.6647C51.1443 12.5486 49.6217 14.076 47.7426 14.076H57.2326C55.3545 14.076 53.832 12.5486 53.832 10.6647C53.832 9.26074 54.6768 8.05569 55.8836 7.53178C54.6362 5.94746 52.7055 4.92957 50.5366 4.92957H47.7405V7.25217H47.7415Z" fill="url(#paint6_linear_375_2263)"/>
<path d="M0.166748 25.905V46.3086C0.166748 50.082 3.21607 53.141 6.97759 53.141H50.5371C54.2986 53.141 57.3479 50.082 57.3479 46.3086V25.905H0.166748Z" fill="url(#paint7_linear_375_2263)"/>
<path d="M9.77174 11.393C8.75011 11.393 7.92188 10.5622 7.92188 9.53729V2.84718C7.92188 1.82231 8.75011 0.991455 9.77174 0.991455C10.7934 0.991455 11.6216 1.82231 11.6216 2.84718V9.53729C11.6216 10.5622 10.7934 11.393 9.77174 11.393Z" fill="url(#paint8_linear_375_2263)"/>
<path d="M19.2645 11.3929C18.2429 11.3929 17.4147 10.562 17.4147 9.53717V2.84705C17.4147 1.82218 18.2429 0.991333 19.2645 0.991333C20.2862 0.991333 21.1144 1.82218 21.1144 2.84705V9.53717C21.1145 10.562 20.2863 11.3929 19.2645 11.3929Z" fill="url(#paint9_linear_375_2263)"/>
<path d="M28.7573 11.3929C27.7357 11.3929 26.9075 10.562 26.9075 9.53717V2.84705C26.9075 1.82218 27.7357 0.991333 28.7573 0.991333C29.779 0.991333 30.6072 1.82218 30.6072 2.84705V9.53717C30.6072 10.562 29.779 11.3929 28.7573 11.3929Z" fill="url(#paint10_linear_375_2263)"/>
<path d="M38.2503 11.3929C37.2286 11.3929 36.4004 10.562 36.4004 9.53717V2.84705C36.4004 1.82218 37.2286 0.991333 38.2503 0.991333C39.2719 0.991333 40.1001 1.82218 40.1001 2.84705V9.53717C40.1001 10.562 39.2719 11.3929 38.2503 11.3929Z" fill="url(#paint11_linear_375_2263)"/>
<path d="M47.7429 11.3929C46.7213 11.3929 45.8931 10.562 45.8931 9.53717V2.84705C45.8931 1.82218 46.7213 0.991333 47.7429 0.991333C48.7646 0.991333 49.5928 1.82218 49.5928 2.84705V9.53717C49.5928 10.562 48.7647 11.3929 47.7429 11.3929Z" fill="url(#paint12_linear_375_2263)"/>
<path d="M13.3696 24.8143H8.82896C7.71438 24.8143 6.81091 23.908 6.81091 22.7899V18.2349C6.81091 17.1168 7.71438 16.2104 8.82896 16.2104H13.3696C14.4842 16.2104 15.3876 17.1168 15.3876 18.2349V22.7899C15.3876 23.908 14.4841 24.8143 13.3696 24.8143Z" fill="url(#paint13_linear_375_2263)"/>
<path d="M25.1417 24.8144H20.6011C19.4865 24.8144 18.583 23.9081 18.583 22.79V18.235C18.583 17.1169 19.4865 16.2106 20.6011 16.2106H25.1417C26.2563 16.2106 27.1597 17.1169 27.1597 18.235V22.79C27.1597 23.9081 26.2562 24.8144 25.1417 24.8144Z" fill="url(#paint14_linear_375_2263)"/>
<path d="M36.9135 24.8144H32.3729C31.2583 24.8144 30.3549 23.9081 30.3549 22.79V18.235C30.3549 17.1169 31.2583 16.2106 32.3729 16.2106H36.9135C38.0281 16.2106 38.9316 17.1169 38.9316 18.235V22.79C38.9316 23.9081 38.0281 24.8144 36.9135 24.8144Z" fill="url(#paint15_linear_375_2263)"/>
<path d="M48.6856 24.8144H44.145C43.0304 24.8144 42.127 23.9081 42.127 22.79V18.235C42.127 17.1169 43.0304 16.2106 44.145 16.2106H48.6856C49.8002 16.2106 50.7037 17.1169 50.7037 18.235V22.79C50.7037 23.9081 49.8002 24.8144 48.6856 24.8144Z" fill="url(#paint16_linear_375_2263)"/>
<path d="M13.3696 36.9608H8.82896C7.71438 36.9608 6.81091 36.0545 6.81091 34.9364V30.3814C6.81091 29.2633 7.71438 28.3569 8.82896 28.3569H13.3696C14.4842 28.3569 15.3876 29.2633 15.3876 30.3814V34.9364C15.3876 36.0544 14.4841 36.9608 13.3696 36.9608Z" fill="url(#paint17_linear_375_2263)"/>
<path d="M25.1417 36.9608H20.6011C19.4865 36.9608 18.583 36.0545 18.583 34.9364V30.3814C18.583 29.2633 19.4865 28.3569 20.6011 28.3569H25.1417C26.2563 28.3569 27.1597 29.2633 27.1597 30.3814V34.9364C27.1597 36.0544 26.2562 36.9608 25.1417 36.9608Z" fill="url(#paint18_linear_375_2263)"/>
<path d="M36.9135 36.9608H32.3729C31.2583 36.9608 30.3549 36.0545 30.3549 34.9364V30.3814C30.3549 29.2633 31.2583 28.3569 32.3729 28.3569H36.9135C38.0281 28.3569 38.9316 29.2633 38.9316 30.3814V34.9364C38.9316 36.0544 38.0281 36.9608 36.9135 36.9608Z" fill="url(#paint19_linear_375_2263)"/>
<path d="M48.6856 36.9608H44.145C43.0304 36.9608 42.127 36.0545 42.127 34.9364V30.3814C42.127 29.2633 43.0304 28.3569 44.145 28.3569H48.6856C49.8002 28.3569 50.7037 29.2633 50.7037 30.3814V34.9364C50.7037 36.0544 49.8002 36.9608 48.6856 36.9608Z" fill="url(#paint20_linear_375_2263)"/>
<path d="M13.3696 49.1078H8.82896C7.71438 49.1078 6.81091 48.2015 6.81091 47.0833V42.5283C6.81091 41.4102 7.71438 40.5039 8.82896 40.5039H13.3696C14.4842 40.5039 15.3876 41.4102 15.3876 42.5283V47.0833C15.3876 48.2015 14.4841 49.1078 13.3696 49.1078Z" fill="url(#paint21_linear_375_2263)"/>
<path d="M25.1417 49.1078H20.6011C19.4865 49.1078 18.583 48.2015 18.583 47.0833V42.5283C18.583 41.4102 19.4865 40.5039 20.6011 40.5039H25.1417C26.2563 40.5039 27.1597 41.4102 27.1597 42.5283V47.0833C27.1597 48.2015 26.2562 49.1078 25.1417 49.1078Z" fill="url(#paint22_linear_375_2263)"/>
<path d="M33.0371 35.9412L24.3606 44.6451L20.8895 45.6152L28.3913 53.1408H50.1824L33.0371 35.9412Z" fill="url(#paint23_linear_375_2263)"/>
<path d="M23.1325 46.5457C22.3202 46.5457 21.5079 46.2355 20.8895 45.6152L18.1053 42.8221C17.558 42.273 17.558 41.3829 18.1053 40.8338C18.6526 40.2847 19.54 40.2847 20.0873 40.8338L22.8716 43.6269C22.961 43.7165 23.0629 43.7353 23.1326 43.7353C23.2024 43.7353 23.3043 43.7165 23.3936 43.6269L31.0551 35.9411C31.6025 35.392 32.4898 35.392 33.0372 35.9411C33.5844 36.4902 33.5844 37.3804 33.0372 37.9295L25.3757 45.6152C24.7571 46.2355 23.9449 46.5457 23.1325 46.5457Z" fill="url(#paint24_linear_375_2263)"/>
<defs>
<linearGradient id="paint0_linear_375_2263" x1="24.1626" y1="15.9987" x2="42.0414" y2="66.4055" gradientUnits="userSpaceOnUse">
<stop stop-color="#EAF9FA"/>
<stop offset="1" stop-color="#A8D3D8"/>
</linearGradient>
<linearGradient id="paint1_linear_375_2263" x1="50.8364" y1="29.0352" x2="59.799" y2="29.0352" gradientUnits="userSpaceOnUse">
<stop stop-color="#7CA1B1" stop-opacity="0"/>
<stop offset="1" stop-color="#7CA1B1"/>
</linearGradient>
<linearGradient id="paint2_linear_375_2263" x1="13.0448" y1="8.37478" x2="10.1978" y2="6.20898" gradientUnits="userSpaceOnUse">
<stop stop-color="#7CA1B1" stop-opacity="0"/>
<stop offset="1" stop-color="#7CA1B1"/>
</linearGradient>
<linearGradient id="paint3_linear_375_2263" x1="22.5368" y1="8.37478" x2="19.6899" y2="6.20898" gradientUnits="userSpaceOnUse">
<stop stop-color="#7CA1B1" stop-opacity="0"/>
<stop offset="1" stop-color="#7CA1B1"/>
</linearGradient>
<linearGradient id="paint4_linear_375_2263" x1="32.0289" y1="8.37478" x2="29.182" y2="6.20898" gradientUnits="userSpaceOnUse">
<stop stop-color="#7CA1B1" stop-opacity="0"/>
<stop offset="1" stop-color="#7CA1B1"/>
</linearGradient>
<linearGradient id="paint5_linear_375_2263" x1="41.521" y1="8.37478" x2="38.674" y2="6.20898" gradientUnits="userSpaceOnUse">
<stop stop-color="#7CA1B1" stop-opacity="0"/>
<stop offset="1" stop-color="#7CA1B1"/>
</linearGradient>
<linearGradient id="paint6_linear_375_2263" x1="50.2047" y1="9.43744" x2="47.3577" y2="7.27164" gradientUnits="userSpaceOnUse">
<stop stop-color="#7CA1B1" stop-opacity="0"/>
<stop offset="1" stop-color="#7CA1B1"/>
</linearGradient>
<linearGradient id="paint7_linear_375_2263" x1="28.7573" y1="44.6519" x2="28.7573" y2="55.9383" gradientUnits="userSpaceOnUse">
<stop stop-color="#7CA1B1" stop-opacity="0"/>
<stop offset="1" stop-color="#7CA1B1"/>
</linearGradient>
<linearGradient id="paint8_linear_375_2263" x1="8.59448" y1="6.19229" x2="11.1671" y2="6.19229" gradientUnits="userSpaceOnUse">
<stop stop-color="#FD8087"/>
<stop offset="1" stop-color="#FD3E2B"/>
</linearGradient>
<linearGradient id="paint9_linear_375_2263" x1="18.0874" y1="6.19217" x2="20.6599" y2="6.19217" gradientUnits="userSpaceOnUse">
<stop stop-color="#FD8087"/>
<stop offset="1" stop-color="#FD3E2B"/>
</linearGradient>
<linearGradient id="paint10_linear_375_2263" x1="27.5802" y1="6.19217" x2="30.1527" y2="6.19217" gradientUnits="userSpaceOnUse">
<stop stop-color="#FD8087"/>
<stop offset="1" stop-color="#FD3E2B"/>
</linearGradient>
<linearGradient id="paint11_linear_375_2263" x1="37.073" y1="6.19217" x2="39.6456" y2="6.19217" gradientUnits="userSpaceOnUse">
<stop stop-color="#FD8087"/>
<stop offset="1" stop-color="#FD3E2B"/>
</linearGradient>
<linearGradient id="paint12_linear_375_2263" x1="46.5658" y1="6.19217" x2="49.1383" y2="6.19217" gradientUnits="userSpaceOnUse">
<stop stop-color="#FD8087"/>
<stop offset="1" stop-color="#FD3E2B"/>
</linearGradient>
<linearGradient id="paint13_linear_375_2263" x1="-3.86807" y1="5.49779" x2="22.0421" y2="31.3261" gradientUnits="userSpaceOnUse">
<stop stop-color="#7CA1B1" stop-opacity="0"/>
<stop offset="1" stop-color="#7CA1B1"/>
</linearGradient>
<linearGradient id="paint14_linear_375_2263" x1="7.90403" y1="5.49791" x2="33.8142" y2="31.3262" gradientUnits="userSpaceOnUse">
<stop stop-color="#7CA1B1" stop-opacity="0"/>
<stop offset="1" stop-color="#7CA1B1"/>
</linearGradient>
<linearGradient id="paint15_linear_375_2263" x1="19.676" y1="5.49791" x2="45.586" y2="31.3262" gradientUnits="userSpaceOnUse">
<stop stop-color="#7CA1B1" stop-opacity="0"/>
<stop offset="1" stop-color="#7CA1B1"/>
</linearGradient>
<linearGradient id="paint16_linear_375_2263" x1="31.4481" y1="5.49791" x2="57.3581" y2="31.3262" gradientUnits="userSpaceOnUse">
<stop stop-color="#7CA1B1" stop-opacity="0"/>
<stop offset="1" stop-color="#7CA1B1"/>
</linearGradient>
<linearGradient id="paint17_linear_375_2263" x1="-3.86807" y1="17.6443" x2="22.042" y2="43.4726" gradientUnits="userSpaceOnUse">
<stop stop-color="#7CA1B1" stop-opacity="0"/>
<stop offset="1" stop-color="#7CA1B1"/>
</linearGradient>
<linearGradient id="paint18_linear_375_2263" x1="7.90403" y1="17.6443" x2="33.8141" y2="43.4726" gradientUnits="userSpaceOnUse">
<stop stop-color="#7CA1B1" stop-opacity="0"/>
<stop offset="1" stop-color="#7CA1B1"/>
</linearGradient>
<linearGradient id="paint19_linear_375_2263" x1="19.676" y1="17.6443" x2="45.586" y2="43.4726" gradientUnits="userSpaceOnUse">
<stop stop-color="#7CA1B1" stop-opacity="0"/>
<stop offset="1" stop-color="#7CA1B1"/>
</linearGradient>
<linearGradient id="paint20_linear_375_2263" x1="31.4481" y1="17.6443" x2="57.3581" y2="43.4726" gradientUnits="userSpaceOnUse">
<stop stop-color="#7CA1B1" stop-opacity="0"/>
<stop offset="1" stop-color="#7CA1B1"/>
</linearGradient>
<linearGradient id="paint21_linear_375_2263" x1="-3.86807" y1="29.7912" x2="22.0421" y2="55.6195" gradientUnits="userSpaceOnUse">
<stop stop-color="#7CA1B1" stop-opacity="0"/>
<stop offset="1" stop-color="#7CA1B1"/>
</linearGradient>
<linearGradient id="paint22_linear_375_2263" x1="7.90403" y1="29.7912" x2="33.8142" y2="55.6195" gradientUnits="userSpaceOnUse">
<stop stop-color="#99E6FC"/>
<stop offset="1" stop-color="#01C0FA"/>
</linearGradient>
<linearGradient id="paint23_linear_375_2263" x1="37.8941" y1="51.7436" x2="22.4506" y2="36.3488" gradientUnits="userSpaceOnUse">
<stop stop-color="#017BAE" stop-opacity="0"/>
<stop offset="1" stop-color="#017BAE"/>
</linearGradient>
<linearGradient id="paint24_linear_375_2263" x1="22.7825" y1="36.584" x2="29.869" y2="43.6482" gradientUnits="userSpaceOnUse">
<stop stop-color="#D1F19E"/>
<stop offset="1" stop-color="#8BC727"/>
</linearGradient>
</defs>
</svg>
