<svg width="24" height="24" viewBox="0 0 24 24" fill="none" xmlns="http://www.w3.org/2000/svg">
<g clip-path="url(#clip0_375_4167)">
<path d="M12 23.9999C16.9617 23.9999 20.9839 23.135 20.9839 22.0681C20.9839 21.0012 16.9617 20.1362 12 20.1362C7.03834 20.1362 3.01611 21.0012 3.01611 22.0681C3.01611 23.135 7.03834 23.9999 12 23.9999Z" fill="url(#paint0_linear_375_4167)"/>
<path d="M20.9839 22.0681C20.9839 21.0012 16.9617 20.1362 12 20.1362C11.1746 20.1362 10.3755 20.1603 9.61621 20.2051L11.2979 22.6791C11.3448 22.7481 11.3996 22.8072 11.4596 22.857L12.5982 23.9956C17.2809 23.9294 20.9839 23.0918 20.9839 22.0681Z" fill="url(#paint1_linear_375_4167)"/>
<path d="M21.8467 9.84668C21.8467 4.40852 17.4383 0 12.0001 0C6.58559 0 2.20813 4.33143 2.15383 9.74569C2.11284 13.8349 4.56493 17.3557 8.08305 18.8827C8.67176 19.1383 9.17533 19.5565 9.53613 20.0873L11.2979 22.6792C11.6348 23.1747 12.3652 23.1747 12.7021 22.6792L14.4639 20.0873C14.8235 19.5582 15.3245 19.1395 15.9115 18.8851C19.4036 17.3719 21.8467 13.8949 21.8467 9.84668Z" fill="url(#paint2_linear_375_4167)"/>
<path d="M12.0001 22.5602C11.943 22.5602 11.8 22.5449 11.7037 22.4034L9.94198 19.8115C9.52767 19.202 8.95243 18.7252 8.27845 18.4327C4.81812 16.9307 2.60669 13.5228 2.64452 9.75063C2.66946 7.26235 3.65233 4.93289 5.41205 3.19129C7.17158 1.44988 9.51149 0.490723 12.0001 0.490723H12.0001C17.159 0.490723 21.3561 4.68785 21.3561 9.84677C21.3561 13.5793 19.1424 16.9504 15.7165 18.435C15.0464 18.7254 14.4729 19.2014 14.0581 19.8116L12.2964 22.4034C12.2001 22.5449 12.0571 22.5602 12.0001 22.5602Z" fill="url(#paint3_linear_375_4167)"/>
<path d="M12 16.0363C15.4184 16.0363 18.1895 13.2652 18.1895 9.84678C18.1895 6.42838 15.4184 3.65723 12 3.65723C8.58158 3.65723 5.81042 6.42838 5.81042 9.84678C5.81042 13.2652 8.58158 16.0363 12 16.0363Z" fill="url(#paint4_linear_375_4167)"/>
<path d="M21.5387 12.2983L15.6581 6.41774C14.7433 5.44221 13.443 4.83252 12.0001 4.83252C9.23078 4.83252 6.98584 7.07746 6.98584 9.84673C6.98584 11.2896 7.59553 12.59 8.57106 13.5048L14.7685 19.7023C15.087 19.354 15.4754 19.0741 15.9116 18.8852C18.6734 17.6883 20.7788 15.263 21.5387 12.2983Z" fill="url(#paint5_linear_375_4167)"/>
<path d="M12.0001 14.8609C14.7693 14.8609 17.0143 12.616 17.0143 9.84673C17.0143 7.07746 14.7693 4.83252 12.0001 4.83252C9.23078 4.83252 6.98584 7.07746 6.98584 9.84673C6.98584 12.616 9.23078 14.8609 12.0001 14.8609Z" fill="url(#paint6_linear_375_4167)"/>
</g>
<defs>
<linearGradient id="paint0_linear_375_4167" x1="11.8022" y1="21.2344" x2="12.9182" y2="25.9376" gradientUnits="userSpaceOnUse">
<stop stop-color="#FFDA45"/>
<stop offset="1" stop-color="#FFA425"/>
</linearGradient>
<linearGradient id="paint1_linear_375_4167" x1="16.6649" y1="22.9621" x2="13.6936" y2="19.171" gradientUnits="userSpaceOnUse">
<stop stop-color="#FFDA45" stop-opacity="0"/>
<stop offset="1" stop-color="#B53759"/>
</linearGradient>
<linearGradient id="paint2_linear_375_4167" x1="6.05712" y1="3.90344" x2="25.7041" y2="23.5505" gradientUnits="userSpaceOnUse">
<stop stop-color="#FF7044"/>
<stop offset="1" stop-color="#F92814"/>
</linearGradient>
<linearGradient id="paint3_linear_375_4167" x1="9.88843" y1="7.7406" x2="2.98424" y2="0.836416" gradientUnits="userSpaceOnUse">
<stop stop-color="#FF7044" stop-opacity="0"/>
<stop offset="1" stop-color="#FFA425"/>
</linearGradient>
<linearGradient id="paint4_linear_375_4167" x1="15.7322" y1="13.579" x2="3.38737" y2="1.23417" gradientUnits="userSpaceOnUse">
<stop stop-color="#FF7044"/>
<stop offset="1" stop-color="#F92814"/>
</linearGradient>
<linearGradient id="paint5_linear_375_4167" x1="18.4394" y1="16.2861" x2="12.968" y2="10.8147" gradientUnits="userSpaceOnUse">
<stop stop-color="#F92814" stop-opacity="0"/>
<stop offset="1" stop-color="#C1272D"/>
</linearGradient>
<linearGradient id="paint6_linear_375_4167" x1="10.7726" y1="7.97483" x2="13.7356" y2="12.4934" gradientUnits="userSpaceOnUse">
<stop stop-color="#F9F7FC"/>
<stop offset="1" stop-color="#F0DDFC"/>
</linearGradient>
<clipPath id="clip0_375_4167">
<rect width="24" height="24" fill="white"/>
</clipPath>
</defs>
</svg>
