<svg width="209" height="183" viewBox="0 0 209 183" fill="none" xmlns="http://www.w3.org/2000/svg">
<mask id="mask0_375_3551" style="mask-type:luminance" maskUnits="userSpaceOnUse" x="0" y="0" width="209" height="183">
<path d="M175.923 136.475C170.486 136.475 168.311 133.228 168.311 133.228C167.949 131.784 167.586 110.318 167.405 89.0313C167.224 66.843 167.405 44.8351 168.493 44.6547C174.836 32.9292 194.772 9.29771 194.772 9.29771C157.437 16.6938 137.138 41.0468 137.138 41.0468C131.158 36.3566 118.833 37.0782 118.833 37.0782C124.633 40.1449 130.251 49.3449 130.251 56.9214V131.604C130.251 131.604 117.746 142.608 108.14 142.608C102.341 142.608 98.8971 139.541 96.9035 137.016C95.6348 135.212 95.0911 133.769 95.0911 133.769V41.588C93.8225 42.49 92.1913 43.2115 90.5602 43.2115C88.5666 43.2115 86.3917 42.1292 84.9418 39.2429C83.8544 36.8978 83.1294 33.6507 83.1294 28.5997C83.1294 11.6428 102.522 0.278076 102.522 0.278076C78.0547 6.77221 55.2187 19.3997 24.9519 54.0351C-5.3149 88.6705 0.484733 117.173 0.484733 117.173C0.484733 117.173 8.64046 97.3294 28.7579 76.5842C38.3635 66.843 45.4318 63.5959 50.3253 63.4155C55.7624 63.4155 58.2997 67.3842 58.2997 70.992V141.165C58.2997 148.02 53.7688 149.643 49.6003 149.463C46.1568 149.463 42.8945 148.2 42.8945 148.2C63.5557 177.965 112.852 182.294 112.852 182.294L134.601 159.204L135.145 159.565L155.081 176.341C191.329 154.875 208.909 115.008 208.909 115.008C192.416 132.506 182.086 136.475 175.923 136.475Z" fill="white"/>
</mask>
<g mask="url(#mask0_375_3551)">
<mask id="mask1_375_3551" style="mask-type:luminance" maskUnits="userSpaceOnUse" x="-185" y="-233" width="1280" height="849">
<path d="M1094.44 -232.789H-184.378V615.778H1094.44V-232.789Z" fill="white"/>
</mask>
<g mask="url(#mask1_375_3551)">
<path d="M210.902 -14.0208H-2.23389V172.505H210.902V-14.0208Z" fill="#4FAA9A"/>
</g>
</g>
</svg>
