<svg width="236" height="229" viewBox="0 0 236 229" fill="none" xmlns="http://www.w3.org/2000/svg">
<path d="M174.182 64.5298L122.566 37.0409L47.5616 60.313L74.1946 77.6745L103.236 63.1305C104.463 62.6095 105.702 63.4171 105.403 64.5437L103.253 102.783C103.264 104.112 102.346 104.835 101.631 105.249L67.2725 122.493C66.3542 123.216 64.8058 122.207 65.1045 121.08L66.8931 88.771L40.2601 71.4095L35.3944 154.127L104.764 199.348L106.457 167.857L79.204 150.092C78.2749 149.486 78.467 147.85 79.1821 147.435L113.54 130.191C114.768 129.67 115.59 129.765 116.519 130.371L148.727 151.366C149.656 151.972 149.464 153.609 148.749 154.023L119.708 168.568L118.015 200.058L192.358 163.071L197.021 80.6619L168.695 94.7911L166.907 127.1C166.918 128.429 165.69 128.95 164.451 128.142L132.244 107.147C131.315 106.541 130.791 105.319 130.887 104.501L133.037 66.261C133.027 64.9326 134.254 64.4115 135.493 65.2191L162.746 82.9845L174.182 64.5298Z" fill="#8A873A"/>
<path d="M192.358 163.071L197.021 80.662L168.695 94.7912L166.907 127.1C166.918 128.429 165.69 128.95 164.451 128.142L132.244 107.147C131.315 106.541 130.791 105.319 130.887 104.501L133.037 66.2611C133.027 64.9327 134.254 64.4116 135.493 65.2192L162.746 82.9846L191.072 68.8555L121.392 23.4329L108.505 69.9893L116.485 113.611L192.358 163.071Z" fill="#C0BD68"/>
<path d="M47.5616 60.313L74.1946 77.6745L103.236 63.1305C104.463 62.6095 105.702 63.417 105.403 64.5437L103.253 102.783C103.264 104.112 102.346 104.835 101.631 105.249L67.2725 122.493C66.3542 123.216 64.8059 122.207 65.1045 121.08L66.8931 88.7709L40.2601 71.4095L35.3944 154.127L116.485 113.611L121.392 23.4327L47.5616 60.313Z" fill="#F0EEB3"/>
</svg>
